STARTFONT 2.1
FONT -FontForge-Noto Sans-Bold-R-Normal-Sans--60-450-96-96-P-338-ISO10646-1
SIZE 45 96 96
FONTBOUNDINGBOX 126 88 -40 -24
COMMENT "Generated by fontforge, http://fontforge.sourceforge.net"
COMMENT "Copyright 2012 Google Inc. All Rights Reserved."
STARTPROPERTIES 40
FOUNDRY "FontForge"
FAMILY_NAME "Noto Sans"
WEIGHT_NAME "Bold"
SLANT "R"
SETWIDTH_NAME "Normal"
ADD_STYLE_NAME "Sans"
PIXEL_SIZE 60
POINT_SIZE 450
RESOLUTION_X 96
RESOLUTION_Y 96
SPACING "P"
AVERAGE_WIDTH 338
CHARSET_REGISTRY "ISO10646"
CHARSET_ENCODING "1"
FONTNAME_REGISTRY ""
CHARSET_COLLECTIONS "ASCII ISOLatin1Encoding ISO8859-2 ISO8859-5 ISO8859-7 ISO8859-9 ISO8859-4 ISO10646-1"
FONT_NAME "NotoSans-Bold"
FACE_NAME "Noto Sans Bold"
COPYRIGHT "Copyright 2012 Google Inc. All Rights Reserved."
FONT_VERSION "1.04"
FONT_ASCENT 48
FONT_DESCENT 12
UNDERLINE_POSITION -6
UNDERLINE_THICKNESS 3
X_HEIGHT 32
CAP_HEIGHT 42
DEFAULT_CHAR 2362
RAW_ASCENT 799
RAW_DESCENT 200
NORM_SPACE 16
RELATIVE_WEIGHT 70
RELATIVE_SETWIDTH 50
SUPERSCRIPT_X 0
SUPERSCRIPT_Y 28
SUPERSCRIPT_SIZE 38
SUBSCRIPT_X 0
SUBSCRIPT_Y 8
SUBSCRIPT_SIZE 38
AVG_LOWERCASE_WIDTH 368
AVG_UPPERCASE_WIDTH 431
ENDPROPERTIES
CHARS 3039
STARTCHAR glyph2362.dup1
ENCODING 0
SWIDTH 0 0
DWIDTH 0 0
BBX 1 1 0 0
BITMAP
00
ENDCHAR
STARTCHAR uni000D
ENCODING 13
SWIDTH 259 0
DWIDTH 16 0
BBX 1 1 0 0
BITMAP
00
ENDCHAR
STARTCHAR space
ENCODING 32
SWIDTH 259 0
DWIDTH 16 0
BBX 1 1 0 0
BITMAP
00
ENDCHAR
STARTCHAR exclam
ENCODING 33
SWIDTH 402 0
DWIDTH 24 0
BBX 10 44 8 -1
BITMAP
FFC0
FFC0
FFC0
FFC0
FFC0
FFC0
FFC0
FFC0
FFC0
7FC0
7FC0
7FC0
7FC0
7FC0
7F80
7F80
7F80
7F80
7F80
7F80
7F80
7F80
7F80
7F80
7F80
7F80
7F80
7F80
3F80
0000
0000
0000
0000
0000
3F00
7F80
FFC0
FFC0
FFC0
FFC0
FFC0
7FC0
7F80
1E00
ENDCHAR
STARTCHAR quotedbl
ENCODING 34
SWIDTH 545 0
DWIDTH 33 0
BBX 20 16 7 28
BITMAP
FF0FF0
FF0FF0
FF0FF0
FE0FF0
FE0FF0
FE0FF0
FE0FF0
FE0FF0
FE07E0
FE07E0
FE07E0
FE07E0
FE07E0
7E07E0
7E07E0
7E07E0
ENDCHAR
STARTCHAR numbersign
ENCODING 35
SWIDTH 665 0
DWIDTH 40 0
BBX 36 38 2 0
BITMAP
000FE0FE00
000FC0FE00
000FC0FC00
000FC0FC00
001FC0FC00
001FC1FC00
001F81FC00
001F81F800
001F81F800
3FFFFFFFF0
3FFFFFFFF0
3FFFFFFFF0
3FFFFFFFF0
3FFFFFFFF0
3FFFFFFFF0
3FFFFFFFF0
007F07F000
007E07E000
007E07E000
007E07E000
00FE0FE000
00FE0FE000
FFFFFFFFC0
FFFFFFFFC0
FFFFFFFFC0
FFFFFFFFC0
FFFFFFFFC0
FFFFFFFFC0
01F81F8000
01F81F8000
03F83F8000
03F83F8000
03F03F8000
03F03F0000
03F03F0000
03F03F0000
07F07F0000
07F07F0000
ENDCHAR
STARTCHAR dollar
ENCODING 36
SWIDTH 571 0
DWIDTH 34 0
BBX 29 49 3 -4
BITMAP
000F0000
000F0000
000F0000
000F0000
007FF800
03FFFF80
0FFFFFF0
1FFFFFF0
3FFFFFE0
7FFFFFE0
FFFFFFE0
FFFF3FC0
FF8F03C0
FF8F0000
FF0F0000
FF8F0000
FF8F0000
FFCF0000
FFFF0000
7FFF0000
7FFF8000
3FFFF000
1FFFFC00
07FFFF00
01FFFF80
007FFFC0
001FFFE0
000FFFF0
000FFFF0
000F3FF8
000F1FF8
000F0FF8
000F0FF8
800F0FF8
F00F1FF8
FF0F7FF0
FFFFFFF0
FFFFFFE0
FFFFFFC0
FFFFFF80
FFFFFF00
3FFFFC00
01FFE000
000F0000
000F0000
000F0000
000F0000
000F0000
000F0000
ENDCHAR
STARTCHAR percent
ENCODING 37
SWIDTH 899 0
DWIDTH 54 0
BBX 50 39 2 -1
BITMAP
01FC0000000000
07FF00007F0000
1FFFC000FE0000
3FFFE000FC0000
3FFFE001FC0000
7FFFF003F80000
7F8FF003F00000
7F07F007F00000
7F07F80FE00000
FF03F80FC00000
FF03F81FC00000
FF03F83F800000
FF03F83F800000
7F07F87F000000
7F07F07E000000
7FCFF0FE000000
7FFFF1FC000000
3FFFE1F81FF000
1FFFE3F87FFC00
0FFFC7F0FFFE00
07FF07F1FFFF00
00FC0FE3FFFF00
00000FC3FFFF80
00001FC3FC7F80
00003F87F83F80
00003F07F83F80
00007F07F03FC0
0000FE07F03FC0
0000FE07F03FC0
0001FC07F03F80
0001F807F83F80
0003F803F83F80
0007F003FFFF80
0007E003FFFF00
000FE001FFFF00
001FC000FFFE00
001FC0007FFC00
003F80003FF800
00000000010000
ENDCHAR
STARTCHAR ampersand
ENCODING 38
SWIDTH 750 0
DWIDTH 45 0
BBX 42 45 2 -1
BITMAP
000FF8000000
007FFF000000
00FFFF800000
01FFFFC00000
03FFFFE00000
07FFFFF00000
07FFFFF00000
0FFC1FF00000
0FF80FF80000
0FF00FF80000
0FF00FF80000
0FF00FF00000
0FF80FF00000
0FF81FF00000
07FC3FE00000
07FC7FE00000
03FFFFC00000
03FFFF800000
01FFFF000000
00FFFE000000
00FFFC000000
03FFF000FF80
07FFF801FF80
0FFFFC01FF80
1FFFFE01FF00
3FFFFF03FF00
3FFBFF83FE00
7FF1FFC3FE00
7FE0FFE7FE00
7FC07FF7FC00
7FC03FFFFC00
FFC01FFFF800
FFC00FFFF800
FFC007FFF000
7FC003FFE000
7FE001FFE000
7FF003FFE000
7FFFFFFFF000
3FFFFFFFF800
3FFFFFFFFC00
1FFFFFFFFE00
0FFFFFF7FF00
03FFFFC3FF80
00FFFF01FFC0
001FF8000000
ENDCHAR
STARTCHAR quotesingle
ENCODING 39
SWIDTH 339 0
DWIDTH 20 0
BBX 8 16 7 28
BITMAP
FF
FF
FF
FE
FE
FE
FE
FE
FE
FE
FE
FE
FE
7E
7E
7E
ENDCHAR
STARTCHAR parenleft
ENCODING 40
SWIDTH 386 0
DWIDTH 23 0
BBX 16 60 4 -10
BITMAP
00FF
00FE
01FE
01FC
03FC
07F8
07F8
0FF0
0FF0
0FE0
1FE0
1FE0
1FC0
3FC0
3FC0
3FC0
7F80
7F80
7F80
7F80
7F80
7F00
FF00
FF00
FF00
FF00
FF00
FF00
FF00
FF00
FF00
FF00
FF00
FF00
FF00
FF00
FF00
FF00
FF00
7F00
7F80
7F80
7F80
7F80
3F80
3FC0
3FC0
3FC0
1FE0
1FE0
0FE0
0FF0
0FF0
07F8
07F8
03FC
03FC
01FE
00FE
00FF
ENDCHAR
STARTCHAR parenright
ENCODING 41
SWIDTH 386 0
DWIDTH 23 0
BBX 16 60 3 -10
BITMAP
FF00
7F00
3F80
3FC0
1FC0
1FE0
0FE0
0FF0
0FF0
07F8
07F8
07F8
03FC
03FC
03FC
01FE
01FE
01FE
01FE
00FE
00FF
00FF
00FF
00FF
00FF
00FF
00FF
00FF
00FF
00FF
00FF
00FF
00FF
00FF
00FF
00FF
00FF
00FF
00FF
00FE
01FE
01FE
01FE
01FE
01FC
03FC
03FC
03FC
07F8
07F8
07F8
0FF0
0FF0
1FE0
1FE0
1FC0
3FC0
7F80
7F00
FF00
ENDCHAR
STARTCHAR asterisk
ENCODING 42
SWIDTH 606 0
DWIDTH 36 0
BBX 29 28 4 17
BITMAP
001FC000
001FC000
001FC000
001FC000
001FC000
001FC000
001FC000
001FC000
600F8030
7C0F81F0
7FCF9FF0
7FFFFFF0
FFFFFFF8
FFFFFFF8
FFFFFFF8
7FFFFFF0
003FE000
007FF000
00FFF800
01FFFC00
01FDFC00
03F9FE00
07F8FF00
0FF0FF80
0FF07F80
07F07F00
01E03C00
00603800
ENDCHAR
STARTCHAR plus
ENCODING 43
SWIDTH 570 0
DWIDTH 34 0
BBX 28 27 3 6
BITMAP
001F8000
001F8000
001F8000
001F8000
001F8000
001F8000
001F8000
001F8000
001F8000
001F8000
FFFFFFF0
FFFFFFF0
FFFFFFF0
FFFFFFF0
FFFFFFF0
FFFFFFF0
FFFFFFF0
001F8000
001F8000
001F8000
001F8000
001F8000
001F8000
001F8000
001F8000
001F8000
001F8000
ENDCHAR
STARTCHAR comma
ENCODING 44
SWIDTH 290 0
DWIDTH 17 0
BBX 11 15 2 -7
BITMAP
1FE0
3FE0
3FE0
3FE0
3FC0
3FC0
3FC0
7F80
7F80
7F80
7F00
7F00
FE00
FE00
FE00
ENDCHAR
STARTCHAR hyphen
ENCODING 45
SWIDTH 365 0
DWIDTH 22 0
BBX 16 8 3 14
BITMAP
FFFF
FFFF
FFFF
FFFF
FFFF
FFFF
FFFF
FFFF
ENDCHAR
STARTCHAR period
ENCODING 46
SWIDTH 285 0
DWIDTH 17 0
BBX 11 10 3 -1
BITMAP
1F00
7FC0
7FC0
7FE0
FFE0
FFE0
7FC0
7FC0
3F80
1F00
ENDCHAR
STARTCHAR slash
ENCODING 47
SWIDTH 471 0
DWIDTH 28 0
BBX 24 60 2 -10
BITMAP
0000FF
0000FF
0000FF
0000FE
0001FE
0001FE
0001FC
0003FC
0003FC
0003FC
0003F8
0007F8
0007F8
0007F8
0007F0
000FF0
000FF0
000FE0
001FE0
001FE0
001FE0
001FC0
003FC0
003FC0
003FC0
003F80
007F80
007F80
007F00
00FF00
00FF00
00FF00
00FE00
01FE00
01FE00
01FC00
01FC00
03FC00
03FC00
03F800
07F800
07F800
07F800
07F000
0FF000
0FF000
0FE000
0FE000
1FE000
1FE000
1FC000
3FC000
3FC000
3FC000
3F8000
7F8000
7F8000
7F0000
FF0000
FF0000
ENDCHAR
STARTCHAR zero
ENCODING 48
SWIDTH 550 0
DWIDTH 33 0
BBX 29 45 2 -1
BITMAP
00020000
007FF000
01FFFC00
03FFFE00
07FFFF00
0FFFFF80
1FFFFFC0
1FFFFFC0
3FF07FE0
3FE03FE0
7FE03FF0
7FC01FF0
7FC01FF0
7FC01FF0
FF800FF8
FF800FF8
FF800FF8
FF800FF8
FF800FF8
FF800FF8
FF800FF8
FF800FF8
FF800FF8
FF800FF8
FF800FF8
FF800FF8
FF800FF8
FF800FF8
FF800FF8
FF800FF8
FF800FF8
7FC01FF0
7FC01FF0
7FC01FF0
7FC03FF0
3FE03FE0
3FF07FE0
1FFFFFE0
1FFFFFC0
0FFFFF80
07FFFF00
03FFFE00
01FFFC00
007FF000
00020000
ENDCHAR
STARTCHAR one
ENCODING 49
SWIDTH 550 0
DWIDTH 33 0
BBX 21 43 3 0
BITMAP
0007F8
000FF8
001FF8
007FF8
00FFF8
01FFF8
03FFF8
0FFFF8
1FFFF8
3FFFF8
7FEFF8
FFCFF8
7F8FF8
3F0FF8
3E0FF8
180FF8
000FF8
000FF8
000FF8
000FF8
000FF8
000FF8
000FF8
000FF8
000FF8
000FF8
000FF8
000FF8
000FF8
000FF8
000FF8
000FF8
000FF8
000FF8
000FF8
000FF8
000FF8
000FF8
000FF8
000FF8
000FF8
000FF8
000FF8
ENDCHAR
STARTCHAR two
ENCODING 50
SWIDTH 550 0
DWIDTH 33 0
BBX 29 43 2 0
BITMAP
007FF000
03FFFE00
0FFFFF00
1FFFFF80
3FFFFFC0
FFFFFFC0
7FFFFFE0
3FF0FFE0
1F803FF0
1F003FF0
0C001FF0
00001FF0
00001FF0
00001FF0
00001FF0
00003FE0
00003FE0
00007FE0
00007FC0
0000FFC0
0001FF80
0003FF00
0003FF00
0007FE00
000FFC00
001FF800
003FF000
007FE000
00FFC000
01FF8000
03FF0000
07FE0000
0FFC0000
1FF80000
3FF00000
3FFFFFF8
7FFFFFF8
FFFFFFF8
FFFFFFF8
FFFFFFF8
FFFFFFF8
FFFFFFF8
FFFFFFF8
ENDCHAR
STARTCHAR three
ENCODING 51
SWIDTH 550 0
DWIDTH 33 0
BBX 29 44 2 -1
BITMAP
03FFF000
0FFFFC00
3FFFFF00
FFFFFF80
FFFFFFC0
7FFFFFC0
3FFFFFE0
1F80FFE0
1C007FE0
08003FE0
00003FE0
00001FE0
00003FE0
00003FE0
00003FC0
00007FC0
0000FF80
0007FF00
03FFFE00
03FFF800
03FFC000
03FFFC00
03FFFF00
03FFFFC0
0007FFE0
00007FE0
00003FF0
00001FF0
00001FF8
00000FF8
00000FF8
00001FF8
00001FF8
00001FF0
C0003FF0
F800FFF0
FFFFFFE0
FFFFFFE0
FFFFFFC0
FFFFFF80
FFFFFF00
FFFFFC00
1FFFF000
003A0000
ENDCHAR
STARTCHAR four
ENCODING 52
SWIDTH 550 0
DWIDTH 33 0
BBX 32 43 0 0
BITMAP
00003FE0
00007FE0
00007FE0
0000FFE0
0001FFE0
0001FFE0
0003FFE0
0007FFE0
0007FFE0
000FFFE0
000FFFE0
001FFFE0
003FBFE0
003FBFE0
007F3FE0
00FF3FE0
00FE3FE0
01FC3FE0
03FC3FE0
03F83FE0
07F03FE0
0FF03FE0
0FE03FE0
1FC03FE0
3FC03FE0
3F803FE0
7F003FE0
FFFFFFFF
FFFFFFFF
FFFFFFFF
FFFFFFFF
FFFFFFFF
FFFFFFFF
FFFFFFFF
00003FE0
00003FE0
00003FE0
00003FE0
00003FE0
00003FE0
00003FE0
00003FE0
00003FE0
ENDCHAR
STARTCHAR five
ENCODING 53
SWIDTH 550 0
DWIDTH 33 0
BBX 28 44 3 -1
BITMAP
3FFFFF80
3FFFFF80
3FFFFF80
3FFFFF80
3FFFFF80
3FFFFF80
7FFFFF80
7FFFFF80
7FC00000
7FC00000
7FC00000
7FC00000
7F800000
7F800000
7F800000
7F800000
7FFFF000
7FFFFC00
7FFFFE00
7FFFFF00
FFFFFF80
FFFFFFC0
7FFFFFC0
1C03FFE0
0000FFE0
00007FE0
00003FE0
00003FE0
00003FF0
00003FF0
00003FE0
00003FE0
00003FE0
00007FE0
C000FFE0
F801FFC0
FFFFFFC0
FFFFFF80
FFFFFF00
FFFFFE00
FFFFFC00
FFFFF800
3FFFC000
00700000
ENDCHAR
STARTCHAR six
ENCODING 54
SWIDTH 550 0
DWIDTH 33 0
BBX 29 44 2 -1
BITMAP
0003FFC0
001FFFC0
007FFFC0
00FFFFC0
01FFFFC0
03FFFFC0
07FFFFC0
0FFF0000
0FF80000
1FF00000
1FE00000
3FC00000
3FC00000
3F800000
7F800000
7F81F000
7F0FFE00
7F3FFF80
7F7FFFC0
FF7FFFE0
FFFFFFE0
FFFFFFF0
FFF87FF0
FFE01FF8
FFC00FF8
FFC00FF8
FF800FF8
FF800FF8
FF800FF8
7F800FF8
7F800FF8
7FC00FF8
7FC00FF8
7FE00FF8
3FE01FF0
3FF03FF0
1FFFFFF0
1FFFFFE0
0FFFFFC0
07FFFFC0
03FFFF80
01FFFE00
007FF800
00030000
ENDCHAR
STARTCHAR seven
ENCODING 55
SWIDTH 550 0
DWIDTH 33 0
BBX 29 43 2 0
BITMAP
FFFFFFF8
FFFFFFF8
FFFFFFF8
FFFFFFF8
FFFFFFF8
FFFFFFF8
FFFFFFF8
FFFFFFF0
00001FF0
00001FF0
00003FE0
00003FE0
00007FC0
00007FC0
0000FFC0
0000FF80
0000FF80
0001FF00
0001FF00
0003FE00
0003FE00
0007FE00
0007FC00
000FFC00
000FF800
000FF800
001FF000
001FF000
003FF000
003FE000
007FE000
007FC000
007FC000
00FFC000
00FF8000
01FF8000
01FF0000
03FF0000
03FE0000
03FE0000
07FE0000
07FC0000
0FFC0000
ENDCHAR
STARTCHAR eight
ENCODING 56
SWIDTH 550 0
DWIDTH 33 0
BBX 29 44 2 -1
BITMAP
007FF000
03FFFE00
07FFFF00
0FFFFF80
1FFFFFC0
3FFFFFE0
3FF8FFE0
3FE03FE0
7FC01FF0
7FC01FF0
7FC01FF0
3FC01FF0
3FC01FE0
3FE03FE0
3FF03FE0
1FF8FFC0
0FFDFF80
0FFFFF00
07FFFE00
01FFFC00
00FFF000
01FFFC00
07FFFE00
0FFFFF80
1FFFFFC0
3FF0FFE0
3FE07FE0
7FC01FF0
7F801FF0
FF800FF8
FF800FF8
FF0007F8
FF800FF8
FF800FF8
FF800FF8
7FC01FF0
7FF07FF0
7FFFFFE0
3FFFFFE0
1FFFFFC0
0FFFFF80
07FFFE00
01FFF800
00070000
ENDCHAR
STARTCHAR nine
ENCODING 57
SWIDTH 550 0
DWIDTH 33 0
BBX 29 44 2 -1
BITMAP
007FE000
03FFF800
07FFFE00
0FFFFF00
1FFFFF80
3FFFFFC0
3FFFFFC0
7FF0FFE0
7FC03FE0
FFC03FF0
FF801FF0
FF801FF0
FF800FF0
FF800FF8
FF800FF8
FF800FF8
FF800FF8
FF801FF8
FF801FF8
FFC03FF8
7FE07FF8
7FFFFFF8
3FFFFFF8
3FFFFFF8
1FFFF7F8
0FFFE7F0
07FFC7F0
00FF07F0
00000FF0
00000FF0
00000FE0
00001FE0
00003FE0
00003FC0
0000FFC0
0003FF80
1EFFFF00
1FFFFF00
1FFFFE00
1FFFFC00
1FFFF000
1FFFE000
1FFF0000
03C00000
ENDCHAR
STARTCHAR colon
ENCODING 58
SWIDTH 323 0
DWIDTH 19 0
BBX 10 34 5 -1
BITMAP
7F00
FF80
FF80
FFC0
FFC0
FFC0
FFC0
FF80
7F00
0800
0000
0000
0000
0000
0000
0000
0000
0000
0000
0000
0000
0000
0000
0000
3F00
7F80
FF80
FFC0
FFC0
FFC0
FFC0
FF80
7F00
1E00
ENDCHAR
STARTCHAR semicolon
ENCODING 59
SWIDTH 323 0
DWIDTH 19 0
BBX 12 40 3 -7
BITMAP
1FC0
3FE0
3FE0
3FF0
3FF0
3FF0
3FF0
3FE0
1FC0
0200
0000
0000
0000
0000
0000
0000
0000
0000
0000
0000
0000
0000
0000
0000
0000
1FF0
1FE0
3FE0
3FE0
3FC0
3FC0
3FC0
3F80
7F80
7F80
7F00
7F00
7F00
FE00
FE00
ENDCHAR
STARTCHAR less
ENCODING 60
SWIDTH 570 0
DWIDTH 34 0
BBX 28 31 3 4
BITMAP
00000030
000000F0
000003F0
00000FF0
00003FF0
0000FFF0
0003FFF0
000FFFC0
003FFF00
00FFFC00
03FFF000
07FFC000
1FFE0000
7FF80000
FFE00000
FF800000
FFE00000
FFFC0000
7FFF0000
1FFFC000
03FFF800
00FFFE00
003FFF80
000FFFE0
0003FFF0
0000FFF0
00001FF0
000007F0
000001F0
00000070
00000010
ENDCHAR
STARTCHAR equal
ENCODING 61
SWIDTH 570 0
DWIDTH 34 0
BBX 28 18 3 10
BITMAP
FFFFFFF0
FFFFFFF0
FFFFFFF0
FFFFFFF0
FFFFFFF0
FFFFFFF0
00000000
00000000
00000000
00000000
00000000
FFFFFFF0
FFFFFFF0
FFFFFFF0
FFFFFFF0
FFFFFFF0
FFFFFFF0
FFFFFFF0
ENDCHAR
STARTCHAR greater
ENCODING 62
SWIDTH 570 0
DWIDTH 34 0
BBX 28 32 3 4
BITMAP
80000000
E0000000
F8000000
FC000000
FF000000
FFC00000
FFF00000
7FFC0000
1FFF0000
07FFC000
01FFF000
007FFC00
001FFF00
0007FFC0
0001FFF0
00007FF0
00001FF0
00007FF0
0001FFF0
000FFFE0
003FFF80
00FFFE00
07FFF000
1FFFC000
7FFF0000
FFFC0000
FFF00000
FFC00000
FE000000
F8000000
E0000000
80000000
ENDCHAR
STARTCHAR question
ENCODING 63
SWIDTH 543 0
DWIDTH 33 0
BBX 25 44 4 -1
BITMAP
03FFC000
1FFFF000
7FFFFC00
FFFFFE00
FFFFFE00
7FFFFF00
7FFFFF00
3F01FF80
3800FF80
0000FF80
0000FF80
0000FF80
0000FF80
0000FF80
0001FF00
0003FF00
0007FE00
000FFC00
001FF800
003FF000
007FE000
00FFC000
01FF8000
01FF0000
01FE0000
01FE0000
01FC0000
01FC0000
01FC0000
00000000
00000000
00000000
00000000
00000000
00FC0000
01FE0000
03FF0000
03FF0000
03FF0000
03FF0000
03FF0000
03FE0000
01FE0000
00780000
ENDCHAR
STARTCHAR at
ENCODING 64
SWIDTH 896 0
DWIDTH 54 0
BBX 48 48 3 -5
BITMAP
00000FFE0000
0000FFFFE000
0003FFFFF800
000FFFFFFE00
003FFFFFFF00
007FFFFFFF80
00FFE000FFC0
01FF80003FE0
03FE00000FF0
07F8000007F8
0FF0000003F8
0FE007FE01FC
1FC03FFFE1FC
1FC07FFFF0FE
3F81FFFFF0FE
3F83FFFFF07E
7F03FF0FF07E
7F07F807F07F
7E0FF007F07F
7E0FE007F07F
FE0FE007F03F
FE1FC007E03F
FE1FC007E07F
FE1FC007E07F
FE1FC007E07F
FE1FC00FE07F
FE1FC00FE07E
FE1FC00FE07E
FE1FC00FE07E
FE0FE01FE0FE
FE0FF03FF0FC
FE0FFCFFFBFC
7F07FFFFFFF8
7F03FFFDFFF0
7F01FFF8FFE0
3F80FFF07FC0
3F803FC03F00
1FC000000000
1FE000000000
0FF800000000
07FC00001C00
03FF8001FC00
01FFFFFFFC00
00FFFFFFFC00
007FFFFFFC00
001FFFFFF800
0003FFFFC000
00003FFC0000
ENDCHAR
STARTCHAR A
ENCODING 65
SWIDTH 689 0
DWIDTH 41 0
BBX 41 43 0 0
BITMAP
0001FFC00000
0003FFC00000
0003FFE00000
0003FFE00000
0007FFF00000
0007FFF00000
0007FFF00000
000FF7F80000
000FF7F80000
000FF7F80000
001FE3FC0000
001FE3FC0000
001FE3FC0000
003FE3FE0000
003FC1FE0000
003FC1FE0000
007FC1FF0000
007F80FF0000
007F80FF0000
00FF80FF8000
00FF007F8000
01FF007F8000
01FF007FC000
01FE003FC000
03FE003FE000
03FFFFFFE000
03FFFFFFE000
07FFFFFFF000
07FFFFFFF000
07FFFFFFF000
0FFFFFFFF800
0FFFFFFFF800
0FFFFFFFF800
1FF80007FC00
1FF00007FC00
1FF00007FC00
3FF00007FE00
3FE00003FE00
3FE00003FE00
7FE00003FF00
7FC00001FF00
7FC00001FF00
FFC00001FF80
ENDCHAR
STARTCHAR B
ENCODING 66
SWIDTH 671 0
DWIDTH 40 0
BBX 32 43 5 0
BITMAP
FFFFF800
FFFFFF80
FFFFFFE0
FFFFFFF0
FFFFFFF8
FFFFFFFC
FFFFFFFC
FF81FFFC
FF800FFE
FF8007FE
FF8007FE
FF8003FE
FF8003FE
FF8007FE
FF8007FC
FF800FFC
FF801FF8
FFFFFFF8
FFFFFFF0
FFFFFFC0
FFFFFF80
FFFFFFE0
FFFFFFF8
FFFFFFFC
FF803FFE
FF800FFE
FF8003FE
FF8003FF
FF8003FF
FF8003FF
FF8003FF
FF8003FF
FF8003FF
FF8007FF
FF800FFE
FFFFFFFE
FFFFFFFC
FFFFFFFC
FFFFFFF8
FFFFFFF0
FFFFFFE0
FFFFFF80
FFFFFC00
ENDCHAR
STARTCHAR C
ENCODING 67
SWIDTH 637 0
DWIDTH 38 0
BBX 33 45 3 -1
BITMAP
0000FF8000
000FFFF800
003FFFFF00
007FFFFF80
01FFFFFF00
03FFFFFF00
07FFFFFF00
07FFFFFE00
0FFF007E00
1FFC000C00
1FF8000000
3FF8000000
3FF0000000
3FF0000000
7FE0000000
7FE0000000
7FC0000000
7FC0000000
7FC0000000
7FC0000000
7FC0000000
FFC0000000
FFC0000000
FFC0000000
FFC0000000
7FC0000000
7FC0000000
7FC0000000
7FC0000000
7FE0000000
7FE0000000
7FE0000000
3FF0000000
3FF0000000
1FF8000000
1FFC000200
1FFF001E00
0FFFFFFE00
07FFFFFE00
03FFFFFE00
01FFFFFE00
00FFFFFE00
007FFFFE00
001FFFFC00
0001FFC000
ENDCHAR
STARTCHAR D
ENCODING 68
SWIDTH 740 0
DWIDTH 44 0
BBX 36 43 5 0
BITMAP
FFFFE00000
FFFFFE0000
FFFFFFC000
FFFFFFE000
FFFFFFF800
FFFFFFFC00
FFFFFFFE00
FF81FFFF00
FF800FFF00
FF8003FF80
FF8001FF80
FF8000FFC0
FF8000FFC0
FF80007FE0
FF80007FE0
FF80007FE0
FF80003FE0
FF80003FE0
FF80003FF0
FF80003FF0
FF80003FF0
FF80003FF0
FF80003FF0
FF80003FF0
FF80003FE0
FF80003FE0
FF80003FE0
FF80007FE0
FF80007FE0
FF80007FC0
FF8000FFC0
FF8001FFC0
FF8003FF80
FF8007FF80
FF801FFF00
FFFFFFFE00
FFFFFFFE00
FFFFFFFC00
FFFFFFF000
FFFFFFE000
FFFFFF8000
FFFFFE0000
FFFFC00000
ENDCHAR
STARTCHAR E
ENCODING 69
SWIDTH 560 0
DWIDTH 34 0
BBX 25 43 5 0
BITMAP
FFFFFF80
FFFFFF80
FFFFFF80
FFFFFF80
FFFFFF80
FFFFFF80
FFFFFF80
FFC00000
FFC00000
FFC00000
FFC00000
FFC00000
FFC00000
FFC00000
FFC00000
FFC00000
FFC00000
FFFFFF00
FFFFFF00
FFFFFF00
FFFFFF00
FFFFFF00
FFFFFF00
FFFFFF00
FFC00000
FFC00000
FFC00000
FFC00000
FFC00000
FFC00000
FFC00000
FFC00000
FFC00000
FFC00000
FFC00000
FFFFFF80
FFFFFF80
FFFFFF80
FFFFFF80
FFFFFF80
FFFFFF80
FFFFFF80
FFFFFF80
ENDCHAR
STARTCHAR F
ENCODING 70
SWIDTH 548 0
DWIDTH 33 0
BBX 25 43 5 0
BITMAP
FFFFFF80
FFFFFF80
FFFFFF80
FFFFFF80
FFFFFF80
FFFFFF80
FFFFFF80
FF800000
FF800000
FF800000
FF800000
FF800000
FF800000
FF800000
FF800000
FF800000
FF800000
FF800000
FF800000
FFFFFF00
FFFFFF00
FFFFFF00
FFFFFF00
FFFFFF00
FFFFFF00
FFFFFF00
FF800000
FF800000
FF800000
FF800000
FF800000
FF800000
FF800000
FF800000
FF800000
FF800000
FF800000
FF800000
FF800000
FF800000
FF800000
FF800000
FF800000
ENDCHAR
STARTCHAR G
ENCODING 71
SWIDTH 724 0
DWIDTH 43 0
BBX 35 45 3 -1
BITMAP
00007FF000
0007FFFF00
001FFFFFE0
007FFFFFE0
00FFFFFFE0
01FFFFFFC0
03FFFFFFC0
07FFFFFF80
0FFFC00780
0FFF000100
1FFC000000
1FF8000000
3FF8000000
3FF0000000
7FE0000000
7FE0000000
7FE0000000
7FC0000000
7FC0000000
7FC0000000
FFC03FFFE0
FFC03FFFE0
FFC03FFFE0
FFC03FFFE0
FFC03FFFE0
7FC03FFFE0
7FC03FFFE0
7FC03FFFE0
7FC0003FE0
7FE0003FE0
7FE0003FE0
3FE0003FE0
3FF0003FE0
3FF8003FE0
1FF8003FE0
1FFC003FE0
0FFF003FE0
0FFFFFFFE0
07FFFFFFE0
03FFFFFFE0
01FFFFFFE0
00FFFFFFE0
003FFFFFE0
000FFFFF00
0001FFE000
ENDCHAR
STARTCHAR H
ENCODING 72
SWIDTH 765 0
DWIDTH 46 0
BBX 36 43 5 0
BITMAP
FF80003FF0
FF80003FF0
FF80003FF0
FF80003FF0
FF80003FF0
FF80003FF0
FF80003FF0
FF80003FF0
FF80003FF0
FF80003FF0
FF80003FF0
FF80003FF0
FF80003FF0
FF80003FF0
FF80003FF0
FF80003FF0
FF80003FF0
FFFFFFFFF0
FFFFFFFFF0
FFFFFFFFF0
FFFFFFFFF0
FFFFFFFFF0
FFFFFFFFF0
FFFFFFFFF0
FFFFFFFFF0
FF80003FF0
FF80003FF0
FF80003FF0
FF80003FF0
FF80003FF0
FF80003FF0
FF80003FF0
FF80003FF0
FF80003FF0
FF80003FF0
FF80003FF0
FF80003FF0
FF80003FF0
FF80003FF0
FF80003FF0
FF80003FF0
FF80003FF0
FF80003FF0
ENDCHAR
STARTCHAR I
ENCODING 73
SWIDTH 389 0
DWIDTH 23 0
BBX 19 43 2 0
BITMAP
FFFFE0
FFFFE0
FFFFE0
FFFFE0
FFFFE0
7FFFE0
1FFF00
07FC00
07FC00
07FC00
07FC00
07FC00
07FC00
07FC00
07FC00
07FC00
07FC00
07FC00
07FC00
07FC00
07FC00
07FC00
07FC00
07FC00
07FC00
07FC00
07FC00
07FC00
07FC00
07FC00
07FC00
07FC00
07FC00
07FC00
07FC00
07FC00
1FFF00
7FFFE0
FFFFE0
FFFFE0
FFFFE0
FFFFE0
FFFFE0
ENDCHAR
STARTCHAR J
ENCODING 74
SWIDTH 331 0
DWIDTH 20 0
BBX 19 55 -4 -12
BITMAP
007FE0
007FE0
007FE0
007FE0
007FE0
007FE0
007FE0
007FE0
007FE0
007FE0
007FE0
007FE0
007FE0
007FE0
007FE0
007FE0
007FE0
007FE0
007FE0
007FE0
007FE0
007FE0
007FE0
007FE0
007FE0
007FE0
007FE0
007FE0
007FE0
007FE0
007FE0
007FE0
007FE0
007FE0
007FE0
007FE0
007FE0
007FE0
007FE0
007FE0
007FC0
007FC0
007FC0
007FC0
007FC0
00FFC0
01FFC0
FFFF80
FFFF80
FFFF00
FFFF00
FFFE00
FFFC00
FFF000
FF8000
ENDCHAR
STARTCHAR K
ENCODING 75
SWIDTH 664 0
DWIDTH 40 0
BBX 35 43 5 0
BITMAP
FF8000FFE0
FF8000FFC0
FF8001FF80
FF8003FF00
FF8007FE00
FF800FFE00
FF800FFC00
FF801FF800
FF803FF000
FF807FE000
FF80FFE000
FF80FFC000
FF81FF8000
FF83FF0000
FF87FE0000
FF8FFE0000
FF8FFC0000
FF9FF80000
FFBFF00000
FFBFF00000
FFFFF80000
FFFFF80000
FFFFFC0000
FFFFFE0000
FFFFFE0000
FFFBFF0000
FFE3FF8000
FFC1FF8000
FF80FFC000
FF80FFC000
FF807FE000
FF807FF000
FF803FF000
FF801FF800
FF801FFC00
FF800FFC00
FF8007FE00
FF8007FF00
FF8003FF00
FF8003FF80
FF8001FF80
FF8000FFC0
FF8000FFE0
ENDCHAR
STARTCHAR L
ENCODING 76
SWIDTH 564 0
DWIDTH 34 0
BBX 27 43 5 0
BITMAP
FF800000
FF800000
FF800000
FF800000
FF800000
FF800000
FF800000
FF800000
FF800000
FF800000
FF800000
FF800000
FF800000
FF800000
FF800000
FF800000
FF800000
FF800000
FF800000
FF800000
FF800000
FF800000
FF800000
FF800000
FF800000
FF800000
FF800000
FF800000
FF800000
FF800000
FF800000
FF800000
FF800000
FF800000
FF800000
FFFFFFE0
FFFFFFE0
FFFFFFE0
FFFFFFE0
FFFFFFE0
FFFFFFE0
FFFFFFE0
FFFFFFE0
ENDCHAR
STARTCHAR M
ENCODING 77
SWIDTH 942 0
DWIDTH 57 0
BBX 47 43 5 0
BITMAP
FFF800003FFE
FFF800003FFE
FFFC00007FFE
FFFC00007FFE
FFFC00007FFE
FFFE0000FFFE
FFFE0000FFFE
FFFE0000FFFE
FFFF0001FFFE
FFFF0001FFFE
FF7F0001FFFE
FF7F0003FBFE
FF7F8003FBFE
FF3F8003FBFE
FF3F8007FBFE
FF3FC007F3FE
FF3FC007F3FE
FF1FC00FF3FE
FF1FE00FE3FE
FF1FE00FE3FE
FF0FE01FE3FE
FF8FF01FC3FE
FF8FF01FC3FE
FF87F03FC3FE
FF87F03F83FE
FF87F83F83FE
FF83F87F83FE
FF83F87F03FE
FF83FC7F03FE
FF81FCFF03FE
FF81FCFE03FE
FF81FEFE03FE
FF81FFFE03FE
FF80FFFC03FE
FF80FFFC03FE
FF80FFFC03FE
FF807FF803FE
FF807FF803FE
FF807FF803FE
FF803FF003FE
FF803FF003FE
FF803FF003FE
FF801FE003FE
ENDCHAR
STARTCHAR N
ENCODING 78
SWIDTH 812 0
DWIDTH 49 0
BBX 39 43 5 0
BITMAP
FFF00003FE
FFF80003FE
FFF80003FE
FFFC0003FE
FFFE0003FE
FFFE0003FE
FFFF0003FE
FFFF0003FE
FFFF8003FE
FFFF8003FE
FFFFC003FE
FF7FE003FE
FF7FE003FE
FF3FF003FE
FF1FF003FE
FF1FF803FE
FF0FFC03FE
FF0FFC03FE
FF07FE03FE
FF07FE03FE
FF03FF03FE
FF81FF03FE
FF81FF83FE
FF80FFC3FE
FF80FFC3FE
FF807FE3FE
FF807FE1FE
FF803FF1FE
FF801FF1FE
FF801FF9FE
FF800FFDFE
FF800FFDFE
FF8007FFFE
FF8007FFFE
FF8003FFFE
FF8001FFFE
FF8001FFFE
FF8000FFFE
FF8000FFFE
FF80007FFE
FF80003FFE
FF80003FFE
FF80001FFE
ENDCHAR
STARTCHAR O
ENCODING 79
SWIDTH 795 0
DWIDTH 48 0
BBX 41 45 3 -1
BITMAP
0000FFC00000
000FFFFC0000
003FFFFF0000
00FFFFFFC000
01FFFFFFE000
03FFFFFFF000
07FFFFFFF800
0FFFFFFFFC00
0FFF003FFC00
1FFE001FFE00
1FFC0007FE00
3FF80007FF00
3FF00003FF00
3FF00003FF00
7FE00001FF80
7FE00001FF80
7FE00001FF80
7FC00000FF80
7FC00000FF80
7FC00000FF80
7FC00000FF80
FFC00000FF80
FFC00000FF80
7FC00000FF80
7FC00000FF80
7FC00000FF80
7FC00000FF80
7FC00000FF80
7FE00001FF80
7FE00001FF80
7FE00001FF80
3FF00003FF00
3FF00003FF00
3FF80007FF00
1FF8000FFE00
1FFE001FFE00
0FFF003FFC00
0FFFFFFFF800
07FFFFFFF800
03FFFFFFF000
01FFFFFFE000
00FFFFFF8000
003FFFFF0000
000FFFFC0000
0000FFE00000
ENDCHAR
STARTCHAR P
ENCODING 80
SWIDTH 627 0
DWIDTH 38 0
BBX 30 43 5 0
BITMAP
FFFFF000
FFFFFE00
FFFFFF80
FFFFFFC0
FFFFFFE0
FFFFFFF0
FFFFFFF8
FFC3FFF8
FFC03FF8
FFC00FFC
FFC00FFC
FFC007FC
FFC007FC
FFC007FC
FFC007FC
FFC007FC
FFC007FC
FFC00FFC
FFC01FFC
FFC03FF8
FFC7FFF8
FFFFFFF0
FFFFFFF0
FFFFFFE0
FFFFFFC0
FFFFFF00
FFFFFC00
FFFFE000
FFC00000
FFC00000
FFC00000
FFC00000
FFC00000
FFC00000
FFC00000
FFC00000
FFC00000
FFC00000
FFC00000
FFC00000
FFC00000
FFC00000
FFC00000
ENDCHAR
STARTCHAR Q
ENCODING 81
SWIDTH 795 0
DWIDTH 48 0
BBX 41 55 3 -11
BITMAP
0000FFC00000
000FFFFC0000
003FFFFF0000
00FFFFFFC000
01FFFFFFE000
03FFFFFFF000
07FFFFFFF800
0FFFFFFFFC00
0FFF003FFC00
1FFE001FFE00
1FFC0007FE00
3FF80007FF00
3FF00003FF00
3FF00003FF00
7FE00001FF80
7FE00001FF80
7FE00001FF80
7FC00000FF80
7FC00000FF80
7FC00000FF80
7FC00000FF80
FFC00000FF80
FFC00000FF80
7FC00000FF80
7FC00000FF80
7FC00000FF80
7FC00000FF80
7FC00000FF80
7FE00001FF80
7FE00001FF80
7FE00001FF80
3FF00003FF00
3FF00003FF00
3FF80007FF00
1FF8000FFE00
1FFE001FFE00
0FFF003FFC00
0FFFFFFFFC00
07FFFFFFF800
03FFFFFFF000
01FFFFFFE000
00FFFFFFC000
003FFFFF0000
000FFFFE0000
0000FFFF0000
000003FF8000
000001FFC000
000000FFE000
000000FFF000
0000007FF000
0000003FF800
0000001FFC00
0000000FFE00
0000000FFF00
00000007FF80
ENDCHAR
STARTCHAR R
ENCODING 82
SWIDTH 660 0
DWIDTH 40 0
BBX 35 43 5 0
BITMAP
FFFFE00000
FFFFFE0000
FFFFFF8000
FFFFFFC000
FFFFFFE000
FFFFFFF000
FFFFFFF800
FFC7FFF800
FFC03FFC00
FFC00FFC00
FFC007FC00
FFC007FC00
FFC007FC00
FFC007FC00
FFC007FC00
FFC007FC00
FFC00FFC00
FFC01FF800
FFC07FF800
FFFFFFF000
FFFFFFE000
FFFFFFC000
FFFFFF8000
FFFFFF0000
FFFFFC0000
FFFFFE0000
FFC3FF0000
FFC1FF8000
FFC0FF8000
FFC0FFC000
FFC07FE000
FFC03FE000
FFC03FF000
FFC01FF800
FFC01FF800
FFC00FFC00
FFC007FE00
FFC007FE00
FFC003FF00
FFC001FF80
FFC001FF80
FFC000FFC0
FFC000FFE0
ENDCHAR
STARTCHAR S
ENCODING 83
SWIDTH 550 0
DWIDTH 33 0
BBX 28 45 3 -1
BITMAP
003FF000
01FFFF00
07FFFFC0
0FFFFFE0
1FFFFFE0
3FFFFFC0
3FFFFFC0
7FFFFFC0
7FE00F80
FFC00180
FF800000
FF800000
FF800000
FF800000
FFC00000
7FE00000
7FF00000
7FFC0000
3FFF0000
3FFFC000
1FFFF000
0FFFF800
07FFFE00
01FFFF00
00FFFF80
003FFFC0
000FFFC0
0003FFE0
0000FFE0
00007FE0
00003FF0
00001FF0
00001FF0
00001FF0
80003FE0
E0003FE0
FC007FE0
FFFFFFE0
FFFFFFC0
FFFFFF80
FFFFFF80
FFFFFF00
FFFFFC00
3FFFF000
03FF8000
ENDCHAR
STARTCHAR T
ENCODING 84
SWIDTH 579 0
DWIDTH 35 0
BBX 33 43 1 0
BITMAP
FFFFFFFF80
FFFFFFFF80
FFFFFFFF80
FFFFFFFF80
FFFFFFFF80
FFFFFFFF80
FFFFFFFF80
FFFFFFFF80
000FF80000
000FF80000
000FF80000
000FF80000
000FF80000
000FF80000
000FF80000
000FF80000
000FF80000
000FF80000
000FF80000
000FF80000
000FF80000
000FF80000
000FF80000
000FF80000
000FF80000
000FF80000
000FF80000
000FF80000
000FF80000
000FF80000
000FF80000
000FF80000
000FF80000
000FF80000
000FF80000
000FF80000
000FF80000
000FF80000
000FF80000
000FF80000
000FF80000
000FF80000
000FF80000
ENDCHAR
STARTCHAR U
ENCODING 85
SWIDTH 755 0
DWIDTH 45 0
BBX 35 44 5 -1
BITMAP
FF80003FE0
FF80003FE0
FF80003FE0
FF80003FE0
FF80003FE0
FF80003FE0
FF80003FE0
FF80003FE0
FF80003FE0
FF80003FE0
FF80003FE0
FF80003FE0
FF80003FE0
FF80003FE0
FF80003FE0
FF80003FE0
FF80003FE0
FF80003FE0
FF80003FE0
FF80003FE0
FF80003FE0
FF80003FE0
FF80003FE0
FF80003FE0
FF80003FE0
FF80003FE0
FF80003FE0
FF80003FE0
FF80003FE0
FF80003FE0
FF80003FE0
FFC0007FE0
7FC0007FC0
7FE000FFC0
7FF001FFC0
3FF803FF80
3FFFFFFF80
1FFFFFFF00
1FFFFFFE00
0FFFFFFE00
07FFFFF800
01FFFFF000
007FFFC000
000FFE0000
ENDCHAR
STARTCHAR V
ENCODING 86
SWIDTH 649 0
DWIDTH 39 0
BBX 39 43 0 0
BITMAP
FF800003FE
7FC00007FE
7FC00007FC
7FC00007FC
3FE0000FF8
3FE0000FF8
3FE0000FF8
1FF0001FF0
1FF0001FF0
1FF0001FF0
0FF0003FE0
0FF8003FE0
0FF8003FE0
07F8003FC0
07FC007FC0
07FC007FC0
03FC007F80
03FE00FF80
03FE00FF80
01FE00FF00
01FF01FF00
01FF01FF00
00FF01FE00
00FF83FE00
00FF83FE00
007F83FC00
007F87FC00
007FC7FC00
003FC7F800
003FC7F800
003FEFF800
001FEFF000
001FEFF000
001FEFF000
000FEFE000
000FFFE000
000FFFE000
0007FFC000
0007FFC000
0007FFC000
0003FF8000
0003FF8000
0003FF8000
ENDCHAR
STARTCHAR W
ENCODING 87
SWIDTH 966 0
DWIDTH 58 0
BBX 58 43 0 0
BITMAP
FF80007F80007FC0
FF8000FFC0007FC0
7FC000FFC000FF80
7FC000FFC000FF80
7FC000FFC000FF80
7FC001FFE000FF80
3FC001FFE000FF00
3FE001FFE001FF00
3FE001FFF001FF00
3FE003FFF001FF00
1FE003FFF001FE00
1FF003FFF003FE00
1FF007FFF803FE00
1FF007F7F803FE00
0FF007F3F803FC00
0FF807F3F807FC00
0FF80FF3FC07FC00
0FF80FF3FC07FC00
07F80FE3FC07F800
07F80FE1FC07F800
07FC1FE1FE0FF800
07FC1FE1FE0FF800
03FC1FE1FE0FF000
03FC1FC0FE0FF000
03FE3FC0FF1FF000
03FE3FC0FF1FF000
01FE3F807F1FE000
01FE3F807F1FE000
01FE7F807F1FE000
01FF7F807FBFE000
00FF7F003FBFC000
00FF7F003FBFC000
00FF7F003FBFC000
007F7F003FBFC000
007FFE001FBF8000
007FFE001FFF8000
007FFE001FFF8000
003FFE001FFF8000
003FFC000FFF0000
003FFC000FFF0000
003FFC000FFF0000
001FFC000FFF0000
001FF80007FE0000
ENDCHAR
STARTCHAR X
ENCODING 88
SWIDTH 666 0
DWIDTH 40 0
BBX 40 43 0 0
BITMAP
7FE00007FE
3FF0000FFC
1FF0000FF8
1FF8001FF8
0FFC001FF0
0FFC003FF0
07FE007FE0
03FE007FC0
03FF00FFC0
01FF80FF80
00FF81FF00
00FFC3FF00
007FC3FE00
003FE7FC00
003FF7FC00
001FFFF800
001FFFF800
000FFFF000
0007FFE000
0007FFE000
0003FFC000
0003FFC000
0007FFC000
000FFFE000
000FFFF000
001FFFF000
001FFFF800
003FEFFC00
007FE7FC00
007FC7FE00
00FF83FF00
01FF81FF00
01FF01FF80
03FF00FFC0
07FE00FFC0
07FC007FE0
0FFC003FF0
1FF8003FF0
1FF0001FF8
3FF0001FFC
3FE0000FFC
7FE00007FE
FFC00007FF
ENDCHAR
STARTCHAR Y
ENCODING 89
SWIDTH 624 0
DWIDTH 37 0
BBX 37 43 0 0
BITMAP
FFC0001FF8
7FC0001FF0
7FE0003FF0
3FE0003FE0
3FF0007FE0
1FF0007FC0
1FF800FFC0
0FF800FF80
0FFC01FF80
07FC01FF00
03FE03FE00
03FE03FE00
01FF07FC00
01FF07FC00
00FF8FF800
00FF8FF800
007FDFF000
007FDFF000
003FFFE000
003FFFE000
001FFFC000
001FFFC000
000FFF8000
000FFF8000
0007FF0000
0007FE0000
0003FE0000
0003FE0000
0003FE0000
0003FE0000
0003FE0000
0003FE0000
0003FE0000
0003FE0000
0003FE0000
0003FE0000
0003FE0000
0003FE0000
0003FE0000
0003FE0000
0003FE0000
0003FE0000
0003FE0000
ENDCHAR
STARTCHAR Z
ENCODING 90
SWIDTH 579 0
DWIDTH 35 0
BBX 33 43 1 0
BITMAP
7FFFFFFF00
7FFFFFFF00
7FFFFFFF00
7FFFFFFF00
7FFFFFFF00
7FFFFFFF00
7FFFFFFF00
7FFFFFFE00
00000FFC00
00000FF800
00001FF800
00003FF000
00003FE000
00007FE000
0000FFC000
0000FF8000
0001FF8000
0003FF0000
0007FE0000
0007FC0000
000FFC0000
001FF80000
001FF00000
003FF00000
007FE00000
007FC00000
00FFC00000
01FF800000
03FF000000
03FF000000
07FE000000
0FFC000000
0FF8000000
1FF8000000
3FF0000000
3FFFFFFF80
7FFFFFFF80
FFFFFFFF80
FFFFFFFF80
FFFFFFFF80
FFFFFFFF80
FFFFFFFF80
FFFFFFFF80
ENDCHAR
STARTCHAR bracketleft
ENCODING 91
SWIDTH 389 0
DWIDTH 23 0
BBX 14 60 6 -10
BITMAP
FFFC
FFFC
FFFC
FFFC
FFFC
FFFC
FF00
FF00
FF00
FF00
FF00
FF00
FF00
FF00
FF00
FF00
FF00
FF00
FF00
FF00
FF00
FF00
FF00
FF00
FF00
FF00
FF00
FF00
FF00
FF00
FF00
FF00
FF00
FF00
FF00
FF00
FF00
FF00
FF00
FF00
FF00
FF00
FF00
FF00
FF00
FF00
FF00
FF00
FF00
FF00
FF00
FF00
FF00
FF00
FFFC
FFFC
FFFC
FFFC
FFFC
FFFC
ENDCHAR
STARTCHAR backslash
ENCODING 92
SWIDTH 471 0
DWIDTH 28 0
BBX 24 60 2 -10
BITMAP
FF0000
7F0000
7F0000
7F8000
7F8000
3F8000
3FC000
3FC000
3FC000
1FC000
1FE000
1FE000
0FE000
0FE000
0FF000
0FF000
07F000
07F800
07F800
07F800
03F800
03FC00
03FC00
01FC00
01FC00
01FE00
01FE00
00FE00
00FF00
00FF00
00FF00
007F00
007F80
007F80
003F80
003F80
003FC0
003FC0
001FC0
001FE0
001FE0
001FE0
000FE0
000FF0
000FF0
0007F0
0007F8
0007F8
0007F8
0003F8
0003FC
0003FC
0003FC
0001FC
0001FE
0001FE
0000FE
0000FF
0000FF
0000FF
ENDCHAR
STARTCHAR bracketright
ENCODING 93
SWIDTH 389 0
DWIDTH 23 0
BBX 14 60 3 -10
BITMAP
FFFC
FFFC
FFFC
FFFC
FFFC
FFFC
03FC
03FC
03FC
03FC
03FC
03FC
03FC
03FC
03FC
03FC
03FC
03FC
03FC
03FC
03FC
03FC
03FC
03FC
03FC
03FC
03FC
03FC
03FC
03FC
03FC
03FC
03FC
03FC
03FC
03FC
03FC
03FC
03FC
03FC
03FC
03FC
03FC
03FC
03FC
03FC
03FC
03FC
03FC
03FC
03FC
03FC
03FC
03FC
FFFC
FFFC
FFFC
FFFC
FFFC
FFFC
ENDCHAR
STARTCHAR asciicircum
ENCODING 94
SWIDTH 570 0
DWIDTH 34 0
BBX 32 28 1 15
BITMAP
0007C000
000FC000
000FE000
001FE000
001FF000
001FF000
003FF800
003FF800
007FFC00
007EFC00
00FEFE00
00FC7E00
01FC7F00
01F83F00
03F83F80
03F81F80
07F01FC0
07F00FE0
07E00FE0
0FE007F0
0FC007F0
1FC003F8
1FC003F8
3F8001FC
3F8001FC
7F0000FE
7F0000FE
FE00007F
ENDCHAR
STARTCHAR underscore
ENCODING 95
SWIDTH 411 0
DWIDTH 25 0
BBX 25 5 0 -10
BITMAP
FFFFFF80
FFFFFF80
FFFFFF80
FFFFFF80
FFFFFF80
ENDCHAR
STARTCHAR grave
ENCODING 96
SWIDTH 606 0
DWIDTH 36 0
BBX 16 10 10 36
BITMAP
FFC0
FFC0
3FE0
1FF0
0FF8
07F8
03FC
01FE
00FF
003F
ENDCHAR
STARTCHAR a
ENCODING 97
SWIDTH 604 0
DWIDTH 36 0
BBX 30 35 2 -1
BITMAP
001FF800
01FFFF00
0FFFFFC0
0FFFFFE0
0FFFFFF0
07FFFFF0
07FFFFF8
03C01FF8
03000FF8
00000FF8
000007FC
000007FC
000007FC
000FFFFC
01FFFFFC
07FFFFFC
0FFFFFFC
1FFFFFFC
3FFF07FC
7FF007FC
7FE007FC
7FC007FC
7FC007FC
FFC00FFC
FFC00FFC
7FC00FFC
7FC01FFC
7FE03FFC
7FFFFFFC
7FFFFBFC
3FFFFBFC
1FFFF3FC
1FFFE1FC
07FF81FC
01FE0000
ENDCHAR
STARTCHAR b
ENCODING 98
SWIDTH 632 0
DWIDTH 38 0
BBX 30 47 5 -1
BITMAP
FF800000
FF800000
FF800000
FF800000
FF800000
FF800000
FF800000
FF800000
FF800000
FF800000
FF800000
FF800000
FF83F800
FF8FFF00
FF1FFF80
FF3FFFC0
FF7FFFE0
FFFFFFF0
FFFFFFF0
FFF87FF8
FFE01FF8
FFC01FF8
FFC00FFC
FF800FFC
FF8007FC
FF8007FC
FF8007FC
FF8007FC
FF8007FC
FF8007FC
FF8007FC
FF8007FC
FF8007FC
FF8007FC
FF8007FC
FF800FFC
FFC00FFC
FFC01FF8
FFE03FF8
FFF87FF8
FFFFFFF0
FFFFFFF0
FFFFFFE0
FF7FFFC0
FE3FFF80
FE0FFF00
0003F800
ENDCHAR
STARTCHAR c
ENCODING 99
SWIDTH 514 0
DWIDTH 31 0
BBX 26 35 3 -1
BITMAP
001FF800
00FFFF00
03FFFFC0
07FFFFC0
0FFFFF80
1FFFFF80
3FFFFF00
3FFC3F00
7FF00300
7FE00000
7FC00000
FFC00000
FF800000
FF800000
FF800000
FF800000
FF800000
FF800000
FF800000
FF800000
FF800000
FF800000
FF800000
FFC00000
FFC00000
7FE00080
7FF00380
7FFC1F80
3FFFFF80
1FFFFF80
1FFFFF80
0FFFFF80
03FFFF80
01FFFE00
003FF800
ENDCHAR
STARTCHAR d
ENCODING 100
SWIDTH 632 0
DWIDTH 38 0
BBX 30 47 3 -1
BITMAP
000007FC
000007FC
000007FC
000007FC
000007FC
000007FC
000007FC
000007FC
000007FC
000007FC
000007FC
000007FC
007F07FC
03FFC3FC
07FFF3FC
0FFFFBFC
1FFFFBFC
3FFFFFFC
3FFFFFFC
7FF87FFC
7FF01FFC
7FE00FFC
FFC007FC
FFC007FC
FF8007FC
FF8003FC
FF8003FC
FF8003FC
FF8003FC
FF8003FC
FF8003FC
FF8003FC
FF8003FC
FF8003FC
FF8003FC
FFC007FC
FFC007FC
7FE00FFC
7FE00FFC
7FF83FFC
3FFFFFFC
3FFFFFFC
1FFFFBFC
0FFFF3FC
07FFE1FC
03FFC1FC
007F0000
ENDCHAR
STARTCHAR e
ENCODING 101
SWIDTH 590 0
DWIDTH 35 0
BBX 30 35 3 -1
BITMAP
001FE000
00FFFC00
03FFFF00
07FFFF80
0FFFFFC0
1FFFFFE0
3FFCFFE0
3FF01FF0
7FE00FF0
7FC00FF8
7FC007F8
FF8007F8
FF8007F8
FF8007F8
FFFFFFFC
FFFFFFFC
FFFFFFFC
FFFFFFFC
FFFFFFFC
FFFFFFFC
FF800000
FF800000
FF800000
FF800000
7FC00000
7FC00000
7FE00030
3FF801F0
3FFFFFF0
1FFFFFF0
0FFFFFF0
07FFFFF0
01FFFFF0
00FFFFC0
000FFC00
ENDCHAR
STARTCHAR f
ENCODING 102
SWIDTH 387 0
DWIDTH 23 0
BBX 25 46 1 0
BITMAP
000FFC00
007FFF80
00FFFF00
01FFFF00
03FFFF00
03FFFE00
03FFFE00
07FF0600
07FE0000
07FC0000
07FC0000
07FC0000
07FC0000
0FFFFC00
3FFFFC00
FFFFFC00
FFFFFC00
FFFFFC00
FFFFFC00
FFFFFC00
07FC0000
07FC0000
07FC0000
07FC0000
07FC0000
07FC0000
07FC0000
07FC0000
07FC0000
07FC0000
07FC0000
07FC0000
07FC0000
07FC0000
07FC0000
07FC0000
07FC0000
07FC0000
07FC0000
07FC0000
07FC0000
07FC0000
07FC0000
07FC0000
07FC0000
07FC0000
ENDCHAR
STARTCHAR g
ENCODING 103
SWIDTH 632 0
DWIDTH 38 0
BBX 30 48 3 -14
BITMAP
007F0000
03FFC1FC
07FFF3FC
0FFFFBFC
1FFFFBFC
3FFFFFFC
3FFFFFFC
7FF87FFC
7FF01FFC
7FE00FFC
FFC007FC
FFC007FC
FF8007FC
FF8003FC
FF8003FC
FF8003FC
FF8003FC
FF8003FC
FF8003FC
FF8003FC
FF8003FC
FF8003FC
FF8003FC
FFC007FC
FFC007FC
7FC007FC
7FE00FFC
7FF83FFC
3FFFFFFC
3FFFFFFC
1FFFFBFC
0FFFF7FC
07FFE7FC
03FFC7FC
007F07FC
000007FC
000007FC
000007FC
00000FFC
20000FF8
3E001FF8
3FFFFFF8
3FFFFFF0
3FFFFFE0
3FFFFFC0
3FFFFF80
1FFFFE00
01FFF000
ENDCHAR
STARTCHAR h
ENCODING 104
SWIDTH 657 0
DWIDTH 39 0
BBX 30 46 5 0
BITMAP
FF800000
FF800000
FF800000
FF800000
FF800000
FF800000
FF800000
FF800000
FF800000
FF800000
FF800000
FF800000
FF03FC00
FF0FFF80
FF1FFFC0
FF3FFFE0
FF7FFFF0
FFFFFFF0
FFFFFFF8
FFF87FF8
FFE01FF8
FFC00FF8
FFC00FFC
FF800FFC
FF8007FC
FF8007FC
FF8007FC
FF8007FC
FF8007FC
FF8007FC
FF8007FC
FF8007FC
FF8007FC
FF8007FC
FF8007FC
FF8007FC
FF8007FC
FF8007FC
FF8007FC
FF8007FC
FF8007FC
FF8007FC
FF8007FC
FF8007FC
FF8007FC
FF8007FC
ENDCHAR
STARTCHAR i
ENCODING 105
SWIDTH 305 0
DWIDTH 18 0
BBX 10 46 4 0
BITMAP
3F00
7F80
7FC0
FFC0
FFC0
FFC0
7FC0
7F80
1E00
0000
0000
0000
0000
7FC0
7FC0
7FC0
7FC0
7FC0
7FC0
7FC0
7FC0
7FC0
7FC0
7FC0
7FC0
7FC0
7FC0
7FC0
7FC0
7FC0
7FC0
7FC0
7FC0
7FC0
7FC0
7FC0
7FC0
7FC0
7FC0
7FC0
7FC0
7FC0
7FC0
7FC0
7FC0
7FC0
ENDCHAR
STARTCHAR j
ENCODING 106
SWIDTH 305 0
DWIDTH 18 0
BBX 18 60 -4 -14
BITMAP
003F00
007F80
007FC0
00FFC0
00FFC0
00FFC0
007FC0
007F80
001E00
000000
000000
000000
000000
007FC0
007FC0
007FC0
007FC0
007FC0
007FC0
007FC0
007FC0
007FC0
007FC0
007FC0
007FC0
007FC0
007FC0
007FC0
007FC0
007FC0
007FC0
007FC0
007FC0
007FC0
007FC0
007FC0
007FC0
007FC0
007FC0
007FC0
007FC0
007FC0
007FC0
007FC0
007FC0
007FC0
007FC0
007FC0
007FC0
00FFC0
00FF80
00FF80
83FF80
FFFF80
FFFF00
FFFF00
FFFE00
FFFC00
FFF800
7FC000
ENDCHAR
STARTCHAR k
ENCODING 107
SWIDTH 620 0
DWIDTH 37 0
BBX 32 46 5 0
BITMAP
FF800000
FF800000
FF800000
FF800000
FF800000
FF800000
FF800000
FF800000
FF800000
FF800000
FF800000
FF800000
FF800000
FF8007FE
FF800FFC
FF801FF8
FF803FF0
FF807FE0
FF80FFC0
FF81FF80
FF83FF00
FF83FF00
FF07FE00
FF0FFC00
FF1FF800
FF3FF000
FF7FE000
FF7FC000
FFFFE000
FFFFF000
FFFFF800
FFFFF800
FFFFFC00
FFE7FE00
FFC3FF00
FF83FF00
FF81FF80
FF80FFC0
FF80FFC0
FF807FE0
FF803FF0
FF801FF8
FF801FF8
FF800FFC
FF8007FE
FF8007FF
ENDCHAR
STARTCHAR l
ENCODING 108
SWIDTH 305 0
DWIDTH 18 0
BBX 9 46 5 0
BITMAP
FF80
FF80
FF80
FF80
FF80
FF80
FF80
FF80
FF80
FF80
FF80
FF80
FF80
FF80
FF80
FF80
FF80
FF80
FF80
FF80
FF80
FF80
FF80
FF80
FF80
FF80
FF80
FF80
FF80
FF80
FF80
FF80
FF80
FF80
FF80
FF80
FF80
FF80
FF80
FF80
FF80
FF80
FF80
FF80
FF80
FF80
ENDCHAR
STARTCHAR m
ENCODING 109
SWIDTH 981 0
DWIDTH 59 0
BBX 50 34 5 0
BITMAP
0003FC003FC000
FE0FFF00FFF800
FE3FFFC1FFFC00
FE7FFFE7FFFE00
FFFFFFF7FFFF00
FFFFFFFFFFFF00
FFFFFFFFFFFF80
FFF87FFF87FF80
FFE01FFF01FF80
FFC01FFE00FF80
FFC00FFC00FF80
FF800FFC00FF80
FF800FF800FFC0
FF800FF800FFC0
FF800FF8007FC0
FF800FF8007FC0
FF800FF8007FC0
FF800FF8007FC0
FF800FF8007FC0
FF800FF8007FC0
FF800FF8007FC0
FF800FF8007FC0
FF800FF8007FC0
FF800FF8007FC0
FF800FF8007FC0
FF800FF8007FC0
FF800FF8007FC0
FF800FF8007FC0
FF800FF8007FC0
FF800FF8007FC0
FF800FF8007FC0
FF800FF8007FC0
FF800FF8007FC0
FF800FF8007FC0
ENDCHAR
STARTCHAR n
ENCODING 110
SWIDTH 657 0
DWIDTH 39 0
BBX 30 34 5 0
BITMAP
0003FC00
FE0FFF80
FE3FFFC0
FE7FFFE0
FFFFFFF0
FFFFFFF0
FFFFFFF8
FFF87FF8
FFE01FF8
FFC00FF8
FFC00FFC
FF800FFC
FF8007FC
FF8007FC
FF8007FC
FF8007FC
FF8007FC
FF0007FC
FF0007FC
FF0007FC
FF0007FC
FF0007FC
FF0007FC
FF0007FC
FF0007FC
FF0007FC
FF0007FC
FF0007FC
FF0007FC
FF0007FC
FF0007FC
FF0007FC
FF0007FC
FF0007FC
ENDCHAR
STARTCHAR o
ENCODING 111
SWIDTH 619 0
DWIDTH 37 0
BBX 31 35 3 -1
BITMAP
001FF000
00FFFE00
03FFFF80
07FFFFC0
0FFFFFE0
1FFFFFF0
3FFFFFF0
3FF83FF8
7FE00FFC
7FE00FFC
7FC007FC
FFC007FE
FF8003FE
FF8003FE
FF8003FE
FF8003FE
FF8003FE
FF8003FE
FF8003FE
FF8003FE
FF8003FE
FF8003FE
FF8003FE
FFC007FE
7FC007FC
7FE00FFC
7FE00FFC
3FF83FF8
1FFFFFF8
1FFFFFF0
0FFFFFE0
07FFFFC0
01FFFF80
00FFFE00
001FF000
ENDCHAR
STARTCHAR p
ENCODING 112
SWIDTH 632 0
DWIDTH 38 0
BBX 30 48 5 -14
BITMAP
0003F800
FE0FFF00
FE1FFF80
FF3FFFC0
FF7FFFE0
FFFFFFF0
FFFFFFF0
FFF87FF8
FFE01FF8
FFC00FF8
FFC00FFC
FF800FFC
FF8007FC
FF8007FC
FF8007FC
FF8007FC
FF8007FC
FF8007FC
FF8007FC
FF8007FC
FF8007FC
FF8007FC
FF8007FC
FF800FFC
FFC00FFC
FFC01FF8
FFE01FF8
FFF87FF8
FFFFFFF0
FFFFFFE0
FFFFFFE0
FF7FFFC0
FF3FFF80
FF0FFE00
FF83F800
FF800000
FF800000
FF800000
FF800000
FF800000
FF800000
FF800000
FF800000
FF800000
FF800000
FF800000
FF800000
FF800000
ENDCHAR
STARTCHAR q
ENCODING 113
SWIDTH 632 0
DWIDTH 38 0
BBX 30 48 3 -14
BITMAP
007F0000
03FFC1FC
07FFF3FC
0FFFFBFC
1FFFFBFC
3FFFFFFC
3FFFFFFC
7FF87FFC
7FF01FFC
7FE00FFC
FFC007FC
FFC007FC
FF8007FC
FF8003FC
FF8003FC
FF8003FC
FF8003FC
FF8003FC
FF8003FC
FF8003FC
FF8003FC
FF8003FC
FF8003FC
FFC007FC
FFC007FC
7FC007FC
7FE00FFC
7FF83FFC
3FFFFFFC
3FFFFFFC
1FFFFBFC
0FFFF3FC
07FFE7FC
03FFC7FC
007F07FC
000007FC
000007FC
000007FC
000007FC
000007FC
000007FC
000007FC
000007FC
000007FC
000007FC
000007FC
000007FC
000007FC
ENDCHAR
STARTCHAR r
ENCODING 114
SWIDTH 454 0
DWIDTH 27 0
BBX 21 34 5 0
BITMAP
0001F8
FE07F8
FE1FF8
FE3FF8
FE7FF0
FF7FF0
FFFFF0
FFFFF0
FFFE10
FFF000
FFE000
FFC000
FF8000
FF8000
FF8000
FF8000
FF8000
FF8000
FF8000
FF8000
FF8000
FF8000
FF8000
FF8000
FF8000
FF8000
FF8000
FF8000
FF8000
FF8000
FF8000
FF8000
FF8000
FF8000
ENDCHAR
STARTCHAR s
ENCODING 115
SWIDTH 497 0
DWIDTH 30 0
BBX 25 35 3 -1
BITMAP
00FFC000
07FFFC00
1FFFFF00
3FFFFF00
7FFFFF00
7FFFFE00
FFFFFE00
FF803C00
FF800C00
FF800000
FF800000
FFC00000
FFF00000
FFFE0000
7FFF8000
3FFFE000
3FFFF800
0FFFFC00
07FFFE00
01FFFF00
003FFF00
000FFF00
0003FF80
0001FF80
0000FF80
0000FF80
C000FF00
F801FF00
FFFFFF00
FFFFFF00
FFFFFE00
FFFFFC00
FFFFF800
7FFFE000
0FFF0000
ENDCHAR
STARTCHAR t
ENCODING 116
SWIDTH 434 0
DWIDTH 26 0
BBX 23 41 1 -1
BITMAP
00FC00
01FC00
01FC00
01FC00
03FC00
03FC00
07FC00
0FFFFE
1FFFFE
7FFFFE
FFFFFE
FFFFFE
FFFFFE
FFFFFE
07FC00
07FC00
07FC00
07FC00
07FC00
07FC00
07FC00
07FC00
07FC00
07FC00
07FC00
07FC00
07FC00
07FC00
07FC00
07FC00
07FC00
07FC00
07FC00
07FF06
07FFFE
07FFFE
03FFFE
01FFFE
01FFFE
007FFE
001FF0
ENDCHAR
STARTCHAR u
ENCODING 117
SWIDTH 657 0
DWIDTH 39 0
BBX 30 34 4 -1
BITMAP
FF8003FC
FF8003FC
FF8003FC
FF8003FC
FF8003FC
FF8003FC
FF8003FC
FF8003FC
FF8003FC
FF8003FC
FF8003FC
FF8003FC
FF8003FC
FF8003FC
FF8003FC
FF8003FC
FF8003FC
FF8007FC
FF8007FC
FF8007FC
FF8007FC
FF8007FC
FFC007FC
7FC00FFC
7FC00FFC
7FE01FFC
7FF87FFC
7FFFFFFC
3FFFFFFC
3FFFFDFC
1FFFF9FC
0FFFF1FC
07FFC1FC
00FF0000
ENDCHAR
STARTCHAR v
ENCODING 118
SWIDTH 568 0
DWIDTH 34 0
BBX 34 33 0 0
BITMAP
FF80007FC0
7FC000FF80
7FC000FF80
7FC000FF80
3FE001FF00
3FE001FF00
3FE001FF00
1FF003FE00
1FF003FE00
0FF003FC00
0FF807FC00
0FF807FC00
07FC07F800
07FC0FF800
07FC0FF800
03FE0FF000
03FE1FF000
01FE1FE000
01FF1FE000
01FF3FE000
00FF3FC000
00FF3FC000
00FF7FC000
007FFF8000
007FFF8000
003FFF0000
003FFF0000
003FFF0000
001FFE0000
001FFE0000
001FFE0000
000FFC0000
000FFC0000
ENDCHAR
STARTCHAR w
ENCODING 119
SWIDTH 855 0
DWIDTH 51 0
BBX 49 33 1 0
BITMAP
FF800FFC007F80
FF801FFC00FF80
FF801FFC00FF80
7F801FFC00FF00
7FC01FFE00FF00
7FC03FFE01FF00
7FC03FFE01FF00
3FC03F7E01FE00
3FE03F7F03FE00
3FE07F7F03FE00
1FE07F7F03FC00
1FE07E3F03FC00
1FF0FE3F07FC00
1FF0FE3F87FC00
0FF0FE3F87F800
0FF0FC1F87F800
0FF8FC1F8FF800
0FF9FC1FCFF000
07F9FC1FCFF000
07F9F81FCFF000
07F9F80FCFF000
03F9F80FDFE000
03FFF80FDFE000
03FFF80FFFE000
03FFF007FFC000
01FFF007FFC000
01FFF007FFC000
01FFF007FFC000
00FFE007FF8000
00FFE003FF8000
00FFE003FF8000
00FFE003FF0000
007FE003FF0000
ENDCHAR
STARTCHAR x
ENCODING 120
SWIDTH 578 0
DWIDTH 35 0
BBX 33 33 1 0
BITMAP
FFC001FF80
7FE003FF00
7FF007FF00
3FF007FE00
1FF80FFC00
1FF80FFC00
0FFC1FF800
07FE3FF000
07FE3FF000
03FF7FE000
01FF7FC000
01FFFFC000
00FFFF8000
007FFF0000
007FFF0000
003FFE0000
003FFE0000
003FFE0000
007FFF0000
00FFFF8000
00FFFF8000
01FFFFC000
03FF7FE000
03FE3FE000
07FE3FF000
0FFC1FF800
0FFC1FF800
1FF80FFC00
3FF007FE00
3FF007FE00
7FE003FF00
FFC001FF80
FFC001FF80
ENDCHAR
STARTCHAR y
ENCODING 121
SWIDTH 568 0
DWIDTH 34 0
BBX 34 47 0 -14
BITMAP
FFC000FFC0
7FC000FF80
7FE000FF80
7FE001FF80
3FE001FF00
3FF001FF00
1FF003FF00
1FF003FE00
1FF803FE00
0FF807FC00
0FF807FC00
07FC07FC00
07FC0FF800
07FC0FF800
03FE0FF800
03FE1FF000
01FE1FF000
01FF1FE000
01FF3FE000
00FF3FE000
00FF3FC000
007FBFC000
007FFFC000
007FFF8000
003FFF8000
003FFF0000
001FFF0000
001FFF0000
001FFE0000
000FFE0000
000FFE0000
0007FC0000
0007FC0000
0007F80000
000FF80000
000FF80000
001FF00000
001FF00000
007FE00000
21FFE00000
3FFFC00000
3FFFC00000
3FFF800000
3FFF000000
3FFE000000
3FF8000000
3FC0000000
ENDCHAR
STARTCHAR z
ENCODING 122
SWIDTH 487 0
DWIDTH 29 0
BBX 25 33 2 0
BITMAP
FFFFFF80
FFFFFF80
FFFFFF80
FFFFFF80
FFFFFF80
FFFFFF80
FFFFFF00
0003FF00
0007FE00
0007FC00
000FF800
001FF800
001FF000
003FE000
007FC000
00FFC000
00FF8000
01FF0000
03FF0000
07FE0000
07FC0000
0FF80000
1FF80000
1FF00000
3FE00000
7FE00000
FFFFFF80
FFFFFF80
FFFFFF80
FFFFFF80
FFFFFF80
FFFFFF80
FFFFFF80
ENDCHAR
STARTCHAR braceleft
ENCODING 123
SWIDTH 425 0
DWIDTH 26 0
BBX 21 60 2 -10
BITMAP
0001F8
000FF8
003FF8
007FF8
007FF8
00FFF8
00FFF8
00FF80
00FF00
00FF00
00FF00
00FF00
00FF00
00FF00
00FF00
00FF00
00FF00
00FF00
00FF00
00FF00
00FF00
00FF00
00FE00
01FE00
01FE00
07FE00
7FFC00
FFFC00
FFF000
FFC000
FFC000
FFF000
FFFC00
FFFC00
07FE00
03FE00
01FE00
00FF00
00FF00
00FF00
00FF00
00FF00
00FF00
00FF00
00FF00
00FF00
00FF00
00FF00
00FF00
00FF00
00FF00
00FF00
00FF80
00FFF8
00FFF8
007FF8
007FF8
003FF8
000FF8
0001F8
ENDCHAR
STARTCHAR bar
ENCODING 124
SWIDTH 539 0
DWIDTH 32 0
BBX 6 60 13 -10
BITMAP
FC
FC
FC
FC
FC
FC
FC
FC
FC
FC
FC
FC
FC
FC
FC
FC
FC
FC
FC
FC
FC
FC
FC
FC
FC
FC
FC
FC
FC
FC
FC
FC
FC
FC
FC
FC
FC
FC
FC
FC
FC
FC
FC
FC
FC
FC
FC
FC
FC
FC
FC
FC
FC
FC
FC
FC
FC
FC
FC
FC
ENDCHAR
STARTCHAR braceright
ENCODING 125
SWIDTH 425 0
DWIDTH 26 0
BBX 20 60 3 -10
BITMAP
F80000
FF8000
FFC000
FFE000
FFF000
FFF000
FFF000
1FF800
0FF800
07F800
07F800
07F800
07F800
07F800
07F800
07F800
07F800
07F800
07F800
07F800
07F800
07F800
07F800
07F800
07FC00
03FE00
03FFF0
01FFF0
00FFF0
003FF0
001FF0
00FFF0
01FFF0
03FFF0
03FE00
07FC00
07F800
07F800
07F800
07F800
07F800
07F800
07F800
07F800
07F800
07F800
07F800
07F800
07F800
07F800
07F800
0FF800
1FF800
FFF800
FFF000
FFF000
FFE000
FFC000
FF8000
FC0000
ENDCHAR
STARTCHAR asciitilde
ENCODING 126
SWIDTH 570 0
DWIDTH 34 0
BBX 28 10 3 14
BITMAP
1FF80010
3FFE0030
FFFFC0F0
FFFFFFF0
FFFFFFF0
FFFFFFF0
F83FFFF0
E007FFE0
8001FF80
00001800
ENDCHAR
STARTCHAR space.dup2
ENCODING 160
SWIDTH 259 0
DWIDTH 16 0
BBX 1 1 0 0
BITMAP
00
ENDCHAR
STARTCHAR exclamdown
ENCODING 161
SWIDTH 286 0
DWIDTH 17 0
BBX 11 44 3 -11
BITMAP
1F00
3F80
7FC0
7FC0
FFE0
FFE0
7FC0
7FC0
3F80
1F00
0000
0000
0000
0000
0000
3F80
3F80
3F80
3F80
3F80
3F80
3F80
7F80
7F80
7F80
7F80
7FC0
7FC0
7FC0
7FC0
7FC0
7FC0
7FC0
7FC0
7FC0
7FC0
7FC0
7FC0
7FC0
7FC0
7FC0
7FC0
FFC0
FFC0
ENDCHAR
STARTCHAR cent
ENCODING 162
SWIDTH 571 0
DWIDTH 34 0
BBX 26 45 4 -1
BITMAP
000FC000
000FC000
000FC000
000FC000
000FC000
001FF800
00FFFF80
03FFFFC0
07FFFFC0
0FFFFF80
1FFFFF80
3FFFFF80
3FFC1F00
7FF00300
7FE00000
7FC00000
7FC00000
FFC00000
FFC00000
FF800000
FF800000
FF800000
FF800000
FF800000
FF800000
FFC00000
FFC00000
7FC00000
7FE00000
7FE00000
7FF00180
3FFC3F80
3FFFFF80
1FFFFF80
0FFFFF80
07FFFF80
03FFFF80
00FFFF00
001FF800
000FC000
000FC000
000FC000
000FC000
000FC000
000FC000
ENDCHAR
STARTCHAR sterling
ENCODING 163
SWIDTH 571 0
DWIDTH 34 0
BBX 31 44 2 0
BITMAP
0003FE00
001FFFE0
003FFFFC
007FFFF8
00FFFFF8
01FFFFF0
01FFFFF0
03FFC7F0
03FF0060
03FE0000
03FE0000
03FC0000
03FC0000
03FC0000
03FC0000
03FC0000
03FC0000
03FC0000
FFFFFF80
FFFFFF80
FFFFFF80
FFFFFF80
FFFFFF80
FFFFFF80
03FC0000
03FC0000
03FC0000
03FC0000
03FC0000
03FC0000
07FC0000
07FC0000
07FC0000
07F80000
0FF00000
1FE00000
7FFFFFFE
FFFFFFFE
FFFFFFFE
FFFFFFFE
FFFFFFFE
FFFFFFFE
FFFFFFFE
FFFFFFFE
ENDCHAR
STARTCHAR currency
ENCODING 164
SWIDTH 571 0
DWIDTH 34 0
BBX 26 27 4 8
BITMAP
10000200
38000700
7C3F0F80
FFFFDFC0
FFFFFFC0
7FFFFF80
3FFFFF00
1FFFFE00
1FE1FE00
3F807F00
3F003F00
3F003F00
7F003F00
7F001F80
7F003F00
3F003F00
3F003F00
3F807F00
1FE1FE00
1FFFFE00
3FFFFF00
7FFFFF80
FFFFFFC0
FFFFFFC0
7C7F0F80
38000700
10000200
ENDCHAR
STARTCHAR yen
ENCODING 165
SWIDTH 571 0
DWIDTH 34 0
BBX 33 43 0 0
BITMAP
FFC000FF80
7FC000FF80
7FC000FF00
3FE001FF00
3FE001FE00
1FF003FE00
1FF003FC00
0FF807FC00
0FF807F800
07F80FF800
07FC0FF000
03FC0FF000
03FE1FE000
01FE1FE000
01FF3FC000
00FF3FC000
00FF7F8000
007FFF8000
007FFF0000
003FFF0000
003FFE0000
001FFE0000
03FFFFF000
03FFFFF000
03FFFFF000
03FFFFF000
03FFFFF000
0007F80000
0007F80000
0007F80000
0007F80000
03FFFFF000
03FFFFF000
03FFFFF000
03FFFFF000
03FFFFF000
0007F80000
0007F80000
0007F80000
0007F80000
0007F80000
0007F80000
0007F80000
ENDCHAR
STARTCHAR brokenbar
ENCODING 166
SWIDTH 550 0
DWIDTH 33 0
BBX 7 60 13 -14
BITMAP
FE
FE
FE
FE
FE
FE
FE
FE
FE
FE
FE
FE
FE
FE
FE
FE
FE
FE
FE
FE
FE
FE
FE
FE
00
00
00
00
00
00
00
00
00
00
00
00
FE
FE
FE
FE
FE
FE
FE
FE
FE
FE
FE
FE
FE
FE
FE
FE
FE
FE
FE
FE
FE
FE
FE
FE
ENDCHAR
STARTCHAR section
ENCODING 167
SWIDTH 485 0
DWIDTH 29 0
BBX 23 47 3 -1
BITMAP
00FF80
07FFF8
0FFFFE
3FFFFE
3FFFFC
7FFFFC
7F0078
7F0018
7F0000
7F0000
7F8000
7FC000
3FF000
3FFC00
1FFF00
0FFFC0
1FFFE0
3FFFF8
3F9FF8
7F07FC
7E01FE
7E00FE
7E00FE
7E00FE
7F00FE
7F80FE
7FC0FE
3FF1FC
1FFFFC
0FFFF8
07FFF0
01FFF0
007FF8
001FFC
0007FE
0001FE
0000FE
0000FE
0000FE
C000FE
F801FE
FFFFFC
FFFFFC
FFFFF8
FFFFF0
3FFFC0
07FE00
ENDCHAR
STARTCHAR dieresis
ENCODING 168
SWIDTH 606 0
DWIDTH 36 0
BBX 20 8 8 37
BITMAP
3C03C0
7E07E0
FF0FF0
FF0FF0
FF0FF0
FF0FF0
7F0FE0
3C03C0
ENDCHAR
STARTCHAR copyright
ENCODING 169
SWIDTH 832 0
DWIDTH 50 0
BBX 44 45 3 -1
BITMAP
00007FE00000
0003FFFC0000
000FFFFF0000
003FE07FC000
007E0007E000
00F80001F000
03E00000FC00
03C000003C00
078000001E00
0F001FE00F00
1E007FFC0780
1C01FFFC0780
3C03FFFC03C0
3803F03801C0
7807E00001E0
700FC00000E0
700F800000E0
F00F800000F0
F01F000000F0
E01F00000070
E01F00000070
E01F00000070
E01F00000070
E01F00000070
E01F00000070
E01F00000070
F01F000000F0
F00F000000F0
700F800000E0
700F800000E0
7807C00001E0
3807F01801C0
3C03FFF803C0
1C01FFF80780
1E007FF80780
0F001FE00F00
078000001E00
07C000003C00
03E000007C00
01F80001F000
007E0007E000
003FE07FC000
000FFFFF0000
0003FFFC0000
00007FE00000
ENDCHAR
STARTCHAR ordfeminine
ENCODING 170
SWIDTH 382 0
DWIDTH 23 0
BBX 19 21 1 23
BITMAP
01FE00
0FFF00
3FFFC0
3FFFC0
1FFFE0
1C07E0
0007E0
0003E0
01FFE0
0FFFE0
3FFFE0
7FFBE0
7E03E0
FE07E0
FC07E0
FE0FE0
7F7FE0
7FFFE0
7FFDE0
3FF9E0
0FE1E0
ENDCHAR
STARTCHAR guillemotleft
ENCODING 171
SWIDTH 615 0
DWIDTH 37 0
BBX 33 27 2 3
BITMAP
0010002000
003C007800
007F00FE00
00FFC1FF80
00FF83FF00
01FF03FE00
03FE07FC00
07FC0FF800
0FFC1FF000
1FF83FF000
1FF07FE000
3FE07FC000
7FC0FF8000
FFC1FF0000
7FC0FF8000
3FE07FC000
1FF07FE000
1FF83FF000
0FFC1FF000
07FC0FF800
03FE07FC00
01FF03FE00
00FF83FF00
00FFC1FF80
007F00FE00
003C007800
0010002000
ENDCHAR
STARTCHAR logicalnot
ENCODING 172
SWIDTH 571 0
DWIDTH 34 0
BBX 28 17 3 7
BITMAP
FFFFFFF0
FFFFFFF0
FFFFFFF0
FFFFFFF0
FFFFFFF0
FFFFFFF0
000003F0
000003F0
000003F0
000003F0
000003F0
000003F0
000003F0
000003F0
000003F0
000003F0
000003F0
ENDCHAR
STARTCHAR uni00AD
ENCODING 173
SWIDTH 321 0
DWIDTH 19 0
BBX 15 7 2 13
BITMAP
FFFE
FFFE
FFFE
FFFE
FFFE
FFFE
FFFE
ENDCHAR
STARTCHAR registered
ENCODING 174
SWIDTH 832 0
DWIDTH 50 0
BBX 44 45 3 -1
BITMAP
00007FE00000
0003FFFC0000
000FFFFF0000
003FE07FC000
007E0007E000
00F80001F000
03E00000FC00
03C000003C00
078000001E00
0F03FFC00F00
1E03FFF00780
1C03FFF80780
3C03FFFC03C0
3803C07C01C0
7803C03E01E0
7003C03E00E0
7003C03E00E0
F003C03E00F0
F003C03E00F0
E003C07E0070
E003C0FC0070
E003FFFC0070
E003FFF80070
E003FFE00070
E003FFE00070
E003C3E00070
F003C1F000F0
F003C0F000F0
7003C0F800E0
7003C07800E0
7803C07C01E0
3803C03E01C0
3C03C03E03C0
1C03C01F0780
1E03C01F0780
0F03C00F8F00
078000001E00
07C000003C00
03E000007C00
01F80001F000
007E0007E000
003FE07FC000
000FFFFF0000
0003FFFC0000
00007FE00000
ENDCHAR
STARTCHAR macron
ENCODING 175
SWIDTH 365 0
DWIDTH 22 0
BBX 16 8 3 14
BITMAP
FFFF
FFFF
FFFF
FFFF
FFFF
FFFF
FFFF
FFFF
ENDCHAR
STARTCHAR degree
ENCODING 176
SWIDTH 428 0
DWIDTH 26 0
BBX 20 20 3 24
BITMAP
01F800
07FE00
1FFF80
3FFFC0
7FFFC0
7FFFE0
FE07F0
FC03F0
FC03F0
F801F0
F801F0
FC03F0
FC03F0
FE07F0
7FFFE0
7FFFE0
3FFFC0
1FFF80
0FFE00
01F800
ENDCHAR
STARTCHAR plusminus
ENCODING 177
SWIDTH 571 0
DWIDTH 34 0
BBX 28 37 3 0
BITMAP
001F8000
001F8000
001F8000
001F8000
001F8000
001F8000
001F8000
001F8000
001F8000
001F8000
001F8000
FFFFFFF0
FFFFFFF0
FFFFFFF0
FFFFFFF0
FFFFFFF0
FFFFFFF0
001F8000
001F8000
001F8000
001F8000
001F8000
001F8000
001F8000
001F8000
001F8000
001F8000
001F8000
001F8000
00000000
00000000
FFFFFFF0
FFFFFFF0
FFFFFFF0
FFFFFFF0
FFFFFFF0
FFFFFFF0
ENDCHAR
STARTCHAR uni00B2
ENCODING 178
SWIDTH 378 0
DWIDTH 23 0
BBX 19 27 2 17
BITMAP
07F800
1FFE00
7FFF00
FFFF80
FFFF80
7FFFC0
3C3FC0
301FC0
001FC0
001FC0
003FC0
003F80
007F80
00FF00
01FE00
03FC00
07F800
0FF000
1FE000
3FC000
7F8000
FFFFE0
FFFFE0
FFFFE0
FFFFE0
FFFFE0
FFFFE0
ENDCHAR
STARTCHAR uni00B3
ENCODING 179
SWIDTH 378 0
DWIDTH 23 0
BBX 18 28 2 16
BITMAP
07F800
1FFE00
7FFF00
FFFF80
7FFF80
7C3FC0
301FC0
001FC0
001F80
001F80
003F00
0FFE00
0FF800
0FFC00
0FFF00
0FFF80
001FC0
000FC0
000FC0
000FC0
000FC0
C01FC0
F83FC0
FFFFC0
FFFF80
FFFF00
7FFE00
0FF000
ENDCHAR
STARTCHAR acute
ENCODING 180
SWIDTH 606 0
DWIDTH 36 0
BBX 16 10 10 36
BITMAP
03FF
07FE
07FC
0FF8
1FF0
1FE0
3FC0
7F80
FE00
FC00
ENDCHAR
STARTCHAR mu
ENCODING 181
SWIDTH 660 0
DWIDTH 40 0
BBX 30 47 5 -14
BITMAP
FF8007FC
FF8007FC
FF8007FC
FF8007FC
FF8007FC
FF8007FC
FF8007FC
FF8007FC
FF8007FC
FF8007FC
FF8007FC
FF8007FC
FF8007FC
FF8007FC
FF8007FC
FF8007FC
FF8007FC
FF8007FC
FF8007FC
FF8007FC
FF8007FC
FF8007FC
FF800FFC
FF800FFC
FFC01FFC
FFC03FFC
FFF0FFFC
FFFFFFFC
FFFFFFFC
FFFFFBFC
FFFFF9FC
FF7FF1FC
FF3FE1FC
FF9F8000
FF800000
FF800000
FF800000
FF800000
FF800000
FF800000
FF800000
FF800000
FF800000
FF800000
FF800000
FF800000
FF800000
ENDCHAR
STARTCHAR paragraph
ENCODING 182
SWIDTH 654 0
DWIDTH 39 0
BBX 31 54 3 -8
BITMAP
007FFFFE
03FFFFFE
07FFFFFE
0FFFFFFE
1FFFFFFE
3FFFFFFE
3FFFF83E
7FFFF83E
7FFFF83E
7FFFF83E
7FFFF83E
FFFFF83E
FFFFF83E
FFFFF83E
FFFFF83E
FFFFF83E
FFFFF83E
FFFFF83E
FFFFF83E
7FFFF83E
7FFFF83E
7FFFF83E
7FFFF83E
3FFFF83E
3FFFF83E
1FFFF83E
1FFFF83E
0FFFF83E
03FFF83E
00FFF83E
0000783E
0000783E
0000783E
0000783E
0000783E
0000783E
0000783E
0000783E
0000783E
0000783E
0000783E
0000783E
0000783E
0000783E
0000783E
0000783E
0000783E
0000783E
0000783E
0000783E
0000783E
0000783E
0000783E
0000783E
ENDCHAR
STARTCHAR periodcentered
ENCODING 183
SWIDTH 285 0
DWIDTH 17 0
BBX 11 10 3 16
BITMAP
1F00
3F80
7FC0
7FC0
FFE0
FFE0
7FC0
7FC0
3F80
1F00
ENDCHAR
STARTCHAR cedilla
ENCODING 184
SWIDTH 205 0
DWIDTH 12 0
BBX 13 14 -1 -14
BITMAP
1F80
1F80
3FC0
3FE0
7FF0
0FF8
03F8
03F8
03F8
FFF8
FFF0
FFF0
FFE0
FF00
ENDCHAR
STARTCHAR uni00B9
ENCODING 185
SWIDTH 378 0
DWIDTH 23 0
BBX 14 26 3 17
BITMAP
00FC
01FC
07FC
0FFC
1FFC
3FFC
7FFC
FFFC
7DFC
39FC
11FC
01FC
01FC
01FC
01FC
01FC
01FC
01FC
01FC
01FC
01FC
01FC
01FC
01FC
01FC
01FC
ENDCHAR
STARTCHAR ordmasculine
ENCODING 186
SWIDTH 388 0
DWIDTH 23 0
BBX 19 21 2 23
BITMAP
03F800
0FFE00
1FFF00
3FFF80
7FFFC0
7E0FC0
FC07E0
FC07E0
FC07E0
FC07E0
FC07E0
FC07E0
FC07E0
FC07E0
FC07E0
7E0FE0
7FFFC0
3FFF80
1FFF00
0FFE00
03F800
ENDCHAR
STARTCHAR guillemotright
ENCODING 187
SWIDTH 615 0
DWIDTH 37 0
BBX 33 27 2 3
BITMAP
0200040000
0F001E0000
3F807F0000
FFC1FF8000
7FE0FF8000
3FE07FC000
1FF03FE000
0FF81FF000
07FC1FF800
07FE0FFC00
03FF07FC00
01FF03FE00
00FF81FF00
007FC1FF80
00FF81FF00
01FF03FE00
03FF07FC00
07FE0FFC00
07FC1FF800
0FF81FF000
1FF03FE000
3FE07FC000
7FE0FF8000
FFC1FF8000
3F807F0000
0F001E0000
0200040000
ENDCHAR
STARTCHAR onequarter
ENCODING 188
SWIDTH 880 0
DWIDTH 53 0
BBX 47 43 2 0
BITMAP
00FC0001FC00
03FC0003FC00
07FC0003F800
0FFC0007F000
1FFC0007F000
7FFC000FE000
FFFC000FE000
FDFC001FC000
79FC001FC000
71FC003F8000
21FC007F8000
01FC007F0000
01FC00FE0000
01FC00FE0000
01FC01FC0000
01FC01FC0000
01FC03F80000
01FC03F80FF0
01FC07F00FF0
01FC0FF01FF0
01FC0FE03FF0
01FC1FC03FF0
01FC1FC07FF0
01FC3F807FF0
01FC3F80F7F0
01FC7F01F7F0
00007F01F7F0
0000FE03E7F0
0001FE07C7F0
0001FC07C7F0
0003F80F87F0
0003F81F07F0
0007F01F07F0
0007F03E07F0
000FE07FFFFE
000FE07FFFFE
001FC07FFFFE
003F807FFFFE
003F807FFFFE
007F000007F0
007F000007F0
00FE000007F0
00FE000007F0
ENDCHAR
STARTCHAR onehalf
ENCODING 189
SWIDTH 880 0
DWIDTH 53 0
BBX 48 43 2 0
BITMAP
00FC0001FC00
03FC0003FC00
07FC0003F800
0FFC0007F000
1FFC0007F000
7FFC000FE000
FFFC000FE000
FDFC001FC000
79FC001FC000
71FC003F8000
21FC007F8000
01FC007F0000
01FC00FE0000
01FC00FE0000
01FC01FC0000
01FC01FC0000
01FC03F81FE0
01FC03F8FFF8
01FC07F1FFFC
01FC0FF7FFFE
01FC0FE3FFFE
01FC1FC1FFFE
01FC1FC1E0FF
01FC3F80C07F
01FC3F80007F
01FC7F0000FF
00007F0000FE
0000FE0001FE
0001FE0001FC
0001FC0003FC
0003F80007F8
0003F8000FF0
0007F0001FE0
0007F0003FC0
000FE0007F80
000FE000FF00
001FC001FE00
003F8003FFFF
003F8007FFFF
007F0007FFFF
007F0007FFFF
00FE0007FFFF
00FE0007FFFF
ENDCHAR
STARTCHAR threequarters
ENCODING 190
SWIDTH 880 0
DWIDTH 53 0
BBX 47 44 3 0
BITMAP
07F800000000
3FFE0000FE00
7FFF0000FE00
FFFF8001FC00
7FFF8003F800
7C3F8003F800
301FC007F000
001FC007F000
001F800FE000
001F800FE000
003F001FC000
0FFE001FC000
0FF8003F8000
0FFC007F0000
0FFF007F0000
0FFF80FE0000
003FC0FE0000
001FC1FC0000
000FC1FC0FF0
000FC3F80FF0
000FC3F81FF0
C01FC7F03FF0
F03FCFE03FF0
FFFFCFE07FF0
FFFF9FC0FFF0
FFFF1FC0F7F0
7FFE3F81F7F0
0FF03F83E7F0
00007F03E7F0
00007F07C7F0
0000FE0FC7F0
0001FC0F87F0
0001FC1F07F0
0003F83F07F0
0003F83E07F0
0007F07FFFFE
0007F07FFFFE
000FE07FFFFE
000FE07FFFFE
001FC07FFFFE
003F800007F0
003F800007F0
007F000007F0
007F000007F0
ENDCHAR
STARTCHAR questiondown
ENCODING 191
SWIDTH 477 0
DWIDTH 29 0
BBX 27 44 2 -11
BITMAP
000F8000
001FE000
003FF000
003FF000
003FF000
003FF000
003FF000
003FF000
001FE000
000F8000
00000000
00000000
00000000
00000000
00000000
001FE000
001FE000
001FE000
001FE000
001FE000
003FC000
00FFC000
01FF8000
03FF8000
07FF0000
1FFC0000
3FF80000
3FF00000
7FC00000
FF800000
FF800000
FF000000
FF000000
FF000000
FF800100
FF800F80
FFE0FF80
7FFFFFC0
7FFFFFC0
3FFFFFE0
1FFFFFE0
0FFFFF80
03FFFC00
007FE000
ENDCHAR
STARTCHAR Agrave
ENCODING 192
SWIDTH 689 0
DWIDTH 41 0
BBX 41 56 0 0
BITMAP
003FF0000000
001FF8000000
000FF8000000
0007FC000000
0003FE000000
0001FF000000
0000FF000000
00007F800000
00001FC00000
00000FE00000
000000000000
000000000000
000000000000
0001FFC00000
0003FFC00000
0003FFE00000
0003FFE00000
0007FFF00000
0007FFF00000
0007FFF00000
000FF7F80000
000FF7F80000
000FF7F80000
001FE3FC0000
001FE3FC0000
001FE3FC0000
003FE3FE0000
003FC1FE0000
003FC1FE0000
007FC1FF0000
007F80FF0000
007F80FF0000
00FF80FF8000
00FF007F8000
01FF007F8000
01FF007FC000
01FE003FC000
03FE003FE000
03FFFFFFE000
03FFFFFFE000
07FFFFFFF000
07FFFFFFF000
07FFFFFFF000
0FFFFFFFF800
0FFFFFFFF800
0FFFFFFFF800
1FF80007FC00
1FF00007FC00
1FF00007FC00
3FF00007FE00
3FE00003FE00
3FE00003FE00
7FE00003FF00
7FC00001FF00
7FC00001FF00
FFC00001FF80
ENDCHAR
STARTCHAR Aacute
ENCODING 193
SWIDTH 689 0
DWIDTH 41 0
BBX 41 56 0 0
BITMAP
000003FF0000
000003FF0000
000007FE0000
00000FF80000
00001FF00000
00001FE00000
00003FC00000
00007F800000
0000FF000000
0000FC000000
000000000000
000000000000
000000000000
0001FFC00000
0003FFC00000
0003FFE00000
0003FFE00000
0007FFF00000
0007FFF00000
0007FFF00000
000FF7F80000
000FF7F80000
000FF7F80000
001FE3FC0000
001FE3FC0000
001FE3FC0000
003FE3FE0000
003FC1FE0000
003FC1FE0000
007FC1FF0000
007F80FF0000
007F80FF0000
00FF80FF8000
00FF007F8000
01FF007F8000
01FF007FC000
01FE003FC000
03FE003FE000
03FFFFFFE000
03FFFFFFE000
07FFFFFFF000
07FFFFFFF000
07FFFFFFF000
0FFFFFFFF800
0FFFFFFFF800
0FFFFFFFF800
1FF80007FC00
1FF00007FC00
1FF00007FC00
3FF00007FE00
3FE00003FE00
3FE00003FE00
7FE00003FF00
7FC00001FF00
7FC00001FF00
FFC00001FF80
ENDCHAR
STARTCHAR Acircumflex
ENCODING 194
SWIDTH 689 0
DWIDTH 41 0
BBX 41 56 0 0
BITMAP
0001FFC00000
0003FFE00000
0003FFE00000
0007FFF00000
000FFFF80000
001FF7FC0000
003FE3FE0000
007F80FE0000
007F007F0000
00FE003F8000
000000000000
000000000000
000000000000
0001FFC00000
0003FFC00000
0003FFE00000
0003FFE00000
0007FFF00000
0007FFF00000
0007FFF00000
000FF7F80000
000FF7F80000
000FF7F80000
001FE3FC0000
001FE3FC0000
001FE3FC0000
003FE3FE0000
003FC1FE0000
003FC1FE0000
007FC1FF0000
007F80FF0000
007F80FF0000
00FF80FF8000
00FF007F8000
01FF007F8000
01FF007FC000
01FE003FC000
03FE003FE000
03FFFFFFE000
03FFFFFFE000
07FFFFFFF000
07FFFFFFF000
07FFFFFFF000
0FFFFFFFF800
0FFFFFFFF800
0FFFFFFFF800
1FF80007FC00
1FF00007FC00
1FF00007FC00
3FF00007FE00
3FE00003FE00
3FE00003FE00
7FE00003FF00
7FC00001FF00
7FC00001FF00
FFC00001FF80
ENDCHAR
STARTCHAR Atilde
ENCODING 195
SWIDTH 689 0
DWIDTH 41 0
BBX 41 55 0 0
BITMAP
0003E00F0000
000FF80F0000
001FFE1F0000
003FFFFF0000
003FFFFE0000
007FFFFE0000
007C3FFC0000
00780FF80000
007803E00000
000000000000
000000000000
000000000000
0001FFC00000
0003FFC00000
0003FFE00000
0003FFE00000
0007FFF00000
0007FFF00000
0007FFF00000
000FF7F80000
000FF7F80000
000FF7F80000
001FE3FC0000
001FE3FC0000
001FE3FC0000
003FE3FE0000
003FC1FE0000
003FC1FE0000
007FC1FF0000
007F80FF0000
007F80FF0000
00FF80FF8000
00FF007F8000
01FF007F8000
01FF007FC000
01FE003FC000
03FE003FE000
03FFFFFFE000
03FFFFFFE000
07FFFFFFF000
07FFFFFFF000
07FFFFFFF000
0FFFFFFFF800
0FFFFFFFF800
0FFFFFFFF800
1FF80007FC00
1FF00007FC00
1FF00007FC00
3FF00007FE00
3FE00003FE00
3FE00003FE00
7FE00003FF00
7FC00001FF00
7FC00001FF00
FFC00001FF80
ENDCHAR
STARTCHAR Adieresis
ENCODING 196
SWIDTH 689 0
DWIDTH 41 0
BBX 41 55 0 0
BITMAP
000780F00000
001FC1FC0000
001FE3FC0000
001FE3FE0000
001FE3FE0000
001FE3FC0000
001FC1FC0000
000F80F80000
000000000000
000000000000
000000000000
000000000000
0001FFC00000
0003FFC00000
0003FFE00000
0003FFE00000
0007FFF00000
0007FFF00000
0007FFF00000
000FF7F80000
000FF7F80000
000FF7F80000
001FE3FC0000
001FE3FC0000
001FE3FC0000
003FE3FE0000
003FC1FE0000
003FC1FE0000
007FC1FF0000
007F80FF0000
007F80FF0000
00FF80FF8000
00FF007F8000
01FF007F8000
01FF007FC000
01FE003FC000
03FE003FE000
03FFFFFFE000
03FFFFFFE000
07FFFFFFF000
07FFFFFFF000
07FFFFFFF000
0FFFFFFFF800
0FFFFFFFF800
0FFFFFFFF800
1FF80007FC00
1FF00007FC00
1FF00007FC00
3FF00007FE00
3FE00003FE00
3FE00003FE00
7FE00003FF00
7FC00001FF00
7FC00001FF00
FFC00001FF80
ENDCHAR
STARTCHAR Aring
ENCODING 197
SWIDTH 689 0
DWIDTH 41 0
BBX 41 53 0 0
BITMAP
00007E000000
0000FF800000
0001FFC00000
0003FFE00000
0003E3E00000
0007C1F00000
0007C1F00000
0007C1F00000
0007C1F00000
0003E3E00000
0003FFE00000
0003FFE00000
0003FFE00000
0003FFE00000
0007FFF00000
0007FFF00000
0007FFF00000
000FF7F80000
000FF7F80000
000FF7F80000
001FE3FC0000
001FE3FC0000
001FE3FC0000
003FE1FE0000
003FC1FE0000
003FC1FE0000
007FC1FF0000
007F80FF0000
007F80FF0000
00FF80FF8000
00FF007F8000
01FF007F8000
01FF007FC000
01FE003FC000
03FE003FE000
03FFFFFFE000
03FFFFFFE000
07FFFFFFF000
07FFFFFFF000
07FFFFFFF000
0FFFFFFFF800
0FFFFFFFF800
0FFFFFFFF800
1FF80007FC00
1FF00007FC00
1FF00007FC00
3FF00007FE00
3FE00003FE00
3FE00003FE00
7FE00003FF00
7FC00001FF00
7FC00001FF00
FFC00001FF80
ENDCHAR
STARTCHAR AE
ENCODING 198
SWIDTH 952 0
DWIDTH 57 0
BBX 53 43 0 0
BITMAP
00001FFFFFFFF8
00003FFFFFFFF8
00003FFFFFFFF8
00003FFFFFFFF8
00007FFFFFFFF8
00007FFFFFFFF8
0000FFFFFFFFF8
0000FFFFF80000
0001FF0FF80000
0001FE0FF80000
0003FE0FF80000
0003FE0FF80000
0003FC0FF80000
0007FC0FF80000
0007F80FF80000
000FF80FF80000
000FF80FF80000
001FF00FFFFFF0
001FF00FFFFFF0
003FE00FFFFFF0
003FE00FFFFFF0
003FC00FFFFFF0
007FC00FFFFFF0
007FC00FFFFFF0
00FF800FF80000
00FFFFFFF80000
01FFFFFFF80000
01FFFFFFF80000
03FFFFFFF80000
03FFFFFFF80000
03FFFFFFF80000
07FFFFFFF80000
07FFFFFFF80000
0FF8000FF80000
0FF8000FF80000
1FF0000FFFFFF8
1FF0000FFFFFF8
3FF0000FFFFFF8
3FE0000FFFFFF8
3FE0000FFFFFF8
7FC0000FFFFFF8
7FC0000FFFFFF8
FF80000FFFFFF8
ENDCHAR
STARTCHAR Ccedilla
ENCODING 199
SWIDTH 637 0
DWIDTH 38 0
BBX 33 58 3 -14
BITMAP
0000FF8000
000FFFF800
003FFFFF00
007FFFFF80
01FFFFFF00
03FFFFFF00
07FFFFFF00
07FFFFFE00
0FFF007E00
1FFC000C00
1FF8000000
3FF8000000
3FF0000000
3FF0000000
7FE0000000
7FE0000000
7FC0000000
7FC0000000
7FC0000000
7FC0000000
7FC0000000
FFC0000000
FFC0000000
FFC0000000
FFC0000000
7FC0000000
7FC0000000
7FC0000000
7FC0000000
7FE0000000
7FE0000000
7FE0000000
3FF0000000
3FF0000000
1FF8000000
1FFC000200
1FFF001E00
0FFFFFFE00
07FFFFFE00
03FFFFFE00
01FFFFFE00
00FFFFFE00
007FFFFE00
001FFFFC00
0001FFC000
0001F80000
0003FC0000
0003FE0000
0007FF0000
0000FF8000
00003F8000
00003F8000
00003F8000
000FFF8000
000FFF0000
000FFF0000
000FFE0000
000FF00000
ENDCHAR
STARTCHAR Egrave
ENCODING 200
SWIDTH 560 0
DWIDTH 34 0
BBX 25 56 5 0
BITMAP
1FFC0000
0FFC0000
07FE0000
03FF0000
00FF0000
007F8000
003FC000
001FE000
000FF000
0003F000
00000000
00000000
00000000
FFFFFF80
FFFFFF80
FFFFFF80
FFFFFF80
FFFFFF80
FFFFFF80
FFFFFF80
FFC00000
FFC00000
FFC00000
FFC00000
FFC00000
FFC00000
FFC00000
FFC00000
FFC00000
FFC00000
FFFFFF00
FFFFFF00
FFFFFF00
FFFFFF00
FFFFFF00
FFFFFF00
FFFFFF00
FFC00000
FFC00000
FFC00000
FFC00000
FFC00000
FFC00000
FFC00000
FFC00000
FFC00000
FFC00000
FFC00000
FFFFFF80
FFFFFF80
FFFFFF80
FFFFFF80
FFFFFF80
FFFFFF80
FFFFFF80
FFFFFF80
ENDCHAR
STARTCHAR Eacute
ENCODING 201
SWIDTH 560 0
DWIDTH 34 0
BBX 25 56 5 0
BITMAP
0001FF80
0003FF00
0007FE00
0007FC00
000FF800
001FF000
003FE000
003F8000
007F0000
00FE0000
00000000
00000000
00000000
FFFFFF80
FFFFFF80
FFFFFF80
FFFFFF80
FFFFFF80
FFFFFF80
FFFFFF80
FFC00000
FFC00000
FFC00000
FFC00000
FFC00000
FFC00000
FFC00000
FFC00000
FFC00000
FFC00000
FFFFFF00
FFFFFF00
FFFFFF00
FFFFFF00
FFFFFF00
FFFFFF00
FFFFFF00
FFC00000
FFC00000
FFC00000
FFC00000
FFC00000
FFC00000
FFC00000
FFC00000
FFC00000
FFC00000
FFC00000
FFFFFF80
FFFFFF80
FFFFFF80
FFFFFF80
FFFFFF80
FFFFFF80
FFFFFF80
FFFFFF80
ENDCHAR
STARTCHAR Ecircumflex
ENCODING 202
SWIDTH 560 0
DWIDTH 34 0
BBX 26 56 5 0
BITMAP
00FFE000
00FFF000
01FFF800
03FFF800
07FFFC00
0FFBFE00
0FF1FF00
1FC07F80
3F803FC0
7F000FC0
00000000
00000000
00000000
FFFFFF80
FFFFFF80
FFFFFF80
FFFFFF80
FFFFFF80
FFFFFF80
FFFFFF80
FFC00000
FFC00000
FFC00000
FFC00000
FFC00000
FFC00000
FFC00000
FFC00000
FFC00000
FFC00000
FFFFFF00
FFFFFF00
FFFFFF00
FFFFFF00
FFFFFF00
FFFFFF00
FFFFFF00
FFC00000
FFC00000
FFC00000
FFC00000
FFC00000
FFC00000
FFC00000
FFC00000
FFC00000
FFC00000
FFC00000
FFFFFF80
FFFFFF80
FFFFFF80
FFFFFF80
FFFFFF80
FFFFFF80
FFFFFF80
FFFFFF80
ENDCHAR
STARTCHAR Edieresis
ENCODING 203
SWIDTH 560 0
DWIDTH 34 0
BBX 25 55 5 0
BITMAP
03C03C00
07E0FE00
0FF0FF00
0FF0FF00
0FF0FF00
0FF0FF00
07E0FE00
03C07C00
00000000
00000000
00000000
00000000
FFFFFF80
FFFFFF80
FFFFFF80
FFFFFF80
FFFFFF80
FFFFFF80
FFFFFF80
FFC00000
FFC00000
FFC00000
FFC00000
FFC00000
FFC00000
FFC00000
FFC00000
FFC00000
FFC00000
FFFFFF00
FFFFFF00
FFFFFF00
FFFFFF00
FFFFFF00
FFFFFF00
FFFFFF00
FFC00000
FFC00000
FFC00000
FFC00000
FFC00000
FFC00000
FFC00000
FFC00000
FFC00000
FFC00000
FFC00000
FFFFFF80
FFFFFF80
FFFFFF80
FFFFFF80
FFFFFF80
FFFFFF80
FFFFFF80
FFFFFF80
ENDCHAR
STARTCHAR Igrave
ENCODING 204
SWIDTH 389 0
DWIDTH 23 0
BBX 20 56 1 0
BITMAP
FFC000
7FE000
3FF000
1FF000
0FF800
07FC00
01FE00
00FE00
007F00
003F80
000000
000000
000000
7FFFF0
7FFFF0
7FFFF0
7FFFF0
7FFFF0
3FFFF0
0FFF80
03FE00
03FE00
03FE00
03FE00
03FE00
03FE00
03FE00
03FE00
03FE00
03FE00
03FE00
03FE00
03FE00
03FE00
03FE00
03FE00
03FE00
03FE00
03FE00
03FE00
03FE00
03FE00
03FE00
03FE00
03FE00
03FE00
03FE00
03FE00
03FE00
0FFF80
3FFFF0
7FFFF0
7FFFF0
7FFFF0
7FFFF0
7FFFF0
ENDCHAR
STARTCHAR Iacute
ENCODING 205
SWIDTH 389 0
DWIDTH 23 0
BBX 22 56 2 0
BITMAP
001FFC
001FF8
003FF0
007FE0
007F80
00FF00
01FE00
03FC00
07F800
07E000
000000
000000
000000
FFFFE0
FFFFE0
FFFFE0
FFFFE0
FFFFE0
7FFFE0
1FFF00
07FC00
07FC00
07FC00
07FC00
07FC00
07FC00
07FC00
07FC00
07FC00
07FC00
07FC00
07FC00
07FC00
07FC00
07FC00
07FC00
07FC00
07FC00
07FC00
07FC00
07FC00
07FC00
07FC00
07FC00
07FC00
07FC00
07FC00
07FC00
07FC00
1FFF00
7FFFE0
FFFFE0
FFFFE0
FFFFE0
FFFFE0
FFFFE0
ENDCHAR
STARTCHAR Icircumflex
ENCODING 206
SWIDTH 389 0
DWIDTH 23 0
BBX 25 56 -1 0
BITMAP
01FFC000
03FFE000
03FFE000
07FFF000
0FFFF800
1FF7FC00
3FC3FE00
7F80FE00
7F007F00
FC003F80
00000000
00000000
00000000
1FFFFC00
1FFFFC00
1FFFFC00
1FFFFC00
1FFFFC00
0FFFFC00
03FFE000
00FF8000
00FF8000
00FF8000
00FF8000
00FF8000
00FF8000
00FF8000
00FF8000
00FF8000
00FF8000
00FF8000
00FF8000
00FF8000
00FF8000
00FF8000
00FF8000
00FF8000
00FF8000
00FF8000
00FF8000
00FF8000
00FF8000
00FF8000
00FF8000
00FF8000
00FF8000
00FF8000
00FF8000
00FF8000
03FFE000
0FFFFC00
1FFFFC00
1FFFFC00
1FFFFC00
1FFFFC00
1FFFFC00
ENDCHAR
STARTCHAR Idieresis
ENCODING 207
SWIDTH 389 0
DWIDTH 23 0
BBX 20 55 2 0
BITMAP
3C0780
FE0FE0
FF1FE0
FF1FE0
FF1FF0
FF1FE0
FE0FE0
7C07C0
000000
000000
000000
000000
FFFFE0
FFFFE0
FFFFE0
FFFFE0
FFFFE0
7FFFE0
1FFF00
07FC00
07FC00
07FC00
07FC00
07FC00
07FC00
07FC00
07FC00
07FC00
07FC00
07FC00
07FC00
07FC00
07FC00
07FC00
07FC00
07FC00
07FC00
07FC00
07FC00
07FC00
07FC00
07FC00
07FC00
07FC00
07FC00
07FC00
07FC00
07FC00
1FFF00
7FFFE0
FFFFE0
FFFFE0
FFFFE0
FFFFE0
FFFFE0
ENDCHAR
STARTCHAR Eth
ENCODING 208
SWIDTH 740 0
DWIDTH 44 0
BBX 40 43 1 0
BITMAP
0FFFFE0000
0FFFFFE000
0FFFFFFC00
0FFFFFFE00
0FFFFFFF80
0FFFFFFFC0
0FFFFFFFE0
0FF81FFFF0
0FF800FFF0
0FF8003FF8
0FF8001FF8
0FF8000FFC
0FF8000FFC
0FF80007FE
0FF80007FE
0FF80007FE
0FF80003FE
0FF80003FE
FFFFF003FF
FFFFF003FF
FFFFF003FF
FFFFF003FF
FFFFF003FF
FFFFF003FF
FFFFF003FE
0FF80003FE
0FF80003FE
0FF80007FE
0FF80007FE
0FF80007FC
0FF8000FFC
0FF8001FFC
0FF8003FF8
0FF8007FF8
0FF801FFF0
0FFFFFFFE0
0FFFFFFFE0
0FFFFFFFC0
0FFFFFFF00
0FFFFFFE00
0FFFFFF800
0FFFFFE000
0FFFFC0000
ENDCHAR
STARTCHAR Ntilde
ENCODING 209
SWIDTH 812 0
DWIDTH 49 0
BBX 39 55 5 0
BITMAP
0007C00F00
001FF81F00
003FFE3F00
003FFFFF00
007FFFFE00
007FFFFE00
007C3FFC00
00F80FF800
00F803E000
0000000000
0000000000
0000000000
FFF00003FE
FFF80003FE
FFF80003FE
FFFC0003FE
FFFE0003FE
FFFE0003FE
FFFF0003FE
FFFF0003FE
FFFF8003FE
FFFF8003FE
FFFFC003FE
FF7FE003FE
FF7FE003FE
FF3FF003FE
FF1FF003FE
FF1FF803FE
FF0FFC03FE
FF0FFC03FE
FF07FE03FE
FF07FE03FE
FF03FF03FE
FF81FF03FE
FF81FF83FE
FF80FFC3FE
FF80FFC3FE
FF807FE3FE
FF807FE1FE
FF803FF1FE
FF801FF1FE
FF801FF9FE
FF800FFDFE
FF800FFDFE
FF8007FFFE
FF8007FFFE
FF8003FFFE
FF8001FFFE
FF8001FFFE
FF8000FFFE
FF8000FFFE
FF80007FFE
FF80003FFE
FF80003FFE
FF80001FFE
ENDCHAR
STARTCHAR Ograve
ENCODING 210
SWIDTH 795 0
DWIDTH 48 0
BBX 41 57 3 -1
BITMAP
001FF8000000
000FFC000000
0007FE000000
0003FE000000
0001FF000000
0000FF800000
00003FC00000
00001FC00000
00000FE00000
000007F00000
000000000000
000000000000
0000FFC00000
000FFFFC0000
003FFFFF0000
00FFFFFFC000
01FFFFFFE000
03FFFFFFF000
07FFFFFFF800
0FFFFFFFFC00
0FFF003FFC00
1FFE001FFE00
1FFC0007FE00
3FF80007FF00
3FF00003FF00
3FF00003FF00
7FE00001FF80
7FE00001FF80
7FE00001FF80
7FC00000FF80
7FC00000FF80
7FC00000FF80
7FC00000FF80
FFC00000FF80
FFC00000FF80
7FC00000FF80
7FC00000FF80
7FC00000FF80
7FC00000FF80
7FC00000FF80
7FE00001FF80
7FE00001FF80
7FE00001FF80
3FF00003FF00
3FF00003FF00
3FF80007FF00
1FF8000FFE00
1FFE001FFE00
0FFF003FFC00
0FFFFFFFF800
07FFFFFFF800
03FFFFFFF000
01FFFFFFE000
00FFFFFF8000
003FFFFF0000
000FFFFC0000
0000FFE00000
ENDCHAR
STARTCHAR Oacute
ENCODING 211
SWIDTH 795 0
DWIDTH 48 0
BBX 41 57 3 -1
BITMAP
000000FFC000
000001FF8000
000003FF0000
000003FE0000
000007FC0000
00000FF80000
00001FE00000
00003FC00000
00003F800000
00007F000000
000000000000
000000000000
0000FFC00000
000FFFFC0000
003FFFFF0000
00FFFFFFC000
01FFFFFFE000
03FFFFFFF000
07FFFFFFF800
0FFFFFFFFC00
0FFF003FFC00
1FFE001FFE00
1FFC0007FE00
3FF80007FF00
3FF00003FF00
3FF00003FF00
7FE00001FF80
7FE00001FF80
7FE00001FF80
7FC00000FF80
7FC00000FF80
7FC00000FF80
7FC00000FF80
FFC00000FF80
FFC00000FF80
7FC00000FF80
7FC00000FF80
7FC00000FF80
7FC00000FF80
7FC00000FF80
7FE00001FF80
7FE00001FF80
7FE00001FF80
3FF00003FF00
3FF00003FF00
3FF80007FF00
1FF8000FFE00
1FFE001FFE00
0FFF003FFC00
0FFFFFFFF800
07FFFFFFF800
03FFFFFFF000
01FFFFFFE000
00FFFFFF8000
003FFFFF0000
000FFFFC0000
0000FFE00000
ENDCHAR
STARTCHAR Ocircumflex
ENCODING 212
SWIDTH 795 0
DWIDTH 48 0
BBX 41 57 3 -1
BITMAP
0000FFE00000
0000FFF00000
0001FFF80000
0003FFF80000
0007FFFC0000
000FFBFE0000
000FF1FF0000
001FE07F8000
003F803FC000
007F000FC000
000000000000
000000000000
0000FFC00000
000FFFFC0000
003FFFFF0000
00FFFFFFC000
01FFFFFFE000
03FFFFFFF000
07FFFFFFF800
0FFFFFFFFC00
0FFF003FFC00
1FFE001FFE00
1FFC0007FE00
3FF80007FF00
3FF00003FF00
3FF00003FF00
7FE00001FF80
7FE00001FF80
7FE00001FF80
7FC00000FF80
7FC00000FF80
7FC00000FF80
7FC00000FF80
FFC00000FF80
FFC00000FF80
7FC00000FF80
7FC00000FF80
7FC00000FF80
7FC00000FF80
7FC00000FF80
7FE00001FF80
7FE00001FF80
7FE00001FF80
3FF00003FF00
3FF00003FF00
3FF80007FF00
1FF8000FFE00
1FFE001FFE00
0FFF003FFC00
0FFFFFFFF800
07FFFFFFF800
03FFFFFFF000
01FFFFFFE000
00FFFFFF8000
003FFFFF0000
000FFFFC0000
0000FFE00000
ENDCHAR
STARTCHAR Otilde
ENCODING 213
SWIDTH 795 0
DWIDTH 48 0
BBX 41 56 3 -1
BITMAP
0001F007C000
0007FC07C000
000FFF0F8000
001FFFFF8000
001FFFFF8000
003FFFFF0000
003E1FFE0000
003E07FC0000
003C01F80000
000000000000
000000000000
0000FFC00000
000FFFFC0000
003FFFFF0000
00FFFFFFC000
01FFFFFFE000
03FFFFFFF000
07FFFFFFF800
0FFFFFFFFC00
0FFF003FFC00
1FFE001FFE00
1FFC0007FE00
3FF80007FF00
3FF00003FF00
3FF00003FF00
7FE00001FF80
7FE00001FF80
7FE00001FF80
7FC00000FF80
7FC00000FF80
7FC00000FF80
7FC00000FF80
FFC00000FF80
FFC00000FF80
7FC00000FF80
7FC00000FF80
7FC00000FF80
7FC00000FF80
7FC00000FF80
7FE00001FF80
7FE00001FF80
7FE00001FF80
3FF00003FF00
3FF00003FF00
3FF80007FF00
1FF8000FFE00
1FFE001FFE00
0FFF003FFC00
0FFFFFFFF800
07FFFFFFF800
03FFFFFFF000
01FFFFFFE000
00FFFFFF8000
003FFFFF0000
000FFFFC0000
0000FFE00000
ENDCHAR
STARTCHAR Odieresis
ENCODING 214
SWIDTH 795 0
DWIDTH 48 0
BBX 41 56 3 -1
BITMAP
0003C0380000
0007E0FE0000
000FF0FE0000
000FF1FF0000
000FF1FF0000
000FF0FF0000
000FE0FE0000
0003C07C0000
000000000000
000000000000
000000000000
0000FFC00000
000FFFFC0000
003FFFFF0000
00FFFFFFC000
01FFFFFFE000
03FFFFFFF000
07FFFFFFF800
0FFFFFFFFC00
0FFF003FFC00
1FFE001FFE00
1FFC0007FE00
3FF80007FF00
3FF00003FF00
3FF00003FF00
7FE00001FF80
7FE00001FF80
7FE00001FF80
7FC00000FF80
7FC00000FF80
7FC00000FF80
7FC00000FF80
FFC00000FF80
FFC00000FF80
7FC00000FF80
7FC00000FF80
7FC00000FF80
7FC00000FF80
7FC00000FF80
7FE00001FF80
7FE00001FF80
7FE00001FF80
3FF00003FF00
3FF00003FF00
3FF80007FF00
1FF8000FFE00
1FFE001FFE00
0FFF003FFC00
0FFFFFFFF800
07FFFFFFF800
03FFFFFFF000
01FFFFFFE000
00FFFFFF8000
003FFFFF0000
000FFFFC0000
0000FFE00000
ENDCHAR
STARTCHAR multiply
ENCODING 215
SWIDTH 570 0
DWIDTH 34 0
BBX 26 26 4 6
BITMAP
18000600
3C000F00
7E001F80
FF003FC0
7FC07FC0
3FE0FF80
3FF1FF00
1FFBFE00
0FFFFC00
07FFF800
03FFF000
01FFE000
00FFC000
00FFC000
01FFE000
03FFF000
07FFF800
0FFFFC00
1FF3FE00
3FE1FF00
7FC0FF80
FF807FC0
7F003F80
3E000F00
1C000600
08000000
ENDCHAR
STARTCHAR Oslash
ENCODING 216
SWIDTH 795 0
DWIDTH 48 0
BBX 41 48 3 -3
BITMAP
000000006000
0000FFC0F800
000FFFFCFC00
003FFFFFFC00
00FFFFFFF800
01FFFFFFF000
03FFFFFFF000
07FFFFFFF800
0FFFFFFFFC00
0FFF003FFC00
1FFE003FFE00
1FFC003FFE00
3FF8007FFF00
3FF000FFFF00
3FF000FFFF00
7FE001FDFF80
7FE003F9FF80
7FE003F9FF80
7FC007F0FF80
7FC00FE0FF80
7FC00FE0FF80
7FC01FC0FF80
FFC03F80FF80
FFC03F80FF80
FFC07F00FF80
7FC0FE00FF80
7FC0FE00FF80
7FC1FC00FF80
7FC3F800FF80
7FE3F801FF80
7FE7F001FF80
7FEFE001FF80
3FFFE003FF00
3FFFC003FF00
3FFFC007FF00
1FFF800FFE00
1FFF001FFE00
0FFF003FFC00
0FFFFFFFF800
07FFFFFFF800
03FFFFFFF000
03FFFFFFE000
07FFFFFF8000
07FFFFFF0000
0FEFFFFC0000
07C1FFE00000
038000000000
008000000000
ENDCHAR
STARTCHAR Ugrave
ENCODING 217
SWIDTH 755 0
DWIDTH 45 0
BBX 35 57 5 -1
BITMAP
03FF000000
01FF800000
00FF800000
007FC00000
003FE00000
001FF00000
000FF00000
0003F80000
0001FC0000
0000FE0000
0000000000
0000000000
0000000000
FF80003FE0
FF80003FE0
FF80003FE0
FF80003FE0
FF80003FE0
FF80003FE0
FF80003FE0
FF80003FE0
FF80003FE0
FF80003FE0
FF80003FE0
FF80003FE0
FF80003FE0
FF80003FE0
FF80003FE0
FF80003FE0
FF80003FE0
FF80003FE0
FF80003FE0
FF80003FE0
FF80003FE0
FF80003FE0
FF80003FE0
FF80003FE0
FF80003FE0
FF80003FE0
FF80003FE0
FF80003FE0
FF80003FE0
FF80003FE0
FF80003FE0
FFC0007FE0
7FC0007FC0
7FE000FFC0
7FF001FFC0
3FF803FF80
3FFFFFFF80
1FFFFFFF00
1FFFFFFE00
0FFFFFFE00
07FFFFF800
01FFFFF000
007FFFC000
000FFE0000
ENDCHAR
STARTCHAR Uacute
ENCODING 218
SWIDTH 755 0
DWIDTH 45 0
BBX 35 57 5 -1
BITMAP
00001FF800
00003FF000
00003FE000
00007FC000
0000FF8000
0001FF0000
0001FE0000
0003FC0000
0007F00000
0007E00000
0000000000
0000000000
0000000000
FF80003FE0
FF80003FE0
FF80003FE0
FF80003FE0
FF80003FE0
FF80003FE0
FF80003FE0
FF80003FE0
FF80003FE0
FF80003FE0
FF80003FE0
FF80003FE0
FF80003FE0
FF80003FE0
FF80003FE0
FF80003FE0
FF80003FE0
FF80003FE0
FF80003FE0
FF80003FE0
FF80003FE0
FF80003FE0
FF80003FE0
FF80003FE0
FF80003FE0
FF80003FE0
FF80003FE0
FF80003FE0
FF80003FE0
FF80003FE0
FF80003FE0
FFC0007FE0
7FC0007FC0
7FE000FFC0
7FF001FFC0
3FF803FF80
3FFFFFFF80
1FFFFFFF00
1FFFFFFE00
0FFFFFFE00
07FFFFF800
01FFFFF000
007FFFC000
000FFE0000
ENDCHAR
STARTCHAR Ucircumflex
ENCODING 219
SWIDTH 755 0
DWIDTH 45 0
BBX 35 57 5 -1
BITMAP
000FFE0000
001FFF0000
001FFF0000
003FFF8000
007FFFC000
00FFBFE000
01FF1FF000
03FC07F000
03F803F800
07F001FC00
0000000000
0000000000
0000000000
FF80003FE0
FF80003FE0
FF80003FE0
FF80003FE0
FF80003FE0
FF80003FE0
FF80003FE0
FF80003FE0
FF80003FE0
FF80003FE0
FF80003FE0
FF80003FE0
FF80003FE0
FF80003FE0
FF80003FE0
FF80003FE0
FF80003FE0
FF80003FE0
FF80003FE0
FF80003FE0
FF80003FE0
FF80003FE0
FF80003FE0
FF80003FE0
FF80003FE0
FF80003FE0
FF80003FE0
FF80003FE0
FF80003FE0
FF80003FE0
FF80003FE0
FFC0007FE0
7FC0007FC0
7FE000FFC0
7FF001FFC0
3FF803FF80
3FFFFFFF80
1FFFFFFF00
1FFFFFFE00
0FFFFFFE00
07FFFFF800
01FFFFF000
007FFFC000
000FFE0000
ENDCHAR
STARTCHAR Udieresis
ENCODING 220
SWIDTH 755 0
DWIDTH 45 0
BBX 35 56 5 -1
BITMAP
003C078000
00FE0FE000
00FF1FE000
00FF1FF000
00FF1FF000
00FF1FE000
00FE0FE000
007C07C000
0000000000
0000000000
0000000000
0000000000
FF80003FE0
FF80003FE0
FF80003FE0
FF80003FE0
FF80003FE0
FF80003FE0
FF80003FE0
FF80003FE0
FF80003FE0
FF80003FE0
FF80003FE0
FF80003FE0
FF80003FE0
FF80003FE0
FF80003FE0
FF80003FE0
FF80003FE0
FF80003FE0
FF80003FE0
FF80003FE0
FF80003FE0
FF80003FE0
FF80003FE0
FF80003FE0
FF80003FE0
FF80003FE0
FF80003FE0
FF80003FE0
FF80003FE0
FF80003FE0
FF80003FE0
FFC0007FE0
7FC0007FC0
7FE000FFC0
7FF001FFC0
3FF803FF80
3FFFFFFF80
1FFFFFFF00
1FFFFFFE00
0FFFFFFE00
07FFFFF800
01FFFFF000
007FFFC000
000FFE0000
ENDCHAR
STARTCHAR Yacute
ENCODING 221
SWIDTH 624 0
DWIDTH 37 0
BBX 37 56 0 0
BITMAP
00000FFC00
00001FF800
00001FF000
00003FE000
00007FC000
0000FF8000
0000FF0000
0001FC0000
0003F80000
0007F00000
0000000000
0000000000
0000000000
FFC0001FF8
7FC0001FF0
7FE0003FF0
3FE0003FE0
3FF0007FE0
1FF0007FC0
1FF800FFC0
0FF800FF80
0FFC01FF80
07FC01FF00
03FE03FE00
03FE03FE00
01FF07FC00
01FF07FC00
00FF8FF800
00FF8FF800
007FDFF000
007FDFF000
003FFFE000
003FFFE000
001FFFC000
001FFFC000
000FFF8000
000FFF8000
0007FF0000
0007FE0000
0003FE0000
0003FE0000
0003FE0000
0003FE0000
0003FE0000
0003FE0000
0003FE0000
0003FE0000
0003FE0000
0003FE0000
0003FE0000
0003FE0000
0003FE0000
0003FE0000
0003FE0000
0003FE0000
0003FE0000
ENDCHAR
STARTCHAR Thorn
ENCODING 222
SWIDTH 627 0
DWIDTH 38 0
BBX 30 43 5 0
BITMAP
FFC00000
FFC00000
FFC00000
FFC00000
FFC00000
FFC00000
FFC00000
FFFFF000
FFFFFE00
FFFFFF80
FFFFFFC0
FFFFFFE0
FFFFFFF0
FFFFFFF8
FFC3FFF8
FFC01FFC
FFC00FFC
FFC00FFC
FFC007FC
FFC007FC
FFC007FC
FFC007FC
FFC007FC
FFC00FFC
FFC00FFC
FFC03FF8
FFC3FFF8
FFFFFFF0
FFFFFFF0
FFFFFFE0
FFFFFFC0
FFFFFF80
FFFFFE00
FFFFE000
FFC00000
FFC00000
FFC00000
FFC00000
FFC00000
FFC00000
FFC00000
FFC00000
FFC00000
ENDCHAR
STARTCHAR germandbls
ENCODING 223
SWIDTH 710 0
DWIDTH 43 0
BBX 36 47 5 -1
BITMAP
001FFC0000
01FFFF8000
07FFFFE000
0FFFFFF800
1FFFFFFC00
3FFFFFFE00
7FFFFFFE00
7FF81FFF00
FFE007FF00
FFC003FF00
FF8001FF00
FF8001FF00
FF8003FE00
FF8003FE00
FF8007FC00
FF800FFC00
FF801FF800
FF807FF000
FF80FFC000
FF81FF8000
FF81FF0000
FF81FE0000
FF83FF0000
FF83FF8000
FF81FFC000
FF81FFF000
FF80FFF800
FF80FFFE00
FF807FFF00
FF801FFF80
FF800FFFC0
FF8003FFE0
FF8000FFE0
FF80007FE0
FF80003FF0
FF80003FF0
FF80001FF0
FF80001FF0
FF84003FF0
FF87003FE0
FF87FBFFE0
FF87FFFFE0
FF87FFFFC0
FF87FFFF80
FF87FFFF00
FF83FFFE00
00007FE000
ENDCHAR
STARTCHAR agrave
ENCODING 224
SWIDTH 604 0
DWIDTH 36 0
BBX 30 47 2 -1
BITMAP
07FE0000
03FF0000
01FF0000
00FF8000
007FC000
003FE000
001FE000
0007F000
0003F800
0001FC00
00000000
00000000
001FF800
01FFFF00
0FFFFFC0
0FFFFFE0
0FFFFFF0
07FFFFF0
07FFFFF8
03C01FF8
03000FF8
00000FF8
000007FC
000007FC
000007FC
000FFFFC
01FFFFFC
07FFFFFC
0FFFFFFC
1FFFFFFC
3FFF07FC
7FF007FC
7FE007FC
7FC007FC
7FC007FC
FFC00FFC
FFC00FFC
7FC00FFC
7FC01FFC
7FE03FFC
7FFFFFFC
7FFFFBFC
3FFFFBFC
1FFFF3FC
1FFFE1FC
07FF81FC
01FE0000
ENDCHAR
STARTCHAR aacute
ENCODING 225
SWIDTH 604 0
DWIDTH 36 0
BBX 30 47 2 -1
BITMAP
00007FF0
00007FE0
0000FFC0
0001FF00
0003FE00
0003FC00
0007F800
000FF000
001FE000
001F8000
00000000
00000000
001FF800
01FFFF00
0FFFFFC0
0FFFFFE0
0FFFFFF0
07FFFFF0
07FFFFF8
03C01FF8
03000FF8
00000FF8
000007FC
000007FC
000007FC
000FFFFC
01FFFFFC
07FFFFFC
0FFFFFFC
1FFFFFFC
3FFF07FC
7FF007FC
7FE007FC
7FC007FC
7FC007FC
FFC00FFC
FFC00FFC
7FC00FFC
7FC01FFC
7FE03FFC
7FFFFFFC
7FFFFBFC
3FFFFBFC
1FFFF3FC
1FFFE1FC
07FF81FC
01FE0000
ENDCHAR
STARTCHAR acircumflex
ENCODING 226
SWIDTH 604 0
DWIDTH 36 0
BBX 30 47 2 -1
BITMAP
003FF800
003FFC00
007FFE00
00FFFE00
01FFFF00
03FEFF80
03FC3FC0
07F01FE0
0FE00FF0
1FC003F0
00000000
00000000
001FF800
01FFFF00
0FFFFFC0
0FFFFFE0
0FFFFFF0
07FFFFF0
07FFFFF8
03C01FF8
03000FF8
00000FF8
000007FC
000007FC
000007FC
000FFFFC
01FFFFFC
07FFFFFC
0FFFFFFC
1FFFFFFC
3FFF07FC
7FF007FC
7FE007FC
7FC007FC
7FC007FC
FFC00FFC
FFC00FFC
7FC00FFC
7FC01FFC
7FE03FFC
7FFFFFFC
7FFFFBFC
3FFFFBFC
1FFFF3FC
1FFFE1FC
07FF81FC
01FE0000
ENDCHAR
STARTCHAR atilde
ENCODING 227
SWIDTH 604 0
DWIDTH 36 0
BBX 30 46 2 -1
BITMAP
007E00F0
00FF81F0
01FFE1F0
03FFFFF0
07FFFFE0
07FFFFE0
07C3FFC0
0F80FF80
0F803E00
00000000
00000000
001FF800
01FFFF00
0FFFFFC0
0FFFFFE0
0FFFFFF0
07FFFFF0
07FFFFF8
03C01FF8
03000FF8
00000FF8
000007FC
000007FC
000007FC
000FFFFC
01FFFFFC
07FFFFFC
0FFFFFFC
1FFFFFFC
3FFF07FC
7FF007FC
7FE007FC
7FC007FC
7FC007FC
FFC00FFC
FFC00FFC
7FC00FFC
7FC01FFC
7FE03FFC
7FFFFFFC
7FFFFBFC
3FFFFBFC
1FFFF3FC
1FFFE1FC
07FF81FC
01FE0000
ENDCHAR
STARTCHAR adieresis
ENCODING 228
SWIDTH 604 0
DWIDTH 36 0
BBX 30 46 2 -1
BITMAP
00F00F00
01FC1F80
03FC3FC0
03FC3FC0
03FC3FC0
03FC3FC0
01FC1F80
00F80F00
00000000
00000000
00000000
001FF800
01FFFF00
0FFFFFC0
0FFFFFE0
0FFFFFF0
07FFFFF0
07FFFFF8
03C01FF8
03000FF8
00000FF8
000007FC
000007FC
000007FC
000FFFFC
01FFFFFC
07FFFFFC
0FFFFFFC
1FFFFFFC
3FFF07FC
7FF007FC
7FE007FC
7FC007FC
7FC007FC
FFC00FFC
FFC00FFC
7FC00FFC
7FC01FFC
7FE03FFC
7FFFFFFC
7FFFFBFC
3FFFFBFC
1FFFF3FC
1FFFE1FC
07FF81FC
01FE0000
ENDCHAR
STARTCHAR aring
ENCODING 229
SWIDTH 604 0
DWIDTH 36 0
BBX 30 51 2 -1
BITMAP
0003F000
000FF800
001FFC00
003FFE00
003E3F00
007C1F00
007C1F00
007C1F00
007C1F00
003E3F00
003FFE00
001FFE00
000FF800
0007F000
00000000
00000000
001FF800
01FFFF00
0FFFFFC0
0FFFFFE0
0FFFFFF0
07FFFFF0
07FFFFF8
03C01FF8
03000FF8
00000FF8
000007FC
000007FC
000007FC
000FFFFC
01FFFFFC
07FFFFFC
0FFFFFFC
1FFFFFFC
3FFF07FC
7FF007FC
7FE007FC
7FC007FC
7FC007FC
FFC00FFC
FFC00FFC
7FC00FFC
7FC01FFC
7FE03FFC
7FFFFFFC
7FFFFBFC
3FFFFBFC
1FFFF3FC
1FFFE1FC
07FF81FC
01FE0000
ENDCHAR
STARTCHAR ae
ENCODING 230
SWIDTH 916 0
DWIDTH 55 0
BBX 49 35 3 -1
BITMAP
003FE001FE0000
03FFFC0FFFC000
1FFFFE1FFFF000
1FFFFFFFFFF800
1FFFFFFFFFFC00
0FFFFFFFFFFE00
0FFFFFFFEFFE00
07803FFE01FF00
04001FFC01FF00
00001FFC00FF80
00001FF800FF80
00001FF8007F80
00001FF8007F80
00001FF0007F80
003FFFFFFFFF80
03FFFFFFFFFF80
0FFFFFFFFFFF80
3FFFFFFFFFFF80
7FFFFFFFFFFF80
7FFE1FFFFFFF80
FFE01FF0000000
FFC01FF0000000
FF801FF8000000
FF801FF8000000
FF801FF8000000
FF803FFC000000
FF803FFE000300
FFC0FFFF001F00
FFFFFFFFFFFF00
FFFFFEFFFFFF00
7FFFFC7FFFFF00
3FFFF83FFFFF00
1FFFE01FFFFF00
0FFFC007FFFC00
03FE0001FFC000
ENDCHAR
STARTCHAR ccedilla
ENCODING 231
SWIDTH 514 0
DWIDTH 31 0
BBX 26 48 3 -14
BITMAP
001FF800
00FFFF00
03FFFFC0
07FFFFC0
0FFFFF80
1FFFFF80
3FFFFF00
3FFC3F00
7FF00300
7FE00000
7FC00000
FFC00000
FF800000
FF800000
FF800000
FF800000
FF800000
FF800000
FF800000
FF800000
FF800000
FF800000
FF800000
FFC00000
FFC00000
7FE00080
7FF00380
7FFC1F80
3FFFFF80
1FFFFF80
1FFFFF80
0FFFFF80
03FFFF80
01FFFE00
003FF800
003F0000
003F8000
007FE000
007FF000
000FF000
0007F000
0007F000
0007F000
01FFF000
01FFF000
01FFE000
01FFC000
00FF0000
ENDCHAR
STARTCHAR egrave
ENCODING 232
SWIDTH 590 0
DWIDTH 35 0
BBX 30 47 3 -1
BITMAP
0FFC0000
07FE0000
03FF0000
01FF0000
00FF8000
007FC000
001FE000
000FE000
0007F000
0003F800
00000000
00000000
001FE000
00FFFC00
03FFFF00
07FFFF80
0FFFFFC0
1FFFFFE0
3FFCFFE0
3FF01FF0
7FE00FF0
7FC00FF8
7FC007F8
FF8007F8
FF8007F8
FF8007F8
FFFFFFFC
FFFFFFFC
FFFFFFFC
FFFFFFFC
FFFFFFFC
FFFFFFFC
FF800000
FF800000
FF800000
FF800000
7FC00000
7FC00000
7FE00030
3FF801F0
3FFFFFF0
1FFFFFF0
0FFFFFF0
07FFFFF0
01FFFFF0
00FFFFC0
000FFC00
ENDCHAR
STARTCHAR eacute
ENCODING 233
SWIDTH 590 0
DWIDTH 35 0
BBX 30 47 3 -1
BITMAP
0000FFE0
0000FFC0
0001FF80
0003FF00
0003FE00
0007F800
000FF000
001FE000
001FC000
003F8000
00000000
00000000
001FE000
00FFFC00
03FFFF00
07FFFF80
0FFFFFC0
1FFFFFE0
3FFCFFE0
3FF01FF0
7FE00FF0
7FC00FF8
7FC007F8
FF8007F8
FF8007F8
FF8007F8
FFFFFFFC
FFFFFFFC
FFFFFFFC
FFFFFFFC
FFFFFFFC
FFFFFFFC
FF800000
FF800000
FF800000
FF800000
7FC00000
7FC00000
7FE00030
3FF801F0
3FFFFFF0
1FFFFFF0
0FFFFFF0
07FFFFF0
01FFFFF0
00FFFFC0
000FFC00
ENDCHAR
STARTCHAR ecircumflex
ENCODING 234
SWIDTH 590 0
DWIDTH 35 0
BBX 30 47 3 -1
BITMAP
003FF800
007FF800
00FFFC00
00FFFE00
01FFFF00
03FCFF00
07F87F80
0FF03FC0
1FE00FE0
1F8007F0
00000000
00000000
001FE000
00FFFC00
03FFFF00
07FFFF80
0FFFFFC0
1FFFFFE0
3FFCFFE0
3FF01FF0
7FE00FF0
7FC00FF8
7FC007F8
FF8007F8
FF8007F8
FF8007F8
FFFFFFFC
FFFFFFFC
FFFFFFFC
FFFFFFFC
FFFFFFFC
FFFFFFFC
FF800000
FF800000
FF800000
FF800000
7FC00000
7FC00000
7FE00030
3FF801F0
3FFFFFF0
1FFFFFF0
0FFFFFF0
07FFFFF0
01FFFFF0
00FFFFC0
000FFC00
ENDCHAR
STARTCHAR edieresis
ENCODING 235
SWIDTH 590 0
DWIDTH 35 0
BBX 30 46 3 -1
BITMAP
00F00E00
03F83F80
03FC3F80
03FC7FC0
03FC7FC0
03FC7F80
03F83F80
01F01F00
00000000
00000000
00000000
001FE000
00FFFC00
03FFFF00
07FFFF80
0FFFFFC0
1FFFFFE0
3FFCFFE0
3FF01FF0
7FE00FF0
7FC00FF8
7FC007F8
FF8007F8
FF8007F8
FF8007F8
FFFFFFFC
FFFFFFFC
FFFFFFFC
FFFFFFFC
FFFFFFFC
FFFFFFFC
FF800000
FF800000
FF800000
FF800000
7FC00000
7FC00000
7FE00030
3FF801F0
3FFFFFF0
1FFFFFF0
0FFFFFF0
07FFFFF0
01FFFFF0
00FFFFC0
000FFC00
ENDCHAR
STARTCHAR igrave
ENCODING 236
SWIDTH 305 0
DWIDTH 18 0
BBX 17 46 -3 0
BITMAP
FFC000
7FE000
3FE000
1FF000
0FF800
07FC00
03FC00
00FE00
007F00
003F80
000000
000000
000000
00FF80
00FF80
00FF80
00FF80
00FF80
00FF80
00FF80
00FF80
00FF80
00FF80
00FF80
00FF80
00FF80
00FF80
00FF80
00FF80
00FF80
00FF80
00FF80
00FF80
00FF80
00FF80
00FF80
00FF80
00FF80
00FF80
00FF80
00FF80
00FF80
00FF80
00FF80
00FF80
00FF80
ENDCHAR
STARTCHAR iacute
ENCODING 237
SWIDTH 305 0
DWIDTH 18 0
BBX 17 46 4 0
BITMAP
01FF80
03FF00
07FE00
07FC00
0FF800
1FF000
3FC000
7F8000
7F0000
FE0000
000000
000000
000000
7FC000
7FC000
7FC000
7FC000
7FC000
7FC000
7FC000
7FC000
7FC000
7FC000
7FC000
7FC000
7FC000
7FC000
7FC000
7FC000
7FC000
7FC000
7FC000
7FC000
7FC000
7FC000
7FC000
7FC000
7FC000
7FC000
7FC000
7FC000
7FC000
7FC000
7FC000
7FC000
7FC000
ENDCHAR
STARTCHAR icircumflex
ENCODING 238
SWIDTH 305 0
DWIDTH 18 0
BBX 26 46 -4 0
BITMAP
01FFC000
01FFE000
03FFF000
07FFF800
07FFF800
0FF3FC00
1FE1FE00
3FC0FF00
7F007F80
FE001FC0
00000000
00000000
00000000
007FC000
007FC000
007FC000
007FC000
007FC000
007FC000
007FC000
007FC000
007FC000
007FC000
007FC000
007FC000
007FC000
007FC000
007FC000
007FC000
007FC000
007FC000
007FC000
007FC000
007FC000
007FC000
007FC000
007FC000
007FC000
007FC000
007FC000
007FC000
007FC000
007FC000
007FC000
007FC000
007FC000
ENDCHAR
STARTCHAR idieresis
ENCODING 239
SWIDTH 305 0
DWIDTH 18 0
BBX 20 45 -1 0
BITMAP
3C03C0
7E0FE0
FF0FF0
FF0FF0
FF0FF0
FF0FF0
7F0FE0
3C03C0
000000
000000
000000
000000
03FE00
03FE00
03FE00
03FE00
03FE00
03FE00
03FE00
03FE00
03FE00
03FE00
03FE00
03FE00
03FE00
03FE00
03FE00
03FE00
03FE00
03FE00
03FE00
03FE00
03FE00
03FE00
03FE00
03FE00
03FE00
03FE00
03FE00
03FE00
03FE00
03FE00
03FE00
03FE00
03FE00
ENDCHAR
STARTCHAR eth
ENCODING 240
SWIDTH 619 0
DWIDTH 37 0
BBX 31 47 3 -1
BITMAP
00300080
003C0380
007E0FC0
00FF9FE0
00FFFFE0
00FFFFC0
003FFF80
001FFE00
001FFE00
003FFF00
00FFFF80
01FF7FC0
00FE7FE0
00F83FE0
00701FF0
00400FF0
00000FF8
003FC7F8
01FFF7FC
07FFFBFC
0FFFFFFC
1FFFFFFC
3FFFFFFE
3FFFFFFE
7FF01FFE
7FE00FFE
FFC007FE
FF8003FE
FF8003FE
FF8003FE
FF8003FE
FF8003FE
FF8003FE
FF8003FE
FF8003FE
FF8003FE
FFC007FC
FFC007FC
7FE00FFC
7FF01FF8
3FFFFFF8
1FFFFFF0
1FFFFFE0
07FFFFC0
03FFFF80
00FFFE00
001FF000
ENDCHAR
STARTCHAR ntilde
ENCODING 241
SWIDTH 657 0
DWIDTH 39 0
BBX 30 45 5 0
BITMAP
00F803C0
03FE03C0
07FF87C0
0FFFFFC0
0FFFFF80
1FFFFF80
1F0FFF00
1E03FE00
1E00F800
00000000
00000000
0003FC00
FE0FFF80
FE3FFFC0
FE7FFFE0
FFFFFFF0
FFFFFFF0
FFFFFFF8
FFF87FF8
FFE01FF8
FFC00FF8
FFC00FFC
FF800FFC
FF8007FC
FF8007FC
FF8007FC
FF8007FC
FF8007FC
FF0007FC
FF0007FC
FF0007FC
FF0007FC
FF0007FC
FF0007FC
FF0007FC
FF0007FC
FF0007FC
FF0007FC
FF0007FC
FF0007FC
FF0007FC
FF0007FC
FF0007FC
FF0007FC
FF0007FC
ENDCHAR
STARTCHAR ograve
ENCODING 242
SWIDTH 619 0
DWIDTH 37 0
BBX 31 47 3 -1
BITMAP
0FFC0000
07FE0000
03FE0000
01FF0000
00FF8000
007FC000
003FC000
001FE000
0007F000
0003F800
00000000
00000000
001FF000
00FFFE00
03FFFF80
07FFFFC0
0FFFFFE0
1FFFFFF0
3FFFFFF0
3FF83FF8
7FE00FFC
7FE00FFC
7FC007FC
FFC007FE
FF8003FE
FF8003FE
FF8003FE
FF8003FE
FF8003FE
FF8003FE
FF8003FE
FF8003FE
FF8003FE
FF8003FE
FF8003FE
FFC007FE
7FC007FC
7FE00FFC
7FE00FFC
3FF83FF8
1FFFFFF8
1FFFFFF0
0FFFFFE0
07FFFFC0
01FFFF80
00FFFE00
001FF000
ENDCHAR
STARTCHAR oacute
ENCODING 243
SWIDTH 619 0
DWIDTH 37 0
BBX 31 47 3 -1
BITMAP
00007FE0
0000FFC0
0000FF80
0001FF00
0003FE00
0007FC00
0007F800
000FF000
001FC000
001F8000
00000000
00000000
001FF000
00FFFE00
03FFFF80
07FFFFC0
0FFFFFE0
1FFFFFF0
3FFFFFF0
3FF83FF8
7FE00FFC
7FE00FFC
7FC007FC
FFC007FE
FF8003FE
FF8003FE
FF8003FE
FF8003FE
FF8003FE
FF8003FE
FF8003FE
FF8003FE
FF8003FE
FF8003FE
FF8003FE
FFC007FE
7FC007FC
7FE00FFC
7FE00FFC
3FF83FF8
1FFFFFF8
1FFFFFF0
0FFFFFE0
07FFFFC0
01FFFF80
00FFFE00
001FF000
ENDCHAR
STARTCHAR ocircumflex
ENCODING 244
SWIDTH 619 0
DWIDTH 37 0
BBX 31 47 3 -1
BITMAP
003FF800
007FF800
00FFFC00
00FFFE00
01FFFF00
03FCFF80
07F87F80
0FF03FC0
1FE00FE0
1F8007F0
00000000
00000000
001FF000
00FFFE00
03FFFF80
07FFFFC0
0FFFFFE0
1FFFFFF0
3FFFFFF0
3FF83FF8
7FE00FFC
7FE00FFC
7FC007FC
FFC007FE
FF8003FE
FF8003FE
FF8003FE
FF8003FE
FF8003FE
FF8003FE
FF8003FE
FF8003FE
FF8003FE
FF8003FE
FF8003FE
FFC007FE
7FC007FC
7FE00FFC
7FE00FFC
3FF83FF8
1FFFFFF8
1FFFFFF0
0FFFFFE0
07FFFFC0
01FFFF80
00FFFE00
001FF000
ENDCHAR
STARTCHAR otilde
ENCODING 245
SWIDTH 619 0
DWIDTH 37 0
BBX 31 46 3 -1
BITMAP
00FC01E0
01FF03E0
03FFC3E0
07FFFFE0
0FFFFFC0
0FFFFFC0
0F87FF80
0F01FF00
1F007C00
00000000
00000000
001FF000
00FFFE00
03FFFF80
07FFFFC0
0FFFFFE0
1FFFFFF0
3FFFFFF0
3FF83FF8
7FE00FFC
7FE00FFC
7FC007FC
FFC007FE
FF8003FE
FF8003FE
FF8003FE
FF8003FE
FF8003FE
FF8003FE
FF8003FE
FF8003FE
FF8003FE
FF8003FE
FF8003FE
FFC007FE
7FC007FC
7FE00FFC
7FE00FFC
3FF83FF8
1FFFFFF8
1FFFFFF0
0FFFFFE0
07FFFFC0
01FFFF80
00FFFE00
001FF000
ENDCHAR
STARTCHAR odieresis
ENCODING 246
SWIDTH 619 0
DWIDTH 37 0
BBX 31 46 3 -1
BITMAP
00E01E00
03F83F80
03F87F80
07FC7F80
07FC7F80
03F87F80
03F83F80
01F01F00
00000000
00000000
00000000
001FF000
00FFFE00
03FFFF80
07FFFFC0
0FFFFFE0
1FFFFFF0
3FFFFFF0
3FF83FF8
7FE00FFC
7FE00FFC
7FC007FC
FFC007FE
FF8003FE
FF8003FE
FF8003FE
FF8003FE
FF8003FE
FF8003FE
FF8003FE
FF8003FE
FF8003FE
FF8003FE
FF8003FE
FFC007FE
7FC007FC
7FE00FFC
7FE00FFC
3FF83FF8
1FFFFFF8
1FFFFFF0
0FFFFFE0
07FFFFC0
01FFFF80
00FFFE00
001FF000
ENDCHAR
STARTCHAR divide
ENCODING 247
SWIDTH 570 0
DWIDTH 34 0
BBX 28 29 3 5
BITMAP
000F0000
001F8000
003FC000
003FC000
003FC000
003FC000
003FC000
001F8000
000F0000
00000000
00000000
FFFFFFF0
FFFFFFF0
FFFFFFF0
FFFFFFF0
FFFFFFF0
FFFFFFF0
FFFFFFF0
00000000
00000000
00060000
001F8000
003FC000
003FC000
003FC000
003FC000
003FC000
001FC000
001F8000
ENDCHAR
STARTCHAR oslash
ENCODING 248
SWIDTH 619 0
DWIDTH 37 0
BBX 31 38 3 -3
BITMAP
00000080
001FF0C0
00FFFFF0
03FFFFF8
07FFFFF0
0FFFFFE0
1FFFFFF0
3FFFFFF0
3FF83FF8
7FE03FFC
7FE03FFC
7FC07FFC
FFC0FFFE
FF80FFFE
FF81FFFE
FF83FBFE
FF83F3FE
FF87F3FE
FF87E3FE
FF8FC3FE
FF9FC3FE
FF9F83FE
FFBF83FE
FFFF03FE
FFFE07FE
7FFE07FC
7FFC0FFC
7FF80FFC
3FFC3FF8
1FFFFFF8
1FFFFFF0
0FFFFFE0
1FFFFFC0
1FFFFF80
3FFFFE00
0F1FF000
06000000
02000000
ENDCHAR
STARTCHAR ugrave
ENCODING 249
SWIDTH 657 0
DWIDTH 39 0
BBX 30 47 4 -1
BITMAP
1FF80000
0FFC0000
07FE0000
03FE0000
01FF0000
00FF8000
003FC000
001FC000
000FE000
0007F000
00000000
00000000
00000000
FF8003FC
FF8003FC
FF8003FC
FF8003FC
FF8003FC
FF8003FC
FF8003FC
FF8003FC
FF8003FC
FF8003FC
FF8003FC
FF8003FC
FF8003FC
FF8003FC
FF8003FC
FF8003FC
FF8003FC
FF8007FC
FF8007FC
FF8007FC
FF8007FC
FF8007FC
FFC007FC
7FC00FFC
7FC00FFC
7FE01FFC
7FF87FFC
7FFFFFFC
3FFFFFFC
3FFFFDFC
1FFFF9FC
0FFFF1FC
07FFC1FC
00FF0000
ENDCHAR
STARTCHAR uacute
ENCODING 250
SWIDTH 657 0
DWIDTH 39 0
BBX 30 47 4 -1
BITMAP
00007FE0
0000FFC0
0000FF80
0001FF00
0003FE00
0007FC00
0007F800
000FE000
001FC000
003F8000
00000000
00000000
00000000
FF8003FC
FF8003FC
FF8003FC
FF8003FC
FF8003FC
FF8003FC
FF8003FC
FF8003FC
FF8003FC
FF8003FC
FF8003FC
FF8003FC
FF8003FC
FF8003FC
FF8003FC
FF8003FC
FF8003FC
FF8007FC
FF8007FC
FF8007FC
FF8007FC
FF8007FC
FFC007FC
7FC00FFC
7FC00FFC
7FE01FFC
7FF87FFC
7FFFFFFC
3FFFFFFC
3FFFFDFC
1FFFF9FC
0FFFF1FC
07FFC1FC
00FF0000
ENDCHAR
STARTCHAR ucircumflex
ENCODING 251
SWIDTH 657 0
DWIDTH 39 0
BBX 30 47 4 -1
BITMAP
003FF800
007FFC00
007FFC00
00FFFE00
01FFFF00
03FCFF80
07F87FC0
0FF03FC0
1FE00FE0
1F8007F0
00000000
00000000
00000000
FF8003FC
FF8003FC
FF8003FC
FF8003FC
FF8003FC
FF8003FC
FF8003FC
FF8003FC
FF8003FC
FF8003FC
FF8003FC
FF8003FC
FF8003FC
FF8003FC
FF8003FC
FF8003FC
FF8003FC
FF8007FC
FF8007FC
FF8007FC
FF8007FC
FF8007FC
FFC007FC
7FC00FFC
7FC00FFC
7FE01FFC
7FF87FFC
7FFFFFFC
3FFFFFFC
3FFFFDFC
1FFFF9FC
0FFFF1FC
07FFC1FC
00FF0000
ENDCHAR
STARTCHAR udieresis
ENCODING 252
SWIDTH 657 0
DWIDTH 39 0
BBX 30 46 4 -1
BITMAP
00E01E00
03F83F80
03F87F80
07FC7F80
07FC7F80
03F87F80
03F83F80
01F01F00
00000000
00000000
00000000
00000000
FF8003FC
FF8003FC
FF8003FC
FF8003FC
FF8003FC
FF8003FC
FF8003FC
FF8003FC
FF8003FC
FF8003FC
FF8003FC
FF8003FC
FF8003FC
FF8003FC
FF8003FC
FF8003FC
FF8003FC
FF8007FC
FF8007FC
FF8007FC
FF8007FC
FF8007FC
FFC007FC
7FC00FFC
7FC00FFC
7FE01FFC
7FF87FFC
7FFFFFFC
3FFFFFFC
3FFFFDFC
1FFFF9FC
0FFFF1FC
07FFC1FC
00FF0000
ENDCHAR
STARTCHAR yacute
ENCODING 253
SWIDTH 568 0
DWIDTH 34 0
BBX 34 60 0 -14
BITMAP
00003FF000
00007FE000
00007FC000
0000FF8000
0001FF0000
0003FE0000
0003FC0000
0007F00000
000FE00000
001FC00000
0000000000
0000000000
0000000000
FFC000FFC0
7FC000FF80
7FE000FF80
7FE001FF80
3FE001FF00
3FF001FF00
1FF003FF00
1FF003FE00
1FF803FE00
0FF807FC00
0FF807FC00
07FC07FC00
07FC0FF800
07FC0FF800
03FE0FF800
03FE1FF000
01FE1FF000
01FF1FE000
01FF3FE000
00FF3FE000
00FF3FC000
007FBFC000
007FFFC000
007FFF8000
003FFF8000
003FFF0000
001FFF0000
001FFF0000
001FFE0000
000FFE0000
000FFE0000
0007FC0000
0007FC0000
0007F80000
000FF80000
000FF80000
001FF00000
001FF00000
007FE00000
21FFE00000
3FFFC00000
3FFFC00000
3FFF800000
3FFF000000
3FFE000000
3FF8000000
3FC0000000
ENDCHAR
STARTCHAR thorn
ENCODING 254
SWIDTH 632 0
DWIDTH 38 0
BBX 30 60 5 -14
BITMAP
FF800000
FF800000
FF800000
FF800000
FF800000
FF800000
FF800000
FF800000
FF800000
FF800000
FF800000
FF800000
FF83F800
FF8FFF00
FF1FFF80
FF3FFFC0
FF7FFFE0
FFFFFFF0
FFFFFFF0
FFF87FF8
FFE01FF8
FFC00FF8
FFC00FFC
FF800FFC
FF8007FC
FF8007FC
FF8007FC
FF8007FC
FF8007FC
FF8007FC
FF8007FC
FF8007FC
FF8007FC
FF8007FC
FF8007FC
FF800FFC
FFC00FFC
FFC01FF8
FFE01FF8
FFF87FF8
FFFFFFF0
FFFFFFF0
FFFFFFE0
FF7FFFC0
FF3FFF80
FF0FFF00
FF83F800
FF800000
FF800000
FF800000
FF800000
FF800000
FF800000
FF800000
FF800000
FF800000
FF800000
FF800000
FF800000
FF800000
ENDCHAR
STARTCHAR ydieresis
ENCODING 255
SWIDTH 568 0
DWIDTH 34 0
BBX 34 59 0 -14
BITMAP
0078078000
00FC1FC000
01FE1FE000
01FE1FE000
01FE1FE000
01FE1FE000
00FE1FC000
0078078000
0000000000
0000000000
0000000000
0000000000
FFC000FFC0
7FC000FF80
7FE000FF80
7FE001FF80
3FE001FF00
3FF001FF00
1FF003FF00
1FF003FE00
1FF803FE00
0FF807FC00
0FF807FC00
07FC07FC00
07FC0FF800
07FC0FF800
03FE0FF800
03FE1FF000
01FE1FF000
01FF1FE000
01FF3FE000
00FF3FE000
00FF3FC000
007FBFC000
007FFFC000
007FFF8000
003FFF8000
003FFF0000
001FFF0000
001FFF0000
001FFE0000
000FFE0000
000FFE0000
0007FC0000
0007FC0000
0007F80000
000FF80000
000FF80000
001FF00000
001FF00000
007FE00000
21FFE00000
3FFFC00000
3FFFC00000
3FFF800000
3FFF000000
3FFE000000
3FF8000000
3FC0000000
ENDCHAR
STARTCHAR Amacron
ENCODING 256
SWIDTH 689 0
DWIDTH 41 0
BBX 41 52 0 0
BITMAP
001FFFFC0000
001FFFFC0000
001FFFFC0000
001FFFFC0000
001FFFFC0000
001FFFFC0000
000000000000
000000000000
000000000000
0001FFC00000
0003FFC00000
0003FFE00000
0003FFE00000
0007FFF00000
0007FFF00000
0007FFF00000
000FF7F80000
000FF7F80000
000FF7F80000
001FE3FC0000
001FE3FC0000
001FE3FC0000
003FE3FE0000
003FC1FE0000
003FC1FE0000
007FC1FF0000
007F80FF0000
007F80FF0000
00FF80FF8000
00FF007F8000
01FF007F8000
01FF007FC000
01FE003FC000
03FE003FE000
03FFFFFFE000
03FFFFFFE000
07FFFFFFF000
07FFFFFFF000
07FFFFFFF000
0FFFFFFFF800
0FFFFFFFF800
0FFFFFFFF800
1FF80007FC00
1FF00007FC00
1FF00007FC00
3FF00007FE00
3FE00003FE00
3FE00003FE00
7FE00003FF00
7FC00001FF00
7FC00001FF00
FFC00001FF80
ENDCHAR
STARTCHAR amacron
ENCODING 257
SWIDTH 604 0
DWIDTH 36 0
BBX 30 43 2 -1
BITMAP
03FFFFC0
03FFFFC0
03FFFFC0
03FFFFC0
03FFFFC0
03FFFFC0
00000000
00000000
001FF800
01FFFF00
0FFFFFC0
0FFFFFE0
0FFFFFF0
07FFFFF0
07FFFFF8
03C01FF8
03000FF8
00000FF8
000007FC
000007FC
000007FC
000FFFFC
01FFFFFC
07FFFFFC
0FFFFFFC
1FFFFFFC
3FFF07FC
7FF007FC
7FE007FC
7FC007FC
7FC007FC
FFC00FFC
FFC00FFC
7FC00FFC
7FC01FFC
7FE03FFC
7FFFFFFC
7FFFFBFC
3FFFFBFC
1FFFF3FC
1FFFE1FC
07FF81FC
01FE0000
ENDCHAR
STARTCHAR Abreve
ENCODING 258
SWIDTH 689 0
DWIDTH 41 0
BBX 41 56 0 0
BITMAP
007C001F0000
007C003F0000
007E007E0000
003FC1FE0000
003FFFFE0000
001FFFFC0000
001FFFF80000
0007FFF00000
0003FFE00000
0000FF000000
000000000000
000000000000
000000000000
0001FFC00000
0003FFC00000
0003FFE00000
0003FFE00000
0007FFF00000
0007FFF00000
0007FFF00000
000FF7F80000
000FF7F80000
000FF7F80000
001FE3FC0000
001FE3FC0000
001FE3FC0000
003FE3FE0000
003FC1FE0000
003FC1FE0000
007FC1FF0000
007F80FF0000
007F80FF0000
00FF80FF8000
00FF007F8000
01FF007F8000
01FF007FC000
01FE003FC000
03FE003FE000
03FFFFFFE000
03FFFFFFE000
07FFFFFFF000
07FFFFFFF000
07FFFFFFF000
0FFFFFFFF800
0FFFFFFFF800
0FFFFFFFF800
1FF80007FC00
1FF00007FC00
1FF00007FC00
3FF00007FE00
3FE00003FE00
3FE00003FE00
7FE00003FF00
7FC00001FF00
7FC00001FF00
FFC00001FF80
ENDCHAR
STARTCHAR abreve
ENCODING 259
SWIDTH 604 0
DWIDTH 36 0
BBX 30 47 2 -1
BITMAP
07C001F0
07C003F0
07E007E0
03FC1FE0
03FFFFC0
01FFFFC0
01FFFF80
00FFFF00
003FFC00
000FF000
00000000
00000000
001FF800
01FFFF00
0FFFFFC0
0FFFFFE0
0FFFFFF0
07FFFFF0
07FFFFF8
03C01FF8
03000FF8
00000FF8
000007FC
000007FC
000007FC
000FFFFC
01FFFFFC
07FFFFFC
0FFFFFFC
1FFFFFFC
3FFF07FC
7FF007FC
7FE007FC
7FC007FC
7FC007FC
FFC00FFC
FFC00FFC
7FC00FFC
7FC01FFC
7FE03FFC
7FFFFFFC
7FFFFBFC
3FFFFBFC
1FFFF3FC
1FFFE1FC
07FF81FC
01FE0000
ENDCHAR
STARTCHAR Aogonek
ENCODING 260
SWIDTH 689 0
DWIDTH 41 0
BBX 41 57 0 -14
BITMAP
0001FFC00000
0003FFC00000
0003FFE00000
0003FFE00000
0007FFF00000
0007FFF00000
0007FFF00000
000FF7F80000
000FF7F80000
000FF7F80000
001FE3FC0000
001FE3FC0000
001FE3FC0000
003FE3FE0000
003FC1FE0000
003FC1FE0000
007FC1FF0000
007F80FF0000
007F80FF0000
00FF80FF8000
00FF007F8000
01FF007F8000
01FF007FC000
01FE003FC000
03FE003FE000
03FFFFFFE000
03FFFFFFE000
07FFFFFFF000
07FFFFFFF000
07FFFFFFF000
0FFFFFFFF800
0FFFFFFFF800
0FFFFFFFF800
1FF80007FC00
1FF00007FC00
1FF00007FC00
3FF00007FE00
3FE00003FE00
3FE00003FE00
7FE00003FF00
7FC00001FF00
7FC00001FF00
FFC00001FF80
00000001F000
00000003E000
00000007C000
0000000FC000
0000001F8000
0000001F8000
0000003F8000
0000003F8000
0000003FC400
0000001FFC00
0000001FFC00
0000000FFC00
00000007FC00
00000001FC00
ENDCHAR
STARTCHAR aogonek
ENCODING 261
SWIDTH 604 0
DWIDTH 36 0
BBX 30 48 2 -14
BITMAP
001FF800
01FFFF00
0FFFFFC0
0FFFFFE0
0FFFFFF0
07FFFFF0
07FFFFF8
03C01FF8
03000FF8
00000FF8
000007FC
000007FC
000007FC
000FFFFC
01FFFFFC
07FFFFFC
0FFFFFFC
1FFFFFFC
3FFF07FC
7FF007FC
7FE007FC
7FC007FC
7FC007FC
FFC00FFC
FFC00FFC
7FC00FFC
7FC01FFC
7FE03FFC
7FFFFFFC
7FFFFBFC
3FFFFBFC
1FFFF3FC
1FFFE1FC
07FF81FC
01FE01F0
000003E0
000007C0
00000FC0
00001F80
00001F80
00003F80
00003F80
00003FCC
00001FFC
00001FFC
00000FFC
000007FC
000003FC
ENDCHAR
STARTCHAR Cacute
ENCODING 262
SWIDTH 637 0
DWIDTH 38 0
BBX 33 57 3 -1
BITMAP
000007FE00
00000FFC00
00000FF800
00001FF000
00003FE000
00007FC000
00007F8000
0000FE0000
0001FC0000
0003F80000
0000000000
0000000000
0000FF8000
000FFFF800
003FFFFF00
007FFFFF80
01FFFFFF00
03FFFFFF00
07FFFFFF00
07FFFFFE00
0FFF007E00
1FFC000C00
1FF8000000
3FF8000000
3FF0000000
3FF0000000
7FE0000000
7FE0000000
7FC0000000
7FC0000000
7FC0000000
7FC0000000
7FC0000000
FFC0000000
FFC0000000
FFC0000000
FFC0000000
7FC0000000
7FC0000000
7FC0000000
7FC0000000
7FE0000000
7FE0000000
7FE0000000
3FF0000000
3FF0000000
1FF8000000
1FFC000200
1FFF001E00
0FFFFFFE00
07FFFFFE00
03FFFFFE00
01FFFFFE00
00FFFFFE00
007FFFFE00
001FFFFC00
0001FFC000
ENDCHAR
STARTCHAR cacute
ENCODING 263
SWIDTH 514 0
DWIDTH 31 0
BBX 27 47 3 -1
BITMAP
00007FE0
0000FFC0
0001FF80
0001FF00
0003FE00
0007FC00
000FF000
001FE000
001FC000
003F8000
00000000
00000000
001FF800
00FFFF00
03FFFFC0
07FFFFC0
0FFFFF80
1FFFFF80
3FFFFF00
3FFC3F00
7FF00300
7FE00000
7FC00000
FFC00000
FF800000
FF800000
FF800000
FF800000
FF800000
FF800000
FF800000
FF800000
FF800000
FF800000
FF800000
FFC00000
FFC00000
7FE00080
7FF00380
7FFC1F80
3FFFFF80
1FFFFF80
1FFFFF80
0FFFFF80
03FFFF80
01FFFE00
003FF800
ENDCHAR
STARTCHAR Ccircumflex
ENCODING 264
SWIDTH 637 0
DWIDTH 38 0
BBX 33 57 3 -1
BITMAP
0003FF8000
0003FFC000
0007FFE000
000FFFF000
000FFFF000
001FE7F800
003FC3FC00
007F81FE00
00FE00FF00
01FC003F80
0000000000
0000000000
0000FF8000
000FFFF800
003FFFFF00
007FFFFF80
01FFFFFF00
03FFFFFF00
07FFFFFF00
07FFFFFE00
0FFF007E00
1FFC000C00
1FF8000000
3FF8000000
3FF0000000
3FF0000000
7FE0000000
7FE0000000
7FC0000000
7FC0000000
7FC0000000
7FC0000000
7FC0000000
FFC0000000
FFC0000000
FFC0000000
FFC0000000
7FC0000000
7FC0000000
7FC0000000
7FC0000000
7FE0000000
7FE0000000
7FE0000000
3FF0000000
3FF0000000
1FF8000000
1FFC000200
1FFF001E00
0FFFFFFE00
07FFFFFE00
03FFFFFE00
01FFFFFE00
00FFFFFE00
007FFFFE00
001FFFFC00
0001FFC000
ENDCHAR
STARTCHAR ccircumflex
ENCODING 265
SWIDTH 514 0
DWIDTH 31 0
BBX 28 47 3 -1
BITMAP
003FF800
007FFC00
007FFC00
00FFFE00
01FFFF00
03FEFF80
07F87FC0
0FF01FC0
0FE00FE0
1F8007F0
00000000
00000000
001FF800
00FFFF00
03FFFFC0
07FFFFC0
0FFFFF80
1FFFFF80
3FFFFF00
3FFC3F00
7FF00300
7FE00000
7FC00000
FFC00000
FF800000
FF800000
FF800000
FF800000
FF800000
FF800000
FF800000
FF800000
FF800000
FF800000
FF800000
FFC00000
FFC00000
7FE00080
7FF00380
7FFC1F80
3FFFFF80
1FFFFF80
1FFFFF80
0FFFFF80
03FFFF80
01FFFE00
003FF800
ENDCHAR
STARTCHAR Cdotaccent
ENCODING 266
SWIDTH 637 0
DWIDTH 38 0
BBX 33 57 3 -1
BITMAP
00003C0000
0000FF0000
0001FF0000
0001FF8000
0001FF8000
0001FF8000
0001FF8000
0000FF0000
00007E0000
0000000000
0000000000
0000000000
0000FF8000
000FFFF800
003FFFFF00
007FFFFF80
01FFFFFF00
03FFFFFF00
07FFFFFF00
07FFFFFE00
0FFF007E00
1FFC000C00
1FF8000000
3FF8000000
3FF0000000
3FF0000000
7FE0000000
7FE0000000
7FC0000000
7FC0000000
7FC0000000
7FC0000000
7FC0000000
FFC0000000
FFC0000000
FFC0000000
FFC0000000
7FC0000000
7FC0000000
7FC0000000
7FC0000000
7FE0000000
7FE0000000
7FE0000000
3FF0000000
3FF0000000
1FF8000000
1FFC000200
1FFF001E00
0FFFFFFE00
07FFFFFE00
03FFFFFE00
01FFFFFE00
00FFFFFE00
007FFFFE00
001FFFFC00
0001FFC000
ENDCHAR
STARTCHAR cdotaccent
ENCODING 267
SWIDTH 514 0
DWIDTH 31 0
BBX 26 47 3 -1
BITMAP
00078000
001FE000
001FF000
001FF000
003FF000
001FF000
001FF000
001FE000
0007C000
00000000
00000000
00000000
001FF800
00FFFF00
03FFFFC0
07FFFFC0
0FFFFF80
1FFFFF80
3FFFFF00
3FFC3F00
7FF00300
7FE00000
7FC00000
FFC00000
FF800000
FF800000
FF800000
FF800000
FF800000
FF800000
FF800000
FF800000
FF800000
FF800000
FF800000
FFC00000
FFC00000
7FE00080
7FF00380
7FFC1F80
3FFFFF80
1FFFFF80
1FFFFF80
0FFFFF80
03FFFF80
01FFFE00
003FF800
ENDCHAR
STARTCHAR Ccaron
ENCODING 268
SWIDTH 637 0
DWIDTH 38 0
BBX 33 57 3 -1
BITMAP
01FC003F80
00FE00FF00
007F81FE00
003FC3FC00
001FE7F800
000FFFF000
000FFFF000
0007FFE000
0003FFC000
0001FFC000
0000000000
0000000000
0000FF8000
000FFFF800
003FFFFF00
007FFFFF80
01FFFFFF00
03FFFFFF00
07FFFFFF00
07FFFFFE00
0FFF007E00
1FFC000C00
1FF8000000
3FF8000000
3FF0000000
3FF0000000
7FE0000000
7FE0000000
7FC0000000
7FC0000000
7FC0000000
7FC0000000
7FC0000000
FFC0000000
FFC0000000
FFC0000000
FFC0000000
7FC0000000
7FC0000000
7FC0000000
7FC0000000
7FE0000000
7FE0000000
7FE0000000
3FF0000000
3FF0000000
1FF8000000
1FFC000200
1FFF001E00
0FFFFFFE00
07FFFFFE00
03FFFFFE00
01FFFFFE00
00FFFFFE00
007FFFFE00
001FFFFC00
0001FFC000
ENDCHAR
STARTCHAR ccaron
ENCODING 269
SWIDTH 514 0
DWIDTH 31 0
BBX 29 47 3 -1
BITMAP
1FC003F8
0FE00FF0
07F81FE0
03FC3FC0
01FE7F80
00FFFF00
00FFFF00
007FFE00
003FFC00
003FF800
00000000
00000000
001FF800
00FFFF00
03FFFFC0
07FFFFC0
0FFFFF80
1FFFFF80
3FFFFF00
3FFC3F00
7FF00300
7FE00000
7FC00000
FFC00000
FF800000
FF800000
FF800000
FF800000
FF800000
FF800000
FF800000
FF800000
FF800000
FF800000
FF800000
FFC00000
FFC00000
7FE00080
7FF00380
7FFC1F80
3FFFFF80
1FFFFF80
1FFFFF80
0FFFFF80
03FFFF80
01FFFE00
003FF800
ENDCHAR
STARTCHAR Dcaron
ENCODING 270
SWIDTH 740 0
DWIDTH 44 0
BBX 36 56 5 0
BITMAP
1FC003F800
0FE00FF000
07F81FE000
03FC3FC000
01FE7F8000
00FFFF0000
00FFFF0000
007FFE0000
003FFC0000
001FFC0000
0000000000
0000000000
0000000000
FFFFE00000
FFFFFE0000
FFFFFFC000
FFFFFFE000
FFFFFFF800
FFFFFFFC00
FFFFFFFE00
FF81FFFF00
FF800FFF00
FF8003FF80
FF8001FF80
FF8000FFC0
FF8000FFC0
FF80007FE0
FF80007FE0
FF80007FE0
FF80003FE0
FF80003FE0
FF80003FF0
FF80003FF0
FF80003FF0
FF80003FF0
FF80003FF0
FF80003FF0
FF80003FE0
FF80003FE0
FF80003FE0
FF80007FE0
FF80007FE0
FF80007FC0
FF8000FFC0
FF8001FFC0
FF8003FF80
FF8007FF80
FF801FFF00
FFFFFFFE00
FFFFFFFE00
FFFFFFFC00
FFFFFFF000
FFFFFFE000
FFFFFF8000
FFFFFE0000
FFFFC00000
ENDCHAR
STARTCHAR dcaron
ENCODING 271
SWIDTH 632 0
DWIDTH 38 0
BBX 43 47 3 -1
BITMAP
000007FC1FE0
000007FC1FE0
000007FC3FC0
000007FC3FC0
000007FC3F80
000007FC3F80
000007FC3F00
000007FC7F00
000007FC7E00
000007FC7E00
000007FC0000
000007FC0000
007F07FC0000
03FFC3FC0000
07FFF3FC0000
0FFFFBFC0000
1FFFFBFC0000
3FFFFFFC0000
3FFFFFFC0000
7FF87FFC0000
7FF01FFC0000
7FE00FFC0000
FFC007FC0000
FFC007FC0000
FF8007FC0000
FF8003FC0000
FF8003FC0000
FF8003FC0000
FF8003FC0000
FF8003FC0000
FF8003FC0000
FF8003FC0000
FF8003FC0000
FF8003FC0000
FF8003FC0000
FFC007FC0000
FFC007FC0000
7FE00FFC0000
7FE00FFC0000
7FF83FFC0000
3FFFFFFC0000
3FFFFFFC0000
1FFFFBFC0000
0FFFF3FC0000
07FFE1FC0000
03FFC1FC0000
007F00000000
ENDCHAR
STARTCHAR Dcroat
ENCODING 272
SWIDTH 740 0
DWIDTH 44 0
BBX 40 43 1 0
BITMAP
0FFFFE0000
0FFFFFE000
0FFFFFFC00
0FFFFFFE00
0FFFFFFF80
0FFFFFFFC0
0FFFFFFFE0
0FF81FFFF0
0FF800FFF0
0FF8003FF8
0FF8001FF8
0FF8000FFC
0FF8000FFC
0FF80007FE
0FF80007FE
0FF80007FE
0FF80003FE
0FF80003FE
FFFFF003FF
FFFFF003FF
FFFFF003FF
FFFFF003FF
FFFFF003FF
FFFFF003FF
FFFFF003FE
0FF80003FE
0FF80003FE
0FF80007FE
0FF80007FE
0FF80007FC
0FF8000FFC
0FF8001FFC
0FF8003FF8
0FF8007FF8
0FF801FFF0
0FFFFFFFE0
0FFFFFFFE0
0FFFFFFFC0
0FFFFFFF00
0FFFFFFE00
0FFFFFF800
0FFFFFE000
0FFFFC0000
ENDCHAR
STARTCHAR dcroat
ENCODING 273
SWIDTH 648 0
DWIDTH 39 0
BBX 35 47 3 -1
BITMAP
000007FC00
000007FC00
000007FC00
000007FC00
000007FC00
000FFFFFE0
000FFFFFE0
000FFFFFE0
000FFFFFE0
000FFFFFE0
000FFFFFE0
000007FC00
000007FC00
000007FC00
007F07FC00
03FFC3FC00
07FFF3FC00
0FFFFBFC00
1FFFFBFC00
3FFFFFFC00
3FFFFFFC00
7FF87FFC00
7FF01FFC00
7FE00FFC00
FFC007FC00
FF8007FC00
FF8003FC00
FF8003FC00
FF8003FC00
FF8003FC00
FF8003FC00
FF8003FC00
FF8003FC00
FF8003FC00
FF8003FC00
FF8007FC00
FFC007FC00
7FC007FC00
7FE00FFC00
7FF83FFC00
3FFFFFFC00
3FFFFFFC00
1FFFFBFC00
0FFFF3FC00
07FFE1FC00
03FFC1FC00
00FF000000
ENDCHAR
STARTCHAR Emacron
ENCODING 274
SWIDTH 560 0
DWIDTH 34 0
BBX 25 52 5 0
BITMAP
0FFFFF00
0FFFFF00
0FFFFF00
0FFFFF00
0FFFFF00
0FFFFF00
00000000
00000000
00000000
FFFFFF80
FFFFFF80
FFFFFF80
FFFFFF80
FFFFFF80
FFFFFF80
FFFFFF80
FFC00000
FFC00000
FFC00000
FFC00000
FFC00000
FFC00000
FFC00000
FFC00000
FFC00000
FFC00000
FFFFFF00
FFFFFF00
FFFFFF00
FFFFFF00
FFFFFF00
FFFFFF00
FFFFFF00
FFC00000
FFC00000
FFC00000
FFC00000
FFC00000
FFC00000
FFC00000
FFC00000
FFC00000
FFC00000
FFC00000
FFFFFF80
FFFFFF80
FFFFFF80
FFFFFF80
FFFFFF80
FFFFFF80
FFFFFF80
FFFFFF80
ENDCHAR
STARTCHAR emacron
ENCODING 275
SWIDTH 590 0
DWIDTH 35 0
BBX 30 43 3 -1
BITMAP
07FFFF80
07FFFF80
07FFFF80
07FFFF80
07FFFF80
07FFFF80
00000000
00000000
001FE000
00FFFC00
03FFFF00
07FFFF80
0FFFFFC0
1FFFFFE0
3FFCFFE0
3FF01FF0
7FE00FF0
7FC00FF8
7FC007F8
FF8007F8
FF8007F8
FF8007F8
FFFFFFFC
FFFFFFFC
FFFFFFFC
FFFFFFFC
FFFFFFFC
FFFFFFFC
FF800000
FF800000
FF800000
FF800000
7FC00000
7FC00000
7FE00030
3FF801F0
3FFFFFF0
1FFFFFF0
0FFFFFF0
07FFFFF0
01FFFFF0
00FFFFC0
000FFC00
ENDCHAR
STARTCHAR Ebreve
ENCODING 276
SWIDTH 560 0
DWIDTH 34 0
BBX 25 56 5 0
BITMAP
3E000F80
3E001F80
3F003F00
1FE0FF00
1FFFFE00
0FFFFE00
0FFFFC00
07FFF800
01FFE000
007F8000
00000000
00000000
00000000
FFFFFF80
FFFFFF80
FFFFFF80
FFFFFF80
FFFFFF80
FFFFFF80
FFFFFF80
FFC00000
FFC00000
FFC00000
FFC00000
FFC00000
FFC00000
FFC00000
FFC00000
FFC00000
FFC00000
FFFFFF00
FFFFFF00
FFFFFF00
FFFFFF00
FFFFFF00
FFFFFF00
FFFFFF00
FFC00000
FFC00000
FFC00000
FFC00000
FFC00000
FFC00000
FFC00000
FFC00000
FFC00000
FFC00000
FFC00000
FFFFFF80
FFFFFF80
FFFFFF80
FFFFFF80
FFFFFF80
FFFFFF80
FFFFFF80
FFFFFF80
ENDCHAR
STARTCHAR ebreve
ENCODING 277
SWIDTH 590 0
DWIDTH 35 0
BBX 30 47 3 -1
BITMAP
0F8007C0
0F8007C0
0FC00FC0
0FF03FC0
07FFFF80
07FFFF00
03FFFF00
01FFFE00
00FFF800
001FE000
00000000
00000000
001FE000
00FFFC00
03FFFF00
07FFFF80
0FFFFFC0
1FFFFFE0
3FFCFFE0
3FF01FF0
7FE00FF0
7FC00FF8
7FC007F8
FF8007F8
FF8007F8
FF8007F8
FFFFFFFC
FFFFFFFC
FFFFFFFC
FFFFFFFC
FFFFFFFC
FFFFFFFC
FF800000
FF800000
FF800000
FF800000
7FC00000
7FC00000
7FE00030
3FF801F0
3FFFFFF0
1FFFFFF0
0FFFFFF0
07FFFFF0
01FFFFF0
00FFFFC0
000FFC00
ENDCHAR
STARTCHAR Edotaccent
ENCODING 278
SWIDTH 560 0
DWIDTH 34 0
BBX 25 55 5 0
BITMAP
000F0000
003FC000
007FC000
007FE000
007FE000
007FE000
007FE000
003FC000
001F8000
00000000
00000000
00000000
FFFFFF80
FFFFFF80
FFFFFF80
FFFFFF80
FFFFFF80
FFFFFF80
FFFFFF80
FFC00000
FFC00000
FFC00000
FFC00000
FFC00000
FFC00000
FFC00000
FFC00000
FFC00000
FFC00000
FFFFFF00
FFFFFF00
FFFFFF00
FFFFFF00
FFFFFF00
FFFFFF00
FFFFFF00
FFC00000
FFC00000
FFC00000
FFC00000
FFC00000
FFC00000
FFC00000
FFC00000
FFC00000
FFC00000
FFC00000
FFFFFF80
FFFFFF80
FFFFFF80
FFFFFF80
FFFFFF80
FFFFFF80
FFFFFF80
FFFFFF80
ENDCHAR
STARTCHAR edotaccent
ENCODING 279
SWIDTH 590 0
DWIDTH 35 0
BBX 30 47 3 -1
BITMAP
0007C000
000FE000
001FF000
001FF000
001FF000
001FF000
001FF000
001FE000
0007C000
00000000
00000000
00000000
001FE000
00FFFC00
03FFFF00
07FFFF80
0FFFFFC0
1FFFFFE0
3FFCFFE0
3FF01FF0
7FE00FF0
7FC00FF8
7FC007F8
FF8007F8
FF8007F8
FF8007F8
FFFFFFFC
FFFFFFFC
FFFFFFFC
FFFFFFFC
FFFFFFFC
FFFFFFFC
FF800000
FF800000
FF800000
FF800000
7FC00000
7FC00000
7FE00030
3FF801F0
3FFFFFF0
1FFFFFF0
0FFFFFF0
07FFFFF0
01FFFFF0
00FFFFC0
000FFC00
ENDCHAR
STARTCHAR Eogonek
ENCODING 280
SWIDTH 560 0
DWIDTH 34 0
BBX 25 57 5 -14
BITMAP
FFFFFF80
FFFFFF80
FFFFFF80
FFFFFF80
FFFFFF80
FFFFFF80
FFFFFF80
FFC00000
FFC00000
FFC00000
FFC00000
FFC00000
FFC00000
FFC00000
FFC00000
FFC00000
FFC00000
FFFFFF00
FFFFFF00
FFFFFF00
FFFFFF00
FFFFFF00
FFFFFF00
FFFFFF00
FFC00000
FFC00000
FFC00000
FFC00000
FFC00000
FFC00000
FFC00000
FFC00000
FFC00000
FFC00000
FFC00000
FFFFFF80
FFFFFF80
FFFFFF80
FFFFFF80
FFFFFF80
FFFFFF80
FFFFFF80
FFFFFF80
0000FC00
0001F800
0003F000
0007E000
0007C000
000FC000
000FC000
000FC000
000FF300
000FFF00
0007FF00
0007FF00
0003FF00
0000FE00
ENDCHAR
STARTCHAR eogonek
ENCODING 281
SWIDTH 590 0
DWIDTH 35 0
BBX 30 47 3 -13
BITMAP
001FE000
00FFFC00
03FFFF00
07FFFF80
0FFFFFC0
1FFFFFE0
3FFCFFE0
3FF01FF0
7FE00FF0
7FC00FF8
7FC007F8
FF8007F8
FF8007F8
FF8007F8
FFFFFFFC
FFFFFFFC
FFFFFFFC
FFFFFFFC
FFFFFFFC
FFFFFFFC
FF800000
FF800000
FF800000
FF800000
7FC00000
7FC00000
7FE00030
3FF801F0
3FFFFFF0
1FFFFFF0
0FFFFFF0
07FFFFF0
01FFFFF0
00FFFFC0
000FFE00
0000FC00
0001F800
0001F800
0003F000
0003F000
0003F800
0003FCC0
0003FFC0
0001FFC0
0001FFC0
0000FFC0
00003F80
ENDCHAR
STARTCHAR Ecaron
ENCODING 282
SWIDTH 560 0
DWIDTH 34 0
BBX 26 56 5 0
BITMAP
7F000FC0
3F803FC0
1FC07F80
1FF1FF00
0FFBFE00
07FFFC00
03FFF800
01FFF800
01FFF000
00FFE000
00000000
00000000
00000000
FFFFFF80
FFFFFF80
FFFFFF80
FFFFFF80
FFFFFF80
FFFFFF80
FFFFFF80
FFC00000
FFC00000
FFC00000
FFC00000
FFC00000
FFC00000
FFC00000
FFC00000
FFC00000
FFC00000
FFFFFF00
FFFFFF00
FFFFFF00
FFFFFF00
FFFFFF00
FFFFFF00
FFFFFF00
FFC00000
FFC00000
FFC00000
FFC00000
FFC00000
FFC00000
FFC00000
FFC00000
FFC00000
FFC00000
FFC00000
FFFFFF80
FFFFFF80
FFFFFF80
FFFFFF80
FFFFFF80
FFFFFF80
FFFFFF80
FFFFFF80
ENDCHAR
STARTCHAR ecaron
ENCODING 283
SWIDTH 590 0
DWIDTH 35 0
BBX 30 47 3 -1
BITMAP
3F8007F0
1FC01FE0
0FF03FC0
07F87F80
03FCFF00
01FFFF00
01FFFE00
00FFFC00
007FF800
003FF800
00000000
00000000
001FE000
00FFFC00
03FFFF00
07FFFF80
0FFFFFC0
1FFFFFE0
3FFCFFE0
3FF01FF0
7FE00FF0
7FC00FF8
7FC007F8
FF8007F8
FF8007F8
FF8007F8
FFFFFFFC
FFFFFFFC
FFFFFFFC
FFFFFFFC
FFFFFFFC
FFFFFFFC
FF800000
FF800000
FF800000
FF800000
7FC00000
7FC00000
7FE00030
3FF801F0
3FFFFFF0
1FFFFFF0
0FFFFFF0
07FFFFF0
01FFFFF0
00FFFFC0
000FFC00
ENDCHAR
STARTCHAR Gcircumflex
ENCODING 284
SWIDTH 724 0
DWIDTH 43 0
BBX 35 57 3 -1
BITMAP
0001FFC000
0003FFE000
0003FFE000
0007FFF000
000FFFF800
001FE7FC00
003FC3FC00
007F81FE00
00FF007F00
00FC003F80
0000000000
0000000000
00007FF000
0007FFFF00
001FFFFFE0
007FFFFFE0
00FFFFFFE0
01FFFFFFC0
03FFFFFFC0
07FFFFFF80
0FFFC00780
0FFF000100
1FFC000000
1FF8000000
3FF8000000
3FF0000000
7FE0000000
7FE0000000
7FE0000000
7FC0000000
7FC0000000
7FC0000000
FFC03FFFE0
FFC03FFFE0
FFC03FFFE0
FFC03FFFE0
FFC03FFFE0
7FC03FFFE0
7FC03FFFE0
7FC03FFFE0
7FC0003FE0
7FE0003FE0
7FE0003FE0
3FE0003FE0
3FF0003FE0
3FF8003FE0
1FF8003FE0
1FFC003FE0
0FFF003FE0
0FFFFFFFE0
07FFFFFFE0
03FFFFFFE0
01FFFFFFE0
00FFFFFFE0
003FFFFFE0
000FFFFF00
0001FFE000
ENDCHAR
STARTCHAR gcircumflex
ENCODING 285
SWIDTH 632 0
DWIDTH 38 0
BBX 30 60 3 -14
BITMAP
003FF800
007FF800
00FFFC00
01FFFE00
01FFFF00
03FCFF00
07F87F80
0FF03FC0
1FE00FE0
1F8007F0
00000000
00000000
007F0000
03FFC1FC
07FFF3FC
0FFFFBFC
1FFFFBFC
3FFFFFFC
3FFFFFFC
7FF87FFC
7FF01FFC
7FE00FFC
FFC007FC
FFC007FC
FF8007FC
FF8003FC
FF8003FC
FF8003FC
FF8003FC
FF8003FC
FF8003FC
FF8003FC
FF8003FC
FF8003FC
FF8003FC
FFC007FC
FFC007FC
7FC007FC
7FE00FFC
7FF83FFC
3FFFFFFC
3FFFFFFC
1FFFFBFC
0FFFF7FC
07FFE7FC
03FFC7FC
007F07FC
000007FC
000007FC
000007FC
00000FFC
20000FF8
3E001FF8
3FFFFFF8
3FFFFFF0
3FFFFFE0
3FFFFFC0
3FFFFF80
1FFFFE00
01FFF000
ENDCHAR
STARTCHAR Gbreve
ENCODING 286
SWIDTH 724 0
DWIDTH 43 0
BBX 35 57 3 -1
BITMAP
007C001F00
007C003F00
007E003E00
003FC1FE00
003FFFFE00
001FFFFC00
000FFFF800
0007FFF000
0003FFE000
0000FF0000
0000000000
0000000000
00007FF000
0007FFFF00
001FFFFFE0
007FFFFFE0
00FFFFFFE0
01FFFFFFC0
03FFFFFFC0
07FFFFFF80
0FFFC00780
0FFF000100
1FFC000000
1FF8000000
3FF8000000
3FF0000000
7FE0000000
7FE0000000
7FE0000000
7FC0000000
7FC0000000
7FC0000000
FFC03FFFE0
FFC03FFFE0
FFC03FFFE0
FFC03FFFE0
FFC03FFFE0
7FC03FFFE0
7FC03FFFE0
7FC03FFFE0
7FC0003FE0
7FE0003FE0
7FE0003FE0
3FE0003FE0
3FF0003FE0
3FF8003FE0
1FF8003FE0
1FFC003FE0
0FFF003FE0
0FFFFFFFE0
07FFFFFFE0
03FFFFFFE0
01FFFFFFE0
00FFFFFFE0
003FFFFFE0
000FFFFF00
0001FFE000
ENDCHAR
STARTCHAR gbreve
ENCODING 287
SWIDTH 632 0
DWIDTH 38 0
BBX 30 60 3 -14
BITMAP
0F8003E0
0F8007C0
0FC00FC0
07F03FC0
07FFFF80
03FFFF80
03FFFF00
01FFFE00
007FF800
001FE000
00000000
00000000
007F0000
03FFC1FC
07FFF3FC
0FFFFBFC
1FFFFBFC
3FFFFFFC
3FFFFFFC
7FF87FFC
7FF01FFC
7FE00FFC
FFC007FC
FFC007FC
FF8007FC
FF8003FC
FF8003FC
FF8003FC
FF8003FC
FF8003FC
FF8003FC
FF8003FC
FF8003FC
FF8003FC
FF8003FC
FFC007FC
FFC007FC
7FC007FC
7FE00FFC
7FF83FFC
3FFFFFFC
3FFFFFFC
1FFFFBFC
0FFFF7FC
07FFE7FC
03FFC7FC
007F07FC
000007FC
000007FC
000007FC
00000FFC
20000FF8
3E001FF8
3FFFFFF8
3FFFFFF0
3FFFFFE0
3FFFFFC0
3FFFFF80
1FFFFE00
01FFF000
ENDCHAR
STARTCHAR Gdotaccent
ENCODING 288
SWIDTH 724 0
DWIDTH 43 0
BBX 35 57 3 -1
BITMAP
00001E0000
00007F8000
0000FF8000
0000FFC000
0000FFC000
0000FFC000
0000FFC000
00007F8000
00003F0000
0000000000
0000000000
0000000000
00007FF000
0007FFFF00
001FFFFFE0
007FFFFFE0
00FFFFFFE0
01FFFFFFC0
03FFFFFFC0
07FFFFFF80
0FFFC00780
0FFF000100
1FFC000000
1FF8000000
3FF8000000
3FF0000000
7FE0000000
7FE0000000
7FE0000000
7FC0000000
7FC0000000
7FC0000000
FFC03FFFE0
FFC03FFFE0
FFC03FFFE0
FFC03FFFE0
FFC03FFFE0
7FC03FFFE0
7FC03FFFE0
7FC03FFFE0
7FC0003FE0
7FE0003FE0
7FE0003FE0
3FE0003FE0
3FF0003FE0
3FF8003FE0
1FF8003FE0
1FFC003FE0
0FFF003FE0
0FFFFFFFE0
07FFFFFFE0
03FFFFFFE0
01FFFFFFE0
00FFFFFFE0
003FFFFFE0
000FFFFF00
0001FFE000
ENDCHAR
STARTCHAR gdotaccent
ENCODING 289
SWIDTH 632 0
DWIDTH 38 0
BBX 30 60 3 -14
BITMAP
0003C000
000FF000
001FF000
001FF800
001FF800
001FF800
001FF000
000FF000
0007E000
00000000
00000000
00000000
007F0000
03FFC1FC
07FFF3FC
0FFFFBFC
1FFFFBFC
3FFFFFFC
3FFFFFFC
7FF87FFC
7FF01FFC
7FE00FFC
FFC007FC
FFC007FC
FF8007FC
FF8003FC
FF8003FC
FF8003FC
FF8003FC
FF8003FC
FF8003FC
FF8003FC
FF8003FC
FF8003FC
FF8003FC
FFC007FC
FFC007FC
7FC007FC
7FE00FFC
7FF83FFC
3FFFFFFC
3FFFFFFC
1FFFFBFC
0FFFF7FC
07FFE7FC
03FFC7FC
007F07FC
000007FC
000007FC
000007FC
00000FFC
20000FF8
3E001FF8
3FFFFFF8
3FFFFFF0
3FFFFFE0
3FFFFFC0
3FFFFF80
1FFFFE00
01FFF000
ENDCHAR
STARTCHAR uni0122
ENCODING 290
SWIDTH 724 0
DWIDTH 43 0
BBX 35 58 3 -14
BITMAP
00007FF000
0007FFFF00
001FFFFFE0
007FFFFFE0
00FFFFFFE0
01FFFFFFC0
03FFFFFFC0
07FFFFFF80
0FFFC00780
0FFF000100
1FFC000000
1FF8000000
3FF8000000
3FF0000000
7FE0000000
7FE0000000
7FE0000000
7FC0000000
7FC0000000
7FC0000000
FFC03FFFE0
FFC03FFFE0
FFC03FFFE0
FFC03FFFE0
FFC03FFFE0
7FC03FFFE0
7FC03FFFE0
7FC03FFFE0
7FC0003FE0
7FE0003FE0
7FE0003FE0
3FE0003FE0
3FF0003FE0
3FF8003FE0
1FF8003FE0
1FFC003FE0
0FFF003FE0
0FFFFFFFE0
07FFFFFFE0
03FFFFFFE0
01FFFFFFE0
00FFFFFFE0
003FFFFFE0
000FFFFF00
0001FFE000
0000000000
0000000000
0000000000
00007FC000
00007F8000
00007F8000
00007F0000
0000FF0000
0000FE0000
0000FE0000
0000FC0000
0000FC0000
0001F80000
ENDCHAR
STARTCHAR uni0123
ENCODING 291
SWIDTH 632 0
DWIDTH 38 0
BBX 30 60 3 -14
BITMAP
0001F800
0001F800
0003F000
0007F000
0007F000
000FF000
000FE000
001FE000
001FE000
001FE000
00000000
00000000
007F0000
03FFC1FC
07FFF3FC
0FFFFBFC
1FFFFBFC
3FFFFFFC
3FFFFFFC
7FF87FFC
7FF01FFC
7FE00FFC
FFC007FC
FFC007FC
FF8007FC
FF8003FC
FF8003FC
FF8003FC
FF8003FC
FF8003FC
FF8003FC
FF8003FC
FF8003FC
FF8003FC
FF8003FC
FFC007FC
FFC007FC
7FC007FC
7FE00FFC
7FF83FFC
3FFFFFFC
3FFFFFFC
1FFFFBFC
0FFFF7FC
07FFE7FC
03FFC7FC
007F07FC
000007FC
000007FC
000007FC
00000FFC
20000FF8
3E001FF8
3FFFFFF8
3FFFFFF0
3FFFFFE0
3FFFFFC0
3FFFFF80
1FFFFE00
01FFF000
ENDCHAR
STARTCHAR Hcircumflex
ENCODING 292
SWIDTH 765 0
DWIDTH 46 0
BBX 36 56 5 0
BITMAP
0007FF0000
0007FF8000
000FFFC000
001FFFC000
003FFFE000
007FDFF000
007F8FF800
00FE03FC00
01FC01FE00
03F8007E00
0000000000
0000000000
0000000000
FF80003FF0
FF80003FF0
FF80003FF0
FF80003FF0
FF80003FF0
FF80003FF0
FF80003FF0
FF80003FF0
FF80003FF0
FF80003FF0
FF80003FF0
FF80003FF0
FF80003FF0
FF80003FF0
FF80003FF0
FF80003FF0
FF80003FF0
FFFFFFFFF0
FFFFFFFFF0
FFFFFFFFF0
FFFFFFFFF0
FFFFFFFFF0
FFFFFFFFF0
FFFFFFFFF0
FFFFFFFFF0
FF80003FF0
FF80003FF0
FF80003FF0
FF80003FF0
FF80003FF0
FF80003FF0
FF80003FF0
FF80003FF0
FF80003FF0
FF80003FF0
FF80003FF0
FF80003FF0
FF80003FF0
FF80003FF0
FF80003FF0
FF80003FF0
FF80003FF0
FF80003FF0
ENDCHAR
STARTCHAR hcircumflex
ENCODING 293
SWIDTH 657 0
DWIDTH 39 0
BBX 30 58 5 0
BITMAP
007FF000
00FFF800
00FFF800
01FFFC00
03FFFE00
07FDFF00
0FF0FF80
1FE03FC0
1FC01FC0
3F800FE0
00000000
00000000
FF800000
FF800000
FF800000
FF800000
FF800000
FF800000
FF800000
FF800000
FF800000
FF800000
FF800000
FF800000
FF03FC00
FF0FFF80
FF1FFFC0
FF3FFFE0
FF7FFFF0
FFFFFFF0
FFFFFFF8
FFF87FF8
FFE01FF8
FFC00FF8
FFC00FFC
FF800FFC
FF8007FC
FF8007FC
FF8007FC
FF8007FC
FF8007FC
FF8007FC
FF8007FC
FF8007FC
FF8007FC
FF8007FC
FF8007FC
FF8007FC
FF8007FC
FF8007FC
FF8007FC
FF8007FC
FF8007FC
FF8007FC
FF8007FC
FF8007FC
FF8007FC
FF8007FC
ENDCHAR
STARTCHAR Hbar
ENCODING 294
SWIDTH 765 0
DWIDTH 46 0
BBX 46 43 0 0
BITMAP
07FC0001FF80
07FC0001FF80
07FC0001FF80
07FC0001FF80
07FC0001FF80
07FC0001FF80
FFFFFFFFFFFC
FFFFFFFFFFFC
FFFFFFFFFFFC
FFFFFFFFFFFC
FFFFFFFFFFFC
FFFFFFFFFFFC
07FC0001FF80
07FC0001FF80
07FC0001FF80
07FC0001FF80
07FC0001FF80
07FFFFFFFF80
07FFFFFFFF80
07FFFFFFFF80
07FFFFFFFF80
07FFFFFFFF80
07FFFFFFFF80
07FFFFFFFF80
07FFFFFFFF80
07FC0001FF80
07FC0001FF80
07FC0001FF80
07FC0001FF80
07FC0001FF80
07FC0001FF80
07FC0001FF80
07FC0001FF80
07FC0001FF80
07FC0001FF80
07FC0001FF80
07FC0001FF80
07FC0001FF80
07FC0001FF80
07FC0001FF80
07FC0001FF80
07FC0001FF80
07FC0001FF80
ENDCHAR
STARTCHAR hbar
ENCODING 295
SWIDTH 657 0
DWIDTH 39 0
BBX 35 46 0 0
BITMAP
07FC000000
07FC000000
07FC000000
07FC000000
07FC000000
FFFFFE0000
FFFFFE0000
FFFFFE0000
FFFFFE0000
FFFFFE0000
FFFFFE0000
07F8000000
07F8000000
07F8000000
07F81FE000
07F87FFC00
07F8FFFE00
07F9FFFF00
07FBFFFF80
07FFFFFF80
07FFFFFFC0
07FFC3FFC0
07FF00FFC0
07FE007FC0
07FE007FE0
07FC007FE0
07FC003FE0
07FC003FE0
07FC003FE0
07FC003FE0
07FC003FE0
07FC003FE0
07FC003FE0
07FC003FE0
07FC003FE0
07FC003FE0
07FC003FE0
07FC003FE0
07FC003FE0
07FC003FE0
07FC003FE0
07FC003FE0
07FC003FE0
07FC003FE0
07FC003FE0
07FC003FE0
ENDCHAR
STARTCHAR Itilde
ENCODING 296
SWIDTH 389 0
DWIDTH 23 0
BBX 23 55 0 0
BITMAP
07C01E
1FF01E
3FFC3E
7FFFFE
7FFFFC
FFFFFC
F87FF8
F01FF0
F007C0
000000
000000
000000
3FFFF8
3FFFF8
3FFFF8
3FFFF8
3FFFF8
1FFFF8
07FFC0
01FF00
01FF00
01FF00
01FF00
01FF00
01FF00
01FF00
01FF00
01FF00
01FF00
01FF00
01FF00
01FF00
01FF00
01FF00
01FF00
01FF00
01FF00
01FF00
01FF00
01FF00
01FF00
01FF00
01FF00
01FF00
01FF00
01FF00
01FF00
01FF00
07FFC0
1FFFF8
3FFFF8
3FFFF8
3FFFF8
3FFFF8
3FFFF8
ENDCHAR
STARTCHAR itilde
ENCODING 297
SWIDTH 305 0
DWIDTH 18 0
BBX 24 45 -3 0
BITMAP
07C01F
1FF01F
3FFC3F
3FFFFE
7FFFFE
7FFFFC
FC7FFC
F80FF8
F003E0
000000
000000
000000
00FF80
00FF80
00FF80
00FF80
00FF80
00FF80
00FF80
00FF80
00FF80
00FF80
00FF80
00FF80
00FF80
00FF80
00FF80
00FF80
00FF80
00FF80
00FF80
00FF80
00FF80
00FF80
00FF80
00FF80
00FF80
00FF80
00FF80
00FF80
00FF80
00FF80
00FF80
00FF80
00FF80
ENDCHAR
STARTCHAR Imacron
ENCODING 298
SWIDTH 389 0
DWIDTH 23 0
BBX 19 52 2 0
BITMAP
FFFFE0
FFFFE0
FFFFE0
FFFFE0
FFFFE0
FFFFE0
000000
000000
000000
FFFFE0
FFFFE0
FFFFE0
FFFFE0
FFFFE0
7FFFE0
1FFF00
07FC00
07FC00
07FC00
07FC00
07FC00
07FC00
07FC00
07FC00
07FC00
07FC00
07FC00
07FC00
07FC00
07FC00
07FC00
07FC00
07FC00
07FC00
07FC00
07FC00
07FC00
07FC00
07FC00
07FC00
07FC00
07FC00
07FC00
07FC00
07FC00
1FFF00
7FFFE0
FFFFE0
FFFFE0
FFFFE0
FFFFE0
FFFFE0
ENDCHAR
STARTCHAR imacron
ENCODING 299
SWIDTH 305 0
DWIDTH 18 0
BBX 20 42 -1 0
BITMAP
FFFFF0
FFFFF0
FFFFF0
FFFFF0
FFFFF0
FFFFF0
000000
000000
000000
03FE00
03FE00
03FE00
03FE00
03FE00
03FE00
03FE00
03FE00
03FE00
03FE00
03FE00
03FE00
03FE00
03FE00
03FE00
03FE00
03FE00
03FE00
03FE00
03FE00
03FE00
03FE00
03FE00
03FE00
03FE00
03FE00
03FE00
03FE00
03FE00
03FE00
03FE00
03FE00
03FE00
ENDCHAR
STARTCHAR Ibreve
ENCODING 300
SWIDTH 389 0
DWIDTH 23 0
BBX 23 56 0 0
BITMAP
F8003E
F8007E
FC00FC
7F83FC
7FFFFC
3FFFF8
1FFFF0
0FFFE0
07FFC0
01FE00
000000
000000
000000
3FFFF8
3FFFF8
3FFFF8
3FFFF8
3FFFF8
1FFFF8
07FFC0
01FF00
01FF00
01FF00
01FF00
01FF00
01FF00
01FF00
01FF00
01FF00
01FF00
01FF00
01FF00
01FF00
01FF00
01FF00
01FF00
01FF00
01FF00
01FF00
01FF00
01FF00
01FF00
01FF00
01FF00
01FF00
01FF00
01FF00
01FF00
01FF00
07FFC0
1FFFF8
3FFFF8
3FFFF8
3FFFF8
3FFFF8
3FFFF8
ENDCHAR
STARTCHAR ibreve
ENCODING 301
SWIDTH 305 0
DWIDTH 18 0
BBX 22 46 -2 0
BITMAP
F8007C
F8007C
FC00FC
FF03FC
7FFFF8
7FFFF0
3FFFF0
1FFFE0
0FFF80
01FE00
000000
000000
000000
01FF00
01FF00
01FF00
01FF00
01FF00
01FF00
01FF00
01FF00
01FF00
01FF00
01FF00
01FF00
01FF00
01FF00
01FF00
01FF00
01FF00
01FF00
01FF00
01FF00
01FF00
01FF00
01FF00
01FF00
01FF00
01FF00
01FF00
01FF00
01FF00
01FF00
01FF00
01FF00
01FF00
ENDCHAR
STARTCHAR Iogonek
ENCODING 302
SWIDTH 389 0
DWIDTH 23 0
BBX 19 57 2 -14
BITMAP
FFFFE0
FFFFE0
FFFFE0
FFFFE0
FFFFE0
7FFFE0
1FFF00
07FC00
07FC00
07FC00
07FC00
07FC00
07FC00
07FC00
07FC00
07FC00
07FC00
07FC00
07FC00
07FC00
07FC00
07FC00
07FC00
07FC00
07FC00
07FC00
07FC00
07FC00
07FC00
07FC00
07FC00
07FC00
07FC00
07FC00
07FC00
07FC00
1FFF00
7FFFE0
FFFFE0
FFFFE0
FFFFE0
FFFFE0
FFFFE0
00FC00
01F800
03F000
07E000
07C000
0FC000
0FC000
0FC000
0FF300
0FFF00
07FF00
07FF00
03FF00
00FE00
ENDCHAR
STARTCHAR iogonek
ENCODING 303
SWIDTH 305 0
DWIDTH 18 0
BBX 12 60 3 -14
BITMAP
1F80
3FC0
3FE0
7FE0
7FE0
7FE0
3FE0
3FC0
0F00
0000
0000
0000
0000
3FE0
3FE0
3FE0
3FE0
3FE0
3FE0
3FE0
3FE0
3FE0
3FE0
3FE0
3FE0
3FE0
3FE0
3FE0
3FE0
3FE0
3FE0
3FE0
3FE0
3FE0
3FE0
3FE0
3FE0
3FE0
3FE0
3FE0
3FE0
3FE0
3FE0
3FE0
3FE0
3FE0
0FC0
1F80
3F00
7E00
FC00
FC00
FC00
FC00
FE30
FFF0
FFF0
7FF0
3FF0
0FE0
ENDCHAR
STARTCHAR Idotaccent
ENCODING 304
SWIDTH 389 0
DWIDTH 23 0
BBX 19 56 2 0
BITMAP
01F000
03F800
07FC00
07FC00
07FC00
07FC00
07FC00
03FC00
01F000
000000
000000
000000
000000
FFFFE0
FFFFE0
FFFFE0
FFFFE0
FFFFE0
7FFFE0
1FFF00
07FC00
07FC00
07FC00
07FC00
07FC00
07FC00
07FC00
07FC00
07FC00
07FC00
07FC00
07FC00
07FC00
07FC00
07FC00
07FC00
07FC00
07FC00
07FC00
07FC00
07FC00
07FC00
07FC00
07FC00
07FC00
07FC00
07FC00
07FC00
07FC00
1FFF00
7FFFE0
FFFFE0
FFFFE0
FFFFE0
FFFFE0
FFFFE0
ENDCHAR
STARTCHAR dotlessi
ENCODING 305
SWIDTH 305 0
DWIDTH 18 0
BBX 9 33 5 0
BITMAP
FF80
FF80
FF80
FF80
FF80
FF80
FF80
FF80
FF80
FF80
FF80
FF80
FF80
FF80
FF80
FF80
FF80
FF80
FF80
FF80
FF80
FF80
FF80
FF80
FF80
FF80
FF80
FF80
FF80
FF80
FF80
FF80
FF80
ENDCHAR
STARTCHAR IJ
ENCODING 306
SWIDTH 720 0
DWIDTH 43 0
BBX 36 55 2 -12
BITMAP
FFFFE01FF0
FFFFE01FF0
FFFFE01FF0
FFFFE01FF0
FFFFE01FF0
7FFFE01FF0
1FFF001FF0
07FC001FF0
07FC001FF0
07FC001FF0
07FC001FF0
07FC001FF0
07FC001FF0
07FC001FF0
07FC001FF0
07FC001FF0
07FC001FF0
07FC001FF0
07FC001FF0
07FC001FF0
07FC001FF0
07FC001FF0
07FC001FF0
07FC001FF0
07FC001FF0
07FC001FF0
07FC001FF0
07FC001FF0
07FC001FF0
07FC001FF0
07FC001FF0
07FC001FF0
07FC001FF0
07FC001FF0
07FC001FF0
07FC001FF0
1FFF001FF0
7FFFE01FF0
FFFFE01FF0
FFFFE01FF0
FFFFE01FF0
FFFFE01FF0
FFFFE01FF0
0000003FF0
0000003FE0
0000007FE0
000000FFE0
00007FFFE0
00007FFFC0
00007FFFC0
00007FFF80
00007FFF00
00007FFE00
00007FF800
00003FE000
ENDCHAR
STARTCHAR ij
ENCODING 307
SWIDTH 590 0
DWIDTH 35 0
BBX 27 60 4 -14
BITMAP
3F000F80
7F803FC0
7FC03FE0
FFC07FE0
FFC07FE0
FFC07FE0
7FC03FE0
7F803FC0
1E000F00
00000000
00000000
00000000
00000000
7FC03FE0
7FC03FE0
7FC03FE0
7FC03FE0
7FC03FE0
7FC03FE0
7FC03FE0
7FC03FE0
7FC03FE0
7FC03FE0
7FC03FE0
7FC03FE0
7FC03FE0
7FC03FE0
7FC03FE0
7FC03FE0
7FC03FE0
7FC03FE0
7FC03FE0
7FC03FE0
7FC03FE0
7FC03FE0
7FC03FE0
7FC03FE0
7FC03FE0
7FC03FE0
7FC03FE0
7FC03FE0
7FC03FE0
7FC03FE0
7FC03FE0
7FC03FE0
7FC03FE0
00003FE0
00003FE0
00003FE0
00003FE0
00007FE0
00007FE0
0061FFC0
007FFFC0
007FFFC0
007FFF80
007FFF00
007FFE00
007FFC00
003FE000
ENDCHAR
STARTCHAR Jcircumflex
ENCODING 308
SWIDTH 331 0
DWIDTH 20 0
BBX 26 68 -4 -12
BITMAP
00FFE000
00FFF000
01FFF800
03FFF800
07FFFC00
07F9FE00
0FF0FF00
1FE07F80
3F803FC0
7F000FC0
00000000
00000000
00000000
007FE000
007FE000
007FE000
007FE000
007FE000
007FE000
007FE000
007FE000
007FE000
007FE000
007FE000
007FE000
007FE000
007FE000
007FE000
007FE000
007FE000
007FE000
007FE000
007FE000
007FE000
007FE000
007FE000
007FE000
007FE000
007FE000
007FE000
007FE000
007FE000
007FE000
007FE000
007FE000
007FE000
007FE000
007FE000
007FE000
007FE000
007FE000
007FE000
007FE000
007FC000
007FC000
007FC000
007FC000
007FC000
00FFC000
01FFC000
FFFF8000
FFFF8000
FFFF0000
FFFF0000
FFFE0000
FFFC0000
FFF00000
FF800000
ENDCHAR
STARTCHAR jcircumflex
ENCODING 309
SWIDTH 305 0
DWIDTH 18 0
BBX 25 60 -4 -14
BITMAP
01FFC000
01FFE000
03FFF000
07FFF000
0FFFF800
0FF3FC00
1FE1FE00
3FC0FF00
7F007F80
FE001F80
00000000
00000000
00000000
007FC000
007FC000
007FC000
007FC000
007FC000
007FC000
007FC000
007FC000
007FC000
007FC000
007FC000
007FC000
007FC000
007FC000
007FC000
007FC000
007FC000
007FC000
007FC000
007FC000
007FC000
007FC000
007FC000
007FC000
007FC000
007FC000
007FC000
007FC000
007FC000
007FC000
007FC000
007FC000
007FC000
007FC000
007FC000
007FC000
00FFC000
00FF8000
00FF8000
83FF8000
FFFF8000
FFFF0000
FFFF0000
FFFE0000
FFFC0000
FFF80000
7FC00000
ENDCHAR
STARTCHAR uni0136
ENCODING 310
SWIDTH 664 0
DWIDTH 40 0
BBX 35 57 5 -14
BITMAP
FF8000FFE0
FF8000FFC0
FF8001FF80
FF8003FF00
FF8007FE00
FF800FFE00
FF800FFC00
FF801FF800
FF803FF000
FF807FE000
FF80FFE000
FF80FFC000
FF81FF8000
FF83FF0000
FF87FE0000
FF8FFE0000
FF8FFC0000
FF9FF80000
FFBFF00000
FFBFF00000
FFFFF80000
FFFFF80000
FFFFFC0000
FFFFFE0000
FFFFFE0000
FFFBFF0000
FFE3FF8000
FFC1FF8000
FF80FFC000
FF80FFC000
FF807FE000
FF807FF000
FF803FF000
FF801FF800
FF801FFC00
FF800FFC00
FF8007FE00
FF8007FF00
FF8003FF00
FF8003FF80
FF8001FF80
FF8000FFC0
FF8000FFE0
0000000000
0000000000
0000000000
0000000000
000FF00000
001FF00000
001FE00000
001FE00000
001FC00000
001FC00000
003F800000
003F800000
003F000000
003E000000
ENDCHAR
STARTCHAR uni0137
ENCODING 311
SWIDTH 620 0
DWIDTH 37 0
BBX 32 60 5 -14
BITMAP
FF800000
FF800000
FF800000
FF800000
FF800000
FF800000
FF800000
FF800000
FF800000
FF800000
FF800000
FF800000
FF800000
FF8007FE
FF800FFC
FF801FF8
FF803FF0
FF807FE0
FF80FFC0
FF81FF80
FF83FF00
FF83FF00
FF07FE00
FF0FFC00
FF1FF800
FF3FF000
FF7FE000
FF7FC000
FFFFE000
FFFFF000
FFFFF800
FFFFF800
FFFFFC00
FFE7FE00
FFC3FF00
FF83FF00
FF81FF80
FF80FFC0
FF80FFC0
FF807FE0
FF803FF0
FF801FF8
FF801FF8
FF800FFC
FF8007FE
FF8007FF
00000000
00000000
00000000
00000000
003FE000
003FC000
003FC000
003F8000
003F8000
003F0000
007F0000
007E0000
007E0000
007C0000
ENDCHAR
STARTCHAR kgreenlandic
ENCODING 312
SWIDTH 620 0
DWIDTH 37 0
BBX 32 33 5 0
BITMAP
FF8007FE
FF800FFC
FF800FF8
FF801FF0
FF803FE0
FF807FE0
FF80FFC0
FF81FF80
FF81FF00
FF83FE00
FF87FC00
FF8FFC00
FF9FF800
FFBFF000
FF3FE000
FF7FE000
FFFFE000
FFFFF000
FFFFF800
FFFFFC00
FFFFFE00
FFE7FE00
FFC3FF00
FF81FF80
FF80FFC0
FF80FFC0
FF807FE0
FF803FF0
FF801FF8
FF801FF8
FF800FFC
FF8007FE
FF8007FF
ENDCHAR
STARTCHAR Lacute
ENCODING 313
SWIDTH 564 0
DWIDTH 34 0
BBX 27 56 5 0
BITMAP
007FE000
007FE000
00FF8000
01FF0000
03FE0000
03FC0000
07F80000
0FF00000
1FC00000
1F800000
00000000
00000000
00000000
FF800000
FF800000
FF800000
FF800000
FF800000
FF800000
FF800000
FF800000
FF800000
FF800000
FF800000
FF800000
FF800000
FF800000
FF800000
FF800000
FF800000
FF800000
FF800000
FF800000
FF800000
FF800000
FF800000
FF800000
FF800000
FF800000
FF800000
FF800000
FF800000
FF800000
FF800000
FF800000
FF800000
FF800000
FF800000
FFFFFFE0
FFFFFFE0
FFFFFFE0
FFFFFFE0
FFFFFFE0
FFFFFFE0
FFFFFFE0
FFFFFFE0
ENDCHAR
STARTCHAR lacute
ENCODING 314
SWIDTH 305 0
DWIDTH 18 0
BBX 17 58 5 0
BITMAP
01FF80
03FF00
07FE00
07FC00
0FF800
1FF000
3FC000
7F8000
7F0000
FE0000
000000
000000
FF8000
FF8000
FF8000
FF8000
FF8000
FF8000
FF8000
FF8000
FF8000
FF8000
FF8000
FF8000
FF8000
FF8000
FF8000
FF8000
FF8000
FF8000
FF8000
FF8000
FF8000
FF8000
FF8000
FF8000
FF8000
FF8000
FF8000
FF8000
FF8000
FF8000
FF8000
FF8000
FF8000
FF8000
FF8000
FF8000
FF8000
FF8000
FF8000
FF8000
FF8000
FF8000
FF8000
FF8000
FF8000
FF8000
ENDCHAR
STARTCHAR uni013B
ENCODING 315
SWIDTH 564 0
DWIDTH 34 0
BBX 27 57 5 -14
BITMAP
FF800000
FF800000
FF800000
FF800000
FF800000
FF800000
FF800000
FF800000
FF800000
FF800000
FF800000
FF800000
FF800000
FF800000
FF800000
FF800000
FF800000
FF800000
FF800000
FF800000
FF800000
FF800000
FF800000
FF800000
FF800000
FF800000
FF800000
FF800000
FF800000
FF800000
FF800000
FF800000
FF800000
FF800000
FF800000
FFFFFFE0
FFFFFFE0
FFFFFFE0
FFFFFFE0
FFFFFFE0
FFFFFFE0
FFFFFFE0
FFFFFFE0
00000000
00000000
00000000
00000000
007FC000
007F8000
007F8000
007F0000
00FF0000
00FE0000
00FE0000
00FC0000
00FC0000
01F80000
ENDCHAR
STARTCHAR uni013C
ENCODING 316
SWIDTH 305 0
DWIDTH 18 0
BBX 11 60 3 -14
BITMAP
3FE0
3FE0
3FE0
3FE0
3FE0
3FE0
3FE0
3FE0
3FE0
3FE0
3FE0
3FE0
3FE0
3FE0
3FE0
3FE0
3FE0
3FE0
3FE0
3FE0
3FE0
3FE0
3FE0
3FE0
3FE0
3FE0
3FE0
3FE0
3FE0
3FE0
3FE0
3FE0
3FE0
3FE0
3FE0
3FE0
3FE0
3FE0
3FE0
3FE0
3FE0
3FE0
3FE0
3FE0
3FE0
3FE0
0000
0000
0000
0000
3FC0
7FC0
7F80
7F80
7F00
7F00
7E00
FE00
FC00
F800
ENDCHAR
STARTCHAR Lcaron
ENCODING 317
SWIDTH 564 0
DWIDTH 34 0
BBX 27 43 5 0
BITMAP
FF803FC0
FF803FC0
FF803F80
FF807F80
FF807F00
FF807F00
FF807E00
FF807E00
FF80FC00
FF80FC00
FF800000
FF800000
FF800000
FF800000
FF800000
FF800000
FF800000
FF800000
FF800000
FF800000
FF800000
FF800000
FF800000
FF800000
FF800000
FF800000
FF800000
FF800000
FF800000
FF800000
FF800000
FF800000
FF800000
FF800000
FF800000
FFFFFFE0
FFFFFFE0
FFFFFFE0
FFFFFFE0
FFFFFFE0
FFFFFFE0
FFFFFFE0
FFFFFFE0
ENDCHAR
STARTCHAR lcaron
ENCODING 318
SWIDTH 305 0
DWIDTH 18 0
BBX 21 46 5 0
BITMAP
FF87F8
FF87F8
FF87F8
FF87F0
FF8FF0
FF8FE0
FF8FE0
FF8FC0
FF9F80
FF9F80
FF8000
FF8000
FF8000
FF8000
FF8000
FF8000
FF8000
FF8000
FF8000
FF8000
FF8000
FF8000
FF8000
FF8000
FF8000
FF8000
FF8000
FF8000
FF8000
FF8000
FF8000
FF8000
FF8000
FF8000
FF8000
FF8000
FF8000
FF8000
FF8000
FF8000
FF8000
FF8000
FF8000
FF8000
FF8000
FF8000
ENDCHAR
STARTCHAR Ldot
ENCODING 319
SWIDTH 564 0
DWIDTH 34 0
BBX 27 43 5 0
BITMAP
FF800000
FF800000
FF800000
FF800000
FF800000
FF800000
FF800000
FF800000
FF800000
FF800000
FF800000
FF800000
FF800000
FF800000
FF800000
FF800000
FF803E00
FF807F00
FF80FF80
FF80FF80
FF80FF80
FF80FF80
FF80FF80
FF80FF00
FF803E00
FF800000
FF800000
FF800000
FF800000
FF800000
FF800000
FF800000
FF800000
FF800000
FF800000
FFFFFFE0
FFFFFFE0
FFFFFFE0
FFFFFFE0
FFFFFFE0
FFFFFFE0
FFFFFFE0
FFFFFFE0
ENDCHAR
STARTCHAR ldot
ENCODING 320
SWIDTH 428 0
DWIDTH 26 0
BBX 22 46 5 0
BITMAP
FF8000
FF8000
FF8000
FF8000
FF8000
FF8000
FF8000
FF8000
FF8000
FF8000
FF8000
FF8000
FF8000
FF8000
FF8000
FF8000
FF8000
FF8000
FF8000
FF8000
FF8000
FF81E0
FF87F8
FF8FF8
FF8FFC
FF8FFC
FF8FFC
FF8FFC
FF87F8
FF83F0
FF8000
FF8000
FF8000
FF8000
FF8000
FF8000
FF8000
FF8000
FF8000
FF8000
FF8000
FF8000
FF8000
FF8000
FF8000
FF8000
ENDCHAR
STARTCHAR Lslash
ENCODING 321
SWIDTH 564 0
DWIDTH 34 0
BBX 32 43 0 0
BITMAP
07FC0000
07FC0000
07FC0000
07FC0000
07FC0000
07FC0000
07FC0000
07FC0000
07FC0000
07FC0000
07FC0000
07FC0000
07FC0000
07FC2000
07FCF000
07FDF000
07FFF800
07FFF800
07FFFC00
07FFF800
07FFE000
07FFC000
1FFF0000
7FFC0000
FFFC0000
7FFC0000
7FFC0000
3FFC0000
1FFC0000
17FC0000
07FC0000
07FC0000
07FC0000
07FC0000
07FC0000
07FFFFFF
07FFFFFF
07FFFFFF
07FFFFFF
07FFFFFF
07FFFFFF
07FFFFFF
07FFFFFF
ENDCHAR
STARTCHAR lslash
ENCODING 322
SWIDTH 305 0
DWIDTH 18 0
BBX 20 46 -1 0
BITMAP
03FE00
03FE00
03FE00
03FE00
03FE00
03FE00
03FE00
03FE00
03FE00
03FE00
03FE00
03FE00
03FE00
03FE00
03FE00
03FE00
03FE00
03FE80
03FF80
03FFC0
03FFC0
03FFE0
03FFF0
03FFE0
07FF80
1FFF00
7FFE00
FFFE00
7FFE00
3FFE00
3FFE00
1FFE00
13FE00
03FE00
03FE00
03FE00
03FE00
03FE00
03FE00
03FE00
03FE00
03FE00
03FE00
03FE00
03FE00
03FE00
ENDCHAR
STARTCHAR Nacute
ENCODING 323
SWIDTH 812 0
DWIDTH 49 0
BBX 39 56 5 0
BITMAP
000003FF00
000007FE00
00000FFC00
00000FF800
00001FF000
00003FE000
00007F8000
0000FF0000
0000FE0000
0001FC0000
0000000000
0000000000
0000000000
FFF00003FE
FFF80003FE
FFF80003FE
FFFC0003FE
FFFE0003FE
FFFE0003FE
FFFF0003FE
FFFF0003FE
FFFF8003FE
FFFF8003FE
FFFFC003FE
FF7FE003FE
FF7FE003FE
FF3FF003FE
FF1FF003FE
FF1FF803FE
FF0FFC03FE
FF0FFC03FE
FF07FE03FE
FF07FE03FE
FF03FF03FE
FF81FF03FE
FF81FF83FE
FF80FFC3FE
FF80FFC3FE
FF807FE3FE
FF807FE1FE
FF803FF1FE
FF801FF1FE
FF801FF9FE
FF800FFDFE
FF800FFDFE
FF8007FFFE
FF8007FFFE
FF8003FFFE
FF8001FFFE
FF8001FFFE
FF8000FFFE
FF8000FFFE
FF80007FFE
FF80003FFE
FF80003FFE
FF80001FFE
ENDCHAR
STARTCHAR nacute
ENCODING 324
SWIDTH 657 0
DWIDTH 39 0
BBX 30 46 5 0
BITMAP
0000FFC0
0001FF80
0001FF00
0003FE00
0007FC00
000FF800
000FF000
001FE000
003F8000
003F0000
00000000
00000000
0003FC00
FE0FFF80
FE3FFFC0
FE7FFFE0
FFFFFFF0
FFFFFFF0
FFFFFFF8
FFF87FF8
FFE01FF8
FFC00FF8
FFC00FFC
FF800FFC
FF8007FC
FF8007FC
FF8007FC
FF8007FC
FF8007FC
FF0007FC
FF0007FC
FF0007FC
FF0007FC
FF0007FC
FF0007FC
FF0007FC
FF0007FC
FF0007FC
FF0007FC
FF0007FC
FF0007FC
FF0007FC
FF0007FC
FF0007FC
FF0007FC
FF0007FC
ENDCHAR
STARTCHAR uni0145
ENCODING 325
SWIDTH 812 0
DWIDTH 49 0
BBX 39 57 5 -14
BITMAP
FFF00003FE
FFF80003FE
FFF80003FE
FFFC0003FE
FFFE0003FE
FFFE0003FE
FFFF0003FE
FFFF0003FE
FFFF8003FE
FFFF8003FE
FFFFC003FE
FF7FE003FE
FF7FE003FE
FF3FF003FE
FF1FF003FE
FF1FF803FE
FF0FFC03FE
FF0FFC03FE
FF07FE03FE
FF07FE03FE
FF03FF03FE
FF81FF03FE
FF81FF83FE
FF80FFC3FE
FF80FFC3FE
FF807FE3FE
FF807FE1FE
FF803FF1FE
FF801FF1FE
FF801FF9FE
FF800FFDFE
FF800FFDFE
FF8007FFFE
FF8007FFFE
FF8003FFFE
FF8001FFFE
FF8001FFFE
FF8000FFFE
FF8000FFFE
FF80007FFE
FF80003FFE
FF80003FFE
FF80001FFE
0000000000
0000000000
0000000000
0000000000
0003FE0000
0003FC0000
0003FC0000
0003F80000
0003F80000
0007F00000
0007F00000
0007E00000
0007E00000
0007C00000
ENDCHAR
STARTCHAR uni0146
ENCODING 326
SWIDTH 657 0
DWIDTH 39 0
BBX 30 48 5 -14
BITMAP
0003FC00
FE0FFF80
FE3FFFC0
FE7FFFE0
FFFFFFF0
FFFFFFF0
FFFFFFF8
FFF87FF8
FFE01FF8
FFC00FF8
FFC00FFC
FF800FFC
FF8007FC
FF8007FC
FF8007FC
FF8007FC
FF8007FC
FF0007FC
FF0007FC
FF0007FC
FF0007FC
FF0007FC
FF0007FC
FF0007FC
FF0007FC
FF0007FC
FF0007FC
FF0007FC
FF0007FC
FF0007FC
FF0007FC
FF0007FC
FF0007FC
FF0007FC
00000000
00000000
00000000
00000000
003FE000
003FC000
003FC000
003F8000
003F8000
003F0000
007F0000
007E0000
007E0000
007C0000
ENDCHAR
STARTCHAR Ncaron
ENCODING 327
SWIDTH 812 0
DWIDTH 49 0
BBX 39 56 5 0
BITMAP
00FE001FC0
007F007F80
003FC0FF00
001FE1FE00
000FF3FC00
000FFFF800
0007FFF800
0003FFF000
0001FFE000
0001FFC000
0000000000
0000000000
0000000000
FFF00003FE
FFF80003FE
FFF80003FE
FFFC0003FE
FFFE0003FE
FFFE0003FE
FFFF0003FE
FFFF0003FE
FFFF8003FE
FFFF8003FE
FFFFC003FE
FF7FE003FE
FF7FE003FE
FF3FF003FE
FF1FF003FE
FF1FF803FE
FF0FFC03FE
FF0FFC03FE
FF07FE03FE
FF07FE03FE
FF03FF03FE
FF81FF03FE
FF81FF83FE
FF80FFC3FE
FF80FFC3FE
FF807FE3FE
FF807FE1FE
FF803FF1FE
FF801FF1FE
FF801FF9FE
FF800FFDFE
FF800FFDFE
FF8007FFFE
FF8007FFFE
FF8003FFFE
FF8001FFFE
FF8001FFFE
FF8000FFFE
FF8000FFFE
FF80007FFE
FF80003FFE
FF80003FFE
FF80001FFE
ENDCHAR
STARTCHAR ncaron
ENCODING 328
SWIDTH 657 0
DWIDTH 39 0
BBX 30 46 5 0
BITMAP
1F8007F0
1FE00FE0
0FF03FC0
07F87F80
03FCFF80
01FFFF00
00FFFE00
00FFFC00
007FF800
003FF800
00000000
00000000
0003FC00
FE0FFF80
FE3FFFC0
FE7FFFE0
FFFFFFF0
FFFFFFF0
FFFFFFF8
FFF87FF8
FFE01FF8
FFC00FF8
FFC00FFC
FF800FFC
FF8007FC
FF8007FC
FF8007FC
FF8007FC
FF8007FC
FF0007FC
FF0007FC
FF0007FC
FF0007FC
FF0007FC
FF0007FC
FF0007FC
FF0007FC
FF0007FC
FF0007FC
FF0007FC
FF0007FC
FF0007FC
FF0007FC
FF0007FC
FF0007FC
FF0007FC
ENDCHAR
STARTCHAR napostrophe
ENCODING 329
SWIDTH 778 0
DWIDTH 47 0
BBX 42 43 0 0
BITMAP
1FF000000000
1FF000000000
1FE000000000
1FE000000000
3FE000000000
3FC000000000
3FC000000000
3FC000000000
3F8000000000
7F80001FE000
7F0FE0FFF800
7F0FE1FFFC00
7F0FF3FFFE00
FE0FF7FFFF00
FE0FFFFFFF80
000FFFFFFF80
000FFFC3FF80
000FFF01FFC0
000FFE00FFC0
000FFC00FFC0
000FFC007FC0
000FF8007FC0
000FF8007FC0
000FF8007FC0
000FF8007FC0
000FF8007FC0
000FF8007FC0
000FF8007FC0
000FF8007FC0
000FF8007FC0
000FF8007FC0
000FF8007FC0
000FF8007FC0
000FF8007FC0
000FF8007FC0
000FF8007FC0
000FF8007FC0
000FF8007FC0
000FF8007FC0
000FF8007FC0
000FF8007FC0
000FF8007FC0
000FF8007FC0
ENDCHAR
STARTCHAR Eng
ENCODING 330
SWIDTH 812 0
DWIDTH 49 0
BBX 39 55 5 -12
BITMAP
FFF00003FE
FFF80003FE
FFFC0003FE
FFFC0003FE
FFFE0003FE
FFFF0003FE
FFFF8003FE
FFFF8003FE
FFFFC003FE
FFFFE003FE
FFFFE003FE
FF7FF003FE
FF3FF803FE
FF3FF803FE
FF1FFC03FE
FF0FFE03FE
FF0FFF03FE
FF07FF03FE
FF03FF83FE
FF03FFC3FE
FF01FFC1FE
FF80FFE1FE
FF807FF1FE
FF807FF9FE
FF803FF9FE
FF801FFDFE
FF801FFFFE
FF800FFFFE
FF8007FFFE
FF8007FFFE
FF8003FFFE
FF8001FFFE
FF8001FFFE
FF8000FFFE
FF80007FFE
FF80003FFE
FF80003FFE
FF80001FFE
FF80000FFE
FF80000FFE
FF800007FE
FF800003FE
FF800003FE
00000001FE
00000003FC
00000003FC
00000007FC
0000181FFC
00001FFFF8
00001FFFF8
00001FFFF0
00001FFFE0
00001FFFC0
00001FFF00
00000FFC00
ENDCHAR
STARTCHAR eng
ENCODING 331
SWIDTH 657 0
DWIDTH 39 0
BBX 30 48 5 -14
BITMAP
0003FC00
FE0FFF80
FE3FFFC0
FE7FFFE0
FFFFFFF0
FFFFFFF0
FFFFFFF8
FFF87FF8
FFE01FF8
FFC00FF8
FFC00FFC
FF8007FC
FF8007FC
FF8007FC
FF8007FC
FF8007FC
FF8007FC
FF0007FC
FF0007FC
FF0007FC
FF0007FC
FF0007FC
FF0007FC
FF0007FC
FF0007FC
FF0007FC
FF0007FC
FF0007FC
FF0007FC
FF0007FC
FF0007FC
FF0007FC
FF0007FC
FF0007FC
000007FC
000007FC
000007FC
000007FC
00000FFC
00000FF8
00021FF8
0003FFF8
0003FFF8
0003FFF0
0003FFE0
0003FFE0
0003FF80
0001FE00
ENDCHAR
STARTCHAR Omacron
ENCODING 332
SWIDTH 795 0
DWIDTH 48 0
BBX 41 53 3 -1
BITMAP
000FFFFF0000
000FFFFF0000
000FFFFF0000
000FFFFF0000
000FFFFF0000
000FFFFF0000
000000000000
000000000000
0000FFC00000
000FFFFC0000
003FFFFF0000
00FFFFFFC000
01FFFFFFE000
03FFFFFFF000
07FFFFFFF800
0FFFFFFFFC00
0FFF003FFC00
1FFE001FFE00
1FFC0007FE00
3FF80007FF00
3FF00003FF00
3FF00003FF00
7FE00001FF80
7FE00001FF80
7FE00001FF80
7FC00000FF80
7FC00000FF80
7FC00000FF80
7FC00000FF80
FFC00000FF80
FFC00000FF80
7FC00000FF80
7FC00000FF80
7FC00000FF80
7FC00000FF80
7FC00000FF80
7FE00001FF80
7FE00001FF80
7FE00001FF80
3FF00003FF00
3FF00003FF00
3FF80007FF00
1FF8000FFE00
1FFE001FFE00
0FFF003FFC00
0FFFFFFFF800
07FFFFFFF800
03FFFFFFF000
01FFFFFFE000
00FFFFFF8000
003FFFFF0000
000FFFFC0000
0000FFE00000
ENDCHAR
STARTCHAR omacron
ENCODING 333
SWIDTH 619 0
DWIDTH 37 0
BBX 31 43 3 -1
BITMAP
03FFFF80
03FFFF80
03FFFF80
03FFFF80
03FFFF80
03FFFF80
00000000
00000000
001FF000
00FFFE00
03FFFF80
07FFFFC0
0FFFFFE0
1FFFFFF0
3FFFFFF0
3FF83FF8
7FE00FFC
7FE00FFC
7FC007FC
FFC007FE
FF8003FE
FF8003FE
FF8003FE
FF8003FE
FF8003FE
FF8003FE
FF8003FE
FF8003FE
FF8003FE
FF8003FE
FF8003FE
FFC007FE
7FC007FC
7FE00FFC
7FE00FFC
3FF83FF8
1FFFFFF8
1FFFFFF0
0FFFFFE0
07FFFFC0
01FFFF80
00FFFE00
001FF000
ENDCHAR
STARTCHAR Obreve
ENCODING 334
SWIDTH 795 0
DWIDTH 48 0
BBX 41 57 3 -1
BITMAP
003E000F8000
003F000F8000
001F001F8000
001FE0FF0000
001FFFFF0000
000FFFFE0000
0007FFFC0000
0003FFF80000
0001FFF00000
00003F800000
000000000000
000000000000
0000FFC00000
000FFFFC0000
003FFFFF0000
00FFFFFFC000
01FFFFFFE000
03FFFFFFF000
07FFFFFFF800
0FFFFFFFFC00
0FFF003FFC00
1FFE001FFE00
1FFC0007FE00
3FF80007FF00
3FF00003FF00
3FF00003FF00
7FE00001FF80
7FE00001FF80
7FE00001FF80
7FC00000FF80
7FC00000FF80
7FC00000FF80
7FC00000FF80
FFC00000FF80
FFC00000FF80
7FC00000FF80
7FC00000FF80
7FC00000FF80
7FC00000FF80
7FC00000FF80
7FE00001FF80
7FE00001FF80
7FE00001FF80
3FF00003FF00
3FF00003FF00
3FF80007FF00
1FF8000FFE00
1FFE001FFE00
0FFF003FFC00
0FFFFFFFF800
07FFFFFFF800
03FFFFFFF000
01FFFFFFE000
00FFFFFF8000
003FFFFF0000
000FFFFC0000
0000FFE00000
ENDCHAR
STARTCHAR obreve
ENCODING 335
SWIDTH 619 0
DWIDTH 37 0
BBX 31 47 3 -1
BITMAP
0F8003E0
0F8007E0
0FC00FC0
07F83FC0
07FFFF80
03FFFF80
03FFFF00
01FFFE00
007FF800
001FE000
00000000
00000000
001FF000
00FFFE00
03FFFF80
07FFFFC0
0FFFFFE0
1FFFFFF0
3FFFFFF0
3FF83FF8
7FE00FFC
7FE00FFC
7FC007FC
FFC007FE
FF8003FE
FF8003FE
FF8003FE
FF8003FE
FF8003FE
FF8003FE
FF8003FE
FF8003FE
FF8003FE
FF8003FE
FF8003FE
FFC007FE
7FC007FC
7FE00FFC
7FE00FFC
3FF83FF8
1FFFFFF8
1FFFFFF0
0FFFFFE0
07FFFFC0
01FFFF80
00FFFE00
001FF000
ENDCHAR
STARTCHAR Ohungarumlaut
ENCODING 336
SWIDTH 795 0
DWIDTH 48 0
BBX 41 57 3 -1
BITMAP
0000FF8FF800
0000FF9FF000
0001FF1FF000
0001FE3FE000
0003FC3FC000
0007F87F8000
0007F0FE0000
000FE0FC0000
001F81F80000
001F01F00000
000000000000
000000000000
0000FFC00000
000FFFFC0000
003FFFFF0000
00FFFFFFC000
01FFFFFFE000
03FFFFFFF000
07FFFFFFF800
0FFFFFFFFC00
0FFF003FFC00
1FFE001FFE00
1FFC0007FE00
3FF80007FF00
3FF00003FF00
3FF00003FF00
7FE00001FF80
7FE00001FF80
7FE00001FF80
7FC00000FF80
7FC00000FF80
7FC00000FF80
7FC00000FF80
FFC00000FF80
FFC00000FF80
7FC00000FF80
7FC00000FF80
7FC00000FF80
7FC00000FF80
7FC00000FF80
7FE00001FF80
7FE00001FF80
7FE00001FF80
3FF00003FF00
3FF00003FF00
3FF80007FF00
1FF8000FFE00
1FFE001FFE00
0FFF003FFC00
0FFFFFFFF800
07FFFFFFF800
03FFFFFFF000
01FFFFFFE000
00FFFFFF8000
003FFFFF0000
000FFFFC0000
0000FFE00000
ENDCHAR
STARTCHAR ohungarumlaut
ENCODING 337
SWIDTH 619 0
DWIDTH 37 0
BBX 31 47 3 -1
BITMAP
001FF3FE
003FE3FE
007FC7FC
007F8FF8
00FF0FF0
00FE1FE0
01FC3FC0
03F83F00
03F07E00
07C07C00
00000000
00000000
001FF000
00FFFE00
03FFFF80
07FFFFC0
0FFFFFE0
1FFFFFF0
3FFFFFF0
3FF83FF8
7FE00FFC
7FE00FFC
7FC007FC
FFC007FE
FF8003FE
FF8003FE
FF8003FE
FF8003FE
FF8003FE
FF8003FE
FF8003FE
FF8003FE
FF8003FE
FF8003FE
FF8003FE
FFC007FE
7FC007FC
7FE00FFC
7FE00FFC
3FF83FF8
1FFFFFF8
1FFFFFF0
0FFFFFE0
07FFFFC0
01FFFF80
00FFFE00
001FF000
ENDCHAR
STARTCHAR OE
ENCODING 338
SWIDTH 973 0
DWIDTH 58 0
BBX 51 44 3 0
BITMAP
0001FF00000000
001FFFFFFFFFE0
007FFFFFFFFFE0
00FFFFFFFFFFE0
01FFFFFFFFFFE0
03FFFFFFFFFFE0
07FFFFFFFFFFE0
0FFFFFFFFFFFE0
1FFE007FE00000
1FFC003FE00000
3FF8003FE00000
3FF0003FE00000
3FF0003FE00000
7FE0003FE00000
7FE0003FE00000
7FC0003FE00000
7FC0003FE00000
7FC0003FE00000
7FC0003FFFFFC0
7FC0003FFFFFC0
FFC0003FFFFFC0
FFC0003FFFFFC0
FFC0003FFFFFC0
FFC0003FFFFFC0
7FC0003FFFFFC0
7FC0003FE00000
7FC0003FE00000
7FC0003FE00000
7FC0003FE00000
7FE0003FE00000
7FE0003FE00000
3FF0003FE00000
3FF0003FE00000
3FF8003FE00000
1FFC003FE00000
1FFE007FE00000
0FFFFFFFFFFFE0
07FFFFFFFFFFE0
03FFFFFFFFFFE0
01FFFFFFFFFFE0
00FFFFFFFFFFE0
007FFFFFFFFFE0
001FFFFFFFFFE0
0001FFFFFFFFE0
ENDCHAR
STARTCHAR oe
ENCODING 339
SWIDTH 978 0
DWIDTH 59 0
BBX 53 35 3 -1
BITMAP
001FF0003FE000
00FFFE01FFFC00
03FFFF07FFFE00
07FFFFCFFFFF80
0FFFFFFFFFFFC0
1FFFFFFFFFFFE0
3FFFFFFFFCFFE0
3FFC3FFFE03FF0
7FE00FFFC01FF0
7FE007FF800FF8
7FC007FF000FF8
FFC003FF0007F8
FF8003FF0007F8
FF8003FF0007F8
FF8003FFFFFFF8
FF8003FFFFFFF8
FF8003FFFFFFF8
FF8003FFFFFFF8
FF8003FFFFFFF8
FF8003FFFFFFF8
FF8003FE000000
FF8003FF000000
FF8003FF000000
FFC003FF000000
7FC007FF000000
7FE007FF800000
3FF00FFFC00020
3FFC3FFFF001E0
1FFFFFFFFFFFE0
1FFFFFFFFFFFE0
0FFFFFFFFFFFE0
07FFFFCFFFFFE0
01FFFF83FFFFE0
00FFFE00FFFFC0
001FF0001FFC00
ENDCHAR
STARTCHAR Racute
ENCODING 340
SWIDTH 660 0
DWIDTH 40 0
BBX 35 56 5 0
BITMAP
0000FFE000
0000FFC000
0001FF8000
0003FF0000
0003FC0000
0007F80000
000FF00000
001FE00000
003FC00000
003F000000
0000000000
0000000000
0000000000
FFFFE00000
FFFFFE0000
FFFFFF8000
FFFFFFC000
FFFFFFE000
FFFFFFF000
FFFFFFF800
FFC7FFF800
FFC03FFC00
FFC00FFC00
FFC007FC00
FFC007FC00
FFC007FC00
FFC007FC00
FFC007FC00
FFC007FC00
FFC00FFC00
FFC01FF800
FFC07FF800
FFFFFFF000
FFFFFFE000
FFFFFFC000
FFFFFF8000
FFFFFF0000
FFFFFC0000
FFFFFE0000
FFC3FF0000
FFC1FF8000
FFC0FF8000
FFC0FFC000
FFC07FE000
FFC03FE000
FFC03FF000
FFC01FF800
FFC01FF800
FFC00FFC00
FFC007FE00
FFC007FE00
FFC003FF00
FFC001FF80
FFC001FF80
FFC000FFC0
FFC000FFE0
ENDCHAR
STARTCHAR racute
ENCODING 341
SWIDTH 454 0
DWIDTH 27 0
BBX 22 46 5 0
BITMAP
001FFC
001FF8
003FF0
007FC0
00FF80
00FF00
01FE00
03FC00
07F800
07E000
000000
000000
0001F8
FE07F8
FE1FF8
FE3FF8
FE7FF0
FF7FF0
FFFFF0
FFFFF0
FFFE10
FFF000
FFE000
FFC000
FF8000
FF8000
FF8000
FF8000
FF8000
FF8000
FF8000
FF8000
FF8000
FF8000
FF8000
FF8000
FF8000
FF8000
FF8000
FF8000
FF8000
FF8000
FF8000
FF8000
FF8000
FF8000
ENDCHAR
STARTCHAR uni0156
ENCODING 342
SWIDTH 660 0
DWIDTH 40 0
BBX 35 57 5 -14
BITMAP
FFFFE00000
FFFFFE0000
FFFFFF8000
FFFFFFC000
FFFFFFE000
FFFFFFF000
FFFFFFF800
FFC7FFF800
FFC03FFC00
FFC00FFC00
FFC007FC00
FFC007FC00
FFC007FC00
FFC007FC00
FFC007FC00
FFC007FC00
FFC00FFC00
FFC01FF800
FFC07FF800
FFFFFFF000
FFFFFFE000
FFFFFFC000
FFFFFF8000
FFFFFF0000
FFFFFC0000
FFFFFE0000
FFC3FF0000
FFC1FF8000
FFC0FF8000
FFC0FFC000
FFC07FE000
FFC03FE000
FFC03FF000
FFC01FF800
FFC01FF800
FFC00FFC00
FFC007FE00
FFC007FE00
FFC003FF00
FFC001FF80
FFC001FF80
FFC000FFC0
FFC000FFE0
0000000000
0000000000
0000000000
0000000000
000FF80000
000FF00000
000FF00000
000FE00000
000FE00000
001FC00000
001FC00000
001F800000
001F800000
001F000000
ENDCHAR
STARTCHAR uni0157
ENCODING 343
SWIDTH 454 0
DWIDTH 27 0
BBX 23 48 3 -14
BITMAP
00007E
3F81FE
3F87FE
3F8FFE
3F9FFC
3FDFFC
3FFFFC
3FFFFC
3FFF84
3FFC00
3FF800
3FF000
3FE000
3FE000
3FE000
3FE000
3FE000
3FE000
3FE000
3FE000
3FE000
3FE000
3FE000
3FE000
3FE000
3FE000
3FE000
3FE000
3FE000
3FE000
3FE000
3FE000
3FE000
3FE000
000000
000000
000000
000000
3FC000
7FC000
7F8000
7F8000
7F0000
7F0000
7E0000
FE0000
FC0000
F80000
ENDCHAR
STARTCHAR Rcaron
ENCODING 344
SWIDTH 660 0
DWIDTH 40 0
BBX 35 56 5 0
BITMAP
1FC007F000
1FE00FE000
0FF01FC000
07F87FC000
03FEFF8000
01FFFF0000
00FFFE0000
007FFC0000
007FFC0000
003FF80000
0000000000
0000000000
0000000000
FFFFE00000
FFFFFE0000
FFFFFF8000
FFFFFFC000
FFFFFFE000
FFFFFFF000
FFFFFFF800
FFC7FFF800
FFC03FFC00
FFC00FFC00
FFC007FC00
FFC007FC00
FFC007FC00
FFC007FC00
FFC007FC00
FFC007FC00
FFC00FFC00
FFC01FF800
FFC07FF800
FFFFFFF000
FFFFFFE000
FFFFFFC000
FFFFFF8000
FFFFFF0000
FFFFFC0000
FFFFFE0000
FFC3FF0000
FFC1FF8000
FFC0FF8000
FFC0FFC000
FFC07FE000
FFC03FE000
FFC03FF000
FFC01FF800
FFC01FF800
FFC00FFC00
FFC007FE00
FFC007FE00
FFC003FF00
FFC001FF80
FFC001FF80
FFC000FFC0
FFC000FFE0
ENDCHAR
STARTCHAR rcaron
ENCODING 345
SWIDTH 454 0
DWIDTH 27 0
BBX 26 46 2 0
BITMAP
FE001FC0
7F007F80
3FC0FF00
1FE1FE00
0FF3FC00
07FFF800
07FFF800
03FFF000
01FFE000
01FFC000
00000000
00000000
00003F00
1FC0FF00
1FC3FF00
1FC7FF00
1FCFFE00
1FEFFE00
1FFFFE00
1FFFFE00
1FFFC200
1FFE0000
1FFC0000
1FF80000
1FF00000
1FF00000
1FF00000
1FF00000
1FF00000
1FF00000
1FF00000
1FF00000
1FF00000
1FF00000
1FF00000
1FF00000
1FF00000
1FF00000
1FF00000
1FF00000
1FF00000
1FF00000
1FF00000
1FF00000
1FF00000
1FF00000
ENDCHAR
STARTCHAR Sacute
ENCODING 346
SWIDTH 550 0
DWIDTH 33 0
BBX 28 57 3 -1
BITMAP
0001FFC0
0001FF80
0003FF00
0007FE00
0007F800
000FF000
001FE000
003FC000
007F8000
007E0000
00000000
00000000
003FF000
01FFFF00
07FFFFC0
0FFFFFE0
1FFFFFE0
3FFFFFC0
3FFFFFC0
7FFFFFC0
7FE00F80
FFC00180
FF800000
FF800000
FF800000
FF800000
FFC00000
7FE00000
7FF00000
7FFC0000
3FFF0000
3FFFC000
1FFFF000
0FFFF800
07FFFE00
01FFFF00
00FFFF80
003FFFC0
000FFFC0
0003FFE0
0000FFE0
00007FE0
00003FF0
00001FF0
00001FF0
00001FF0
80003FE0
E0003FE0
FC007FE0
FFFFFFE0
FFFFFFC0
FFFFFF80
FFFFFF80
FFFFFF00
FFFFFC00
3FFFF000
03FF8000
ENDCHAR
STARTCHAR sacute
ENCODING 347
SWIDTH 497 0
DWIDTH 30 0
BBX 25 47 3 -1
BITMAP
0003FF80
0003FF00
0007FE00
000FFC00
000FF000
001FE000
003FC000
007F8000
00FF0000
00FC0000
00000000
00000000
00FFC000
07FFFC00
1FFFFF00
3FFFFF00
7FFFFF00
7FFFFE00
FFFFFE00
FF803C00
FF800C00
FF800000
FF800000
FFC00000
FFF00000
FFFE0000
7FFF8000
3FFFE000
3FFFF800
0FFFFC00
07FFFE00
01FFFF00
003FFF00
000FFF00
0003FF80
0001FF80
0000FF80
0000FF80
C000FF00
F801FF00
FFFFFF00
FFFFFF00
FFFFFE00
FFFFFC00
FFFFF800
7FFFE000
0FFF0000
ENDCHAR
STARTCHAR Scircumflex
ENCODING 348
SWIDTH 550 0
DWIDTH 33 0
BBX 28 57 3 -1
BITMAP
007FF000
00FFF000
01FFF800
01FFFC00
03FFFE00
07F9FF00
0FF0FF00
1FE07F80
3FC01FC0
3F000FE0
00000000
00000000
003FF000
01FFFF00
07FFFFC0
0FFFFFE0
1FFFFFE0
3FFFFFC0
3FFFFFC0
7FFFFFC0
7FE00F80
FFC00180
FF800000
FF800000
FF800000
FF800000
FFC00000
7FE00000
7FF00000
7FFC0000
3FFF0000
3FFFC000
1FFFF000
0FFFF800
07FFFE00
01FFFF00
00FFFF80
003FFFC0
000FFFC0
0003FFE0
0000FFE0
00007FE0
00003FF0
00001FF0
00001FF0
00001FF0
80003FE0
E0003FE0
FC007FE0
FFFFFFE0
FFFFFFC0
FFFFFF80
FFFFFF80
FFFFFF00
FFFFFC00
3FFFF000
03FF8000
ENDCHAR
STARTCHAR scircumflex
ENCODING 349
SWIDTH 497 0
DWIDTH 30 0
BBX 26 47 3 -1
BITMAP
00FFE000
01FFE000
03FFF000
03FFF800
07FFFC00
0FF3FE00
1FE1FE00
3FC0FF00
7F803F80
7E001FC0
00000000
00000000
00FFC000
07FFFC00
1FFFFF00
3FFFFF00
7FFFFF00
7FFFFE00
FFFFFE00
FF803C00
FF800C00
FF800000
FF800000
FFC00000
FFF00000
FFFE0000
7FFF8000
3FFFE000
3FFFF800
0FFFFC00
07FFFE00
01FFFF00
003FFF00
000FFF00
0003FF80
0001FF80
0000FF80
0000FF80
C000FF00
F801FF00
FFFFFF00
FFFFFF00
FFFFFE00
FFFFFC00
FFFFF800
7FFFE000
0FFF0000
ENDCHAR
STARTCHAR Scedilla
ENCODING 350
SWIDTH 550 0
DWIDTH 33 0
BBX 28 58 3 -14
BITMAP
003FF000
01FFFF00
07FFFFC0
0FFFFFE0
1FFFFFE0
3FFFFFC0
3FFFFFC0
7FFFFFC0
7FE00F80
FFC00180
FF800000
FF800000
FF800000
FF800000
FFC00000
7FE00000
7FF00000
7FFC0000
3FFF0000
3FFFC000
1FFFF000
0FFFF800
07FFFE00
01FFFF00
00FFFF80
003FFFC0
000FFFC0
0003FFE0
0000FFE0
00007FE0
00003FF0
00001FF0
00001FF0
00001FF0
80003FE0
E0003FE0
FC007FE0
FFFFFFE0
FFFFFFC0
FFFFFF80
FFFFFF80
FFFFFF00
FFFFFC00
3FFFF000
03FF8000
007E0000
007F0000
00FFC000
00FFE000
001FE000
000FE000
000FE000
020FE000
03FFE000
03FFE000
03FFC000
03FF8000
01FE0000
ENDCHAR
STARTCHAR scedilla
ENCODING 351
SWIDTH 497 0
DWIDTH 30 0
BBX 25 48 3 -14
BITMAP
00FFC000
07FFFC00
1FFFFF00
3FFFFF00
7FFFFF00
7FFFFE00
FFFFFE00
FF803C00
FF800C00
FF800000
FF800000
FFC00000
FFF00000
FFFE0000
7FFF8000
3FFFE000
3FFFF800
0FFFFC00
07FFFE00
01FFFF00
003FFF00
000FFF00
0003FF80
0001FF80
0000FF80
0000FF80
C000FF00
F801FF00
FFFFFF00
FFFFFF00
FFFFFE00
FFFFFC00
FFFFF800
7FFFE000
0FFF0000
00FC0000
01FE0000
01FF0000
03FF8000
007FC000
001FC000
001FC000
001FC000
07FFC000
07FF8000
07FF8000
07FF0000
07F80000
ENDCHAR
STARTCHAR Scaron
ENCODING 352
SWIDTH 550 0
DWIDTH 33 0
BBX 28 57 3 -1
BITMAP
3F000FE0
3FC01FC0
1FE07F80
0FF0FF80
07F9FF00
03FFFE00
01FFFC00
01FFF800
00FFF000
007FF000
00000000
00000000
003FF000
01FFFF00
07FFFFC0
0FFFFFE0
1FFFFFE0
3FFFFFC0
3FFFFFC0
7FFFFFC0
7FE00F80
FFC00180
FF800000
FF800000
FF800000
FF800000
FFC00000
7FE00000
7FF00000
7FFC0000
3FFF0000
3FFFC000
1FFFF000
0FFFF800
07FFFE00
01FFFF00
00FFFF80
003FFFC0
000FFFC0
0003FFE0
0000FFE0
00007FE0
00003FF0
00001FF0
00001FF0
00001FF0
80003FE0
E0003FE0
FC007FE0
FFFFFFE0
FFFFFFC0
FFFFFF80
FFFFFF80
FFFFFF00
FFFFFC00
3FFFF000
03FF8000
ENDCHAR
STARTCHAR scaron
ENCODING 353
SWIDTH 497 0
DWIDTH 30 0
BBX 26 47 3 -1
BITMAP
7F001FC0
3F803FC0
3FC07F80
1FF1FF00
0FFBFE00
07FFFC00
03FFF800
01FFF000
01FFF000
00FFE000
00000000
00000000
00FFC000
07FFFC00
1FFFFF00
3FFFFF00
7FFFFF00
7FFFFE00
FFFFFE00
FF803C00
FF800C00
FF800000
FF800000
FFC00000
FFF00000
FFFE0000
7FFF8000
3FFFE000
3FFFF800
0FFFFC00
07FFFE00
01FFFF00
003FFF00
000FFF00
0003FF80
0001FF80
0000FF80
0000FF80
C000FF00
F801FF00
FFFFFF00
FFFFFF00
FFFFFE00
FFFFFC00
FFFFF800
7FFFE000
0FFF0000
ENDCHAR
STARTCHAR uni0162
ENCODING 354
SWIDTH 579 0
DWIDTH 35 0
BBX 33 57 1 -14
BITMAP
FFFFFFFF80
FFFFFFFF80
FFFFFFFF80
FFFFFFFF80
FFFFFFFF80
FFFFFFFF80
FFFFFFFF80
FFFFFFFF80
000FF80000
000FF80000
000FF80000
000FF80000
000FF80000
000FF80000
000FF80000
000FF80000
000FF80000
000FF80000
000FF80000
000FF80000
000FF80000
000FF80000
000FF80000
000FF80000
000FF80000
000FF80000
000FF80000
000FF80000
000FF80000
000FF80000
000FF80000
000FF80000
000FF80000
000FF80000
000FF80000
000FF80000
000FF80000
000FF80000
000FF80000
000FF80000
000FF80000
000FF80000
000FF80000
0007E00000
0007E00000
000FF00000
000FF80000
000FFC0000
0003FE0000
0000FE0000
0000FE0000
0000FE0000
003FFE0000
003FFE0000
003FFC0000
003FF80000
003FE00000
ENDCHAR
STARTCHAR uni0163
ENCODING 355
SWIDTH 434 0
DWIDTH 26 0
BBX 23 54 1 -14
BITMAP
00FC00
01FC00
01FC00
01FC00
03FC00
03FC00
07FC00
0FFFFE
1FFFFE
7FFFFE
FFFFFE
FFFFFE
FFFFFE
FFFFFE
07FC00
07FC00
07FC00
07FC00
07FC00
07FC00
07FC00
07FC00
07FC00
07FC00
07FC00
07FC00
07FC00
07FC00
07FC00
07FC00
07FC00
07FC00
07FC00
07FF06
07FFFE
07FFFE
03FFFE
01FFFE
01FFFE
007FFE
001FF0
003F00
003F80
007FE0
007FF0
000FF0
0007F0
0003F8
0107F0
01FFF0
01FFF0
01FFE0
01FFC0
00FF00
ENDCHAR
STARTCHAR Tcaron
ENCODING 356
SWIDTH 579 0
DWIDTH 35 0
BBX 33 56 1 0
BITMAP
07E001FC00
07F803F800
03FC0FF000
01FE1FE000
00FF3FC000
007FFFC000
003FFF8000
003FFF0000
001FFE0000
000FFE0000
0000000000
0000000000
0000000000
FFFFFFFF80
FFFFFFFF80
FFFFFFFF80
FFFFFFFF80
FFFFFFFF80
FFFFFFFF80
FFFFFFFF80
FFFFFFFF80
000FF80000
000FF80000
000FF80000
000FF80000
000FF80000
000FF80000
000FF80000
000FF80000
000FF80000
000FF80000
000FF80000
000FF80000
000FF80000
000FF80000
000FF80000
000FF80000
000FF80000
000FF80000
000FF80000
000FF80000
000FF80000
000FF80000
000FF80000
000FF80000
000FF80000
000FF80000
000FF80000
000FF80000
000FF80000
000FF80000
000FF80000
000FF80000
000FF80000
000FF80000
000FF80000
ENDCHAR
STARTCHAR tcaron
ENCODING 357
SWIDTH 434 0
DWIDTH 26 0
BBX 27 48 1 -1
BITMAP
00001FE0
00001FE0
00001FC0
00003FC0
00003F80
00003F80
00003F00
00FC3F00
01FC7E00
01FC7E00
01FC0000
03FC0000
03FC0000
07FC0000
0FFFFE00
1FFFFE00
7FFFFE00
FFFFFE00
FFFFFE00
FFFFFE00
FFFFFE00
07FC0000
07FC0000
07FC0000
07FC0000
07FC0000
07FC0000
07FC0000
07FC0000
07FC0000
07FC0000
07FC0000
07FC0000
07FC0000
07FC0000
07FC0000
07FC0000
07FC0000
07FC0000
07FC0000
07FF0600
07FFFE00
07FFFE00
03FFFE00
01FFFE00
01FFFE00
007FFE00
001FF000
ENDCHAR
STARTCHAR Tbar
ENCODING 358
SWIDTH 579 0
DWIDTH 35 0
BBX 33 43 1 0
BITMAP
FFFFFFFF80
FFFFFFFF80
FFFFFFFF80
FFFFFFFF80
FFFFFFFF80
FFFFFFFF80
FFFFFFFF80
FFFFFFFF80
000FF80000
000FF80000
000FF80000
000FF80000
000FF80000
000FF80000
000FF80000
000FF80000
000FF80000
000FF80000
07FFFFF000
07FFFFF000
07FFFFF000
07FFFFF000
07FFFFF000
07FFFFF000
07FFFFF000
000FF80000
000FF80000
000FF80000
000FF80000
000FF80000
000FF80000
000FF80000
000FF80000
000FF80000
000FF80000
000FF80000
000FF80000
000FF80000
000FF80000
000FF80000
000FF80000
000FF80000
000FF80000
ENDCHAR
STARTCHAR tbar
ENCODING 359
SWIDTH 434 0
DWIDTH 26 0
BBX 23 41 1 -1
BITMAP
00FC00
01FC00
01FC00
01FC00
03FC00
03FC00
07FC00
0FFFFE
1FFFFE
7FFFFE
FFFFFE
FFFFFE
FFFFFE
FFFFFE
07FC00
07FC00
07FC00
07FC00
07FC00
07FC00
7FFFFC
7FFFFC
7FFFFC
7FFFFC
7FFFFC
7FFFFC
07FC00
07FC00
07FC00
07FC00
07FC00
07FC00
07FC00
07FF06
07FFFE
07FFFE
03FFFE
03FFFE
01FFFE
007FFE
001FF0
ENDCHAR
STARTCHAR Utilde
ENCODING 360
SWIDTH 755 0
DWIDTH 45 0
BBX 35 56 5 -1
BITMAP
001F007C00
007FC07800
00FFF0F800
01FFFFF800
01FFFFF800
03FFFFF000
03E1FFE000
03C07FC000
03C01F0000
0000000000
0000000000
0000000000
FF80003FE0
FF80003FE0
FF80003FE0
FF80003FE0
FF80003FE0
FF80003FE0
FF80003FE0
FF80003FE0
FF80003FE0
FF80003FE0
FF80003FE0
FF80003FE0
FF80003FE0
FF80003FE0
FF80003FE0
FF80003FE0
FF80003FE0
FF80003FE0
FF80003FE0
FF80003FE0
FF80003FE0
FF80003FE0
FF80003FE0
FF80003FE0
FF80003FE0
FF80003FE0
FF80003FE0
FF80003FE0
FF80003FE0
FF80003FE0
FF80003FE0
FFC0007FE0
7FC0007FC0
7FE000FFC0
7FF001FFC0
3FF803FF80
3FFFFFFF80
1FFFFFFF00
1FFFFFFE00
0FFFFFFE00
07FFFFF800
01FFFFF000
007FFFC000
000FFE0000
ENDCHAR
STARTCHAR utilde
ENCODING 361
SWIDTH 657 0
DWIDTH 39 0
BBX 30 46 4 -1
BITMAP
007C01E0
01FF01E0
03FFC3E0
07FFFFE0
0FFFFFC0
0FFFFFC0
0F87FF80
0F01FF00
1F007C00
00000000
00000000
00000000
FF8003FC
FF8003FC
FF8003FC
FF8003FC
FF8003FC
FF8003FC
FF8003FC
FF8003FC
FF8003FC
FF8003FC
FF8003FC
FF8003FC
FF8003FC
FF8003FC
FF8003FC
FF8003FC
FF8003FC
FF8007FC
FF8007FC
FF8007FC
FF8007FC
FF8007FC
FFC007FC
7FC00FFC
7FC00FFC
7FE01FFC
7FF87FFC
7FFFFFFC
3FFFFFFC
3FFFFDFC
1FFFF9FC
0FFFF1FC
07FFC1FC
00FF0000
ENDCHAR
STARTCHAR Umacron
ENCODING 362
SWIDTH 755 0
DWIDTH 45 0
BBX 35 53 5 -1
BITMAP
00FFFFE000
00FFFFE000
00FFFFE000
00FFFFE000
00FFFFE000
00FFFFE000
0000000000
0000000000
0000000000
FF80003FE0
FF80003FE0
FF80003FE0
FF80003FE0
FF80003FE0
FF80003FE0
FF80003FE0
FF80003FE0
FF80003FE0
FF80003FE0
FF80003FE0
FF80003FE0
FF80003FE0
FF80003FE0
FF80003FE0
FF80003FE0
FF80003FE0
FF80003FE0
FF80003FE0
FF80003FE0
FF80003FE0
FF80003FE0
FF80003FE0
FF80003FE0
FF80003FE0
FF80003FE0
FF80003FE0
FF80003FE0
FF80003FE0
FF80003FE0
FF80003FE0
FFC0007FE0
7FC0007FC0
7FE000FFC0
7FF001FFC0
3FF803FF80
3FFFFFFF80
1FFFFFFF00
1FFFFFFE00
0FFFFFFE00
07FFFFF800
01FFFFF000
007FFFC000
000FFE0000
ENDCHAR
STARTCHAR umacron
ENCODING 363
SWIDTH 657 0
DWIDTH 39 0
BBX 30 43 4 -1
BITMAP
03FFFF80
03FFFF80
03FFFF80
03FFFF80
03FFFF80
03FFFF80
00000000
00000000
00000000
FF8003FC
FF8003FC
FF8003FC
FF8003FC
FF8003FC
FF8003FC
FF8003FC
FF8003FC
FF8003FC
FF8003FC
FF8003FC
FF8003FC
FF8003FC
FF8003FC
FF8003FC
FF8003FC
FF8003FC
FF8007FC
FF8007FC
FF8007FC
FF8007FC
FF8007FC
FFC007FC
7FC00FFC
7FC00FFC
7FE01FFC
7FF87FFC
7FFFFFFC
3FFFFFFC
3FFFFDFC
1FFFF9FC
0FFFF1FC
07FFC1FC
00FF0000
ENDCHAR
STARTCHAR Ubreve
ENCODING 364
SWIDTH 755 0
DWIDTH 45 0
BBX 35 57 5 -1
BITMAP
03E000F800
03E001F800
03F003F000
01FE0FF000
01FFFFF000
00FFFFE000
00FFFFC000
003FFF8000
001FFF0000
0007F80000
0000000000
0000000000
0000000000
FF80003FE0
FF80003FE0
FF80003FE0
FF80003FE0
FF80003FE0
FF80003FE0
FF80003FE0
FF80003FE0
FF80003FE0
FF80003FE0
FF80003FE0
FF80003FE0
FF80003FE0
FF80003FE0
FF80003FE0
FF80003FE0
FF80003FE0
FF80003FE0
FF80003FE0
FF80003FE0
FF80003FE0
FF80003FE0
FF80003FE0
FF80003FE0
FF80003FE0
FF80003FE0
FF80003FE0
FF80003FE0
FF80003FE0
FF80003FE0
FF80003FE0
FFC0007FE0
7FC0007FC0
7FE000FFC0
7FF001FFC0
3FF803FF80
3FFFFFFF80
1FFFFFFF00
1FFFFFFE00
0FFFFFFE00
07FFFFF800
01FFFFF000
007FFFC000
000FFE0000
ENDCHAR
STARTCHAR ubreve
ENCODING 365
SWIDTH 657 0
DWIDTH 39 0
BBX 30 47 4 -1
BITMAP
0F8003E0
0F8007E0
0FC00FC0
07F83FC0
07FFFFC0
03FFFF80
03FFFF00
01FFFE00
007FFC00
001FE000
00000000
00000000
00000000
FF8003FC
FF8003FC
FF8003FC
FF8003FC
FF8003FC
FF8003FC
FF8003FC
FF8003FC
FF8003FC
FF8003FC
FF8003FC
FF8003FC
FF8003FC
FF8003FC
FF8003FC
FF8003FC
FF8003FC
FF8007FC
FF8007FC
FF8007FC
FF8007FC
FF8007FC
FFC007FC
7FC00FFC
7FC00FFC
7FE01FFC
7FF87FFC
7FFFFFFC
3FFFFFFC
3FFFFDFC
1FFFF9FC
0FFFF1FC
07FFC1FC
00FF0000
ENDCHAR
STARTCHAR Uring
ENCODING 366
SWIDTH 755 0
DWIDTH 45 0
BBX 35 61 5 -1
BITMAP
0001F80000
0007FE0000
000FFF0000
001FFF0000
001F1F8000
001E0F8000
003E078000
003E078000
001E0F8000
001F1F8000
001FFF0000
000FFF0000
0007FE0000
0001F80000
0000000000
0000000000
0000000000
FF80003FE0
FF80003FE0
FF80003FE0
FF80003FE0
FF80003FE0
FF80003FE0
FF80003FE0
FF80003FE0
FF80003FE0
FF80003FE0
FF80003FE0
FF80003FE0
FF80003FE0
FF80003FE0
FF80003FE0
FF80003FE0
FF80003FE0
FF80003FE0
FF80003FE0
FF80003FE0
FF80003FE0
FF80003FE0
FF80003FE0
FF80003FE0
FF80003FE0
FF80003FE0
FF80003FE0
FF80003FE0
FF80003FE0
FF80003FE0
FF80003FE0
FFC0007FE0
7FC0007FC0
7FE000FFC0
7FF001FFC0
3FF803FF80
3FFFFFFF80
1FFFFFFF00
1FFFFFFE00
0FFFFFFE00
07FFFFF800
01FFFFF000
007FFFC000
000FFE0000
ENDCHAR
STARTCHAR uring
ENCODING 367
SWIDTH 657 0
DWIDTH 39 0
BBX 30 51 4 -1
BITMAP
0007E000
001FF000
003FFC00
007FFC00
007C7E00
00F83E00
00F83E00
00F83E00
00F83E00
007C7E00
007FFC00
003FFC00
001FF800
0007E000
00000000
00000000
00000000
FF8003FC
FF8003FC
FF8003FC
FF8003FC
FF8003FC
FF8003FC
FF8003FC
FF8003FC
FF8003FC
FF8003FC
FF8003FC
FF8003FC
FF8003FC
FF8003FC
FF8003FC
FF8003FC
FF8003FC
FF8007FC
FF8007FC
FF8007FC
FF8007FC
FF8007FC
FFC007FC
7FC00FFC
7FC00FFC
7FE01FFC
7FF87FFC
7FFFFFFC
3FFFFFFC
3FFFFDFC
1FFFF9FC
0FFFF1FC
07FFC1FC
00FF0000
ENDCHAR
STARTCHAR Uhungarumlaut
ENCODING 368
SWIDTH 755 0
DWIDTH 45 0
BBX 35 57 5 -1
BITMAP
0007FC7FC0
0007FCFF80
000FF8FF00
000FF1FE00
001FE1FC00
003FC3F800
003F87F000
007F07E000
00FC0FC000
00F81F8000
0000000000
0000000000
0000000000
FF80003FE0
FF80003FE0
FF80003FE0
FF80003FE0
FF80003FE0
FF80003FE0
FF80003FE0
FF80003FE0
FF80003FE0
FF80003FE0
FF80003FE0
FF80003FE0
FF80003FE0
FF80003FE0
FF80003FE0
FF80003FE0
FF80003FE0
FF80003FE0
FF80003FE0
FF80003FE0
FF80003FE0
FF80003FE0
FF80003FE0
FF80003FE0
FF80003FE0
FF80003FE0
FF80003FE0
FF80003FE0
FF80003FE0
FF80003FE0
FF80003FE0
FFC0007FE0
7FC0007FC0
7FE000FFC0
7FF001FFC0
3FF803FF80
3FFFFFFF80
1FFFFFFF00
1FFFFFFE00
0FFFFFFE00
07FFFFF800
01FFFFF000
007FFFC000
000FFE0000
ENDCHAR
STARTCHAR uhungarumlaut
ENCODING 369
SWIDTH 657 0
DWIDTH 39 0
BBX 32 47 4 -1
BITMAP
001FF1FF
001FF3FE
003FE3FE
003FC7FC
007F87F8
00FF0FF0
00FE1FC0
01FC1F80
03F83F00
03E03E00
00000000
00000000
00000000
FF8003FC
FF8003FC
FF8003FC
FF8003FC
FF8003FC
FF8003FC
FF8003FC
FF8003FC
FF8003FC
FF8003FC
FF8003FC
FF8003FC
FF8003FC
FF8003FC
FF8003FC
FF8003FC
FF8003FC
FF8007FC
FF8007FC
FF8007FC
FF8007FC
FF8007FC
FFC007FC
7FC00FFC
7FC00FFC
7FE01FFC
7FF87FFC
7FFFFFFC
3FFFFFFC
3FFFFDFC
1FFFF9FC
0FFFF1FC
07FFC1FC
00FF0000
ENDCHAR
STARTCHAR Uogonek
ENCODING 370
SWIDTH 755 0
DWIDTH 45 0
BBX 35 57 5 -14
BITMAP
FF80003FE0
FF80003FE0
FF80003FE0
FF80003FE0
FF80003FE0
FF80003FE0
FF80003FE0
FF80003FE0
FF80003FE0
FF80003FE0
FF80003FE0
FF80003FE0
FF80003FE0
FF80003FE0
FF80003FE0
FF80003FE0
FF80003FE0
FF80003FE0
FF80003FE0
FF80003FE0
FF80003FE0
FF80003FE0
FF80003FE0
FF80003FE0
FF80003FE0
FF80003FE0
FF80003FE0
FF80003FE0
FF80003FE0
FF80003FE0
FF80003FE0
FFC0007FE0
7FC0007FC0
7FE000FFC0
7FF001FFC0
3FF803FF80
3FFFFFFF80
1FFFFFFF00
1FFFFFFE00
0FFFFFFE00
07FFFFF800
01FFFFF000
007FFFC000
000FFE0000
0000F80000
0001F00000
0003F00000
0007E00000
0007E00000
000FE00000
000FE00000
000FF10000
0007FF0000
0007FF0000
0003FF0000
0001FF0000
00007F0000
ENDCHAR
STARTCHAR uogonek
ENCODING 371
SWIDTH 657 0
DWIDTH 39 0
BBX 30 47 4 -14
BITMAP
FF8003FC
FF8003FC
FF8003FC
FF8003FC
FF8003FC
FF8003FC
FF8003FC
FF8003FC
FF8003FC
FF8003FC
FF8003FC
FF8003FC
FF8003FC
FF8003FC
FF8003FC
FF8003FC
FF8003FC
FF8007FC
FF8007FC
FF8007FC
FF8007FC
FF8007FC
FFC007FC
7FC00FFC
7FC00FFC
7FE01FFC
7FF87FFC
7FFFFFFC
3FFFFFFC
3FFFFDFC
1FFFF9FC
0FFFF1FC
07FFC1FC
00FF01F0
000003E0
000007E0
00000FC0
00001F80
00001F80
00001F80
00001F80
00001FC4
00001FFC
00001FFC
00000FFC
000007FC
000001FC
ENDCHAR
STARTCHAR Wcircumflex
ENCODING 372
SWIDTH 966 0
DWIDTH 58 0
BBX 58 56 0 0
BITMAP
000001FFC0000000
000001FFE0000000
000003FFF0000000
000007FFF0000000
00000FFFF8000000
00000FF7FC000000
00001FE1FE000000
00003FC0FF000000
00007F007F800000
0000FE001F800000
0000000000000000
0000000000000000
0000000000000000
FF80007F80007FC0
FF8000FFC0007FC0
7FC000FFC000FF80
7FC000FFC000FF80
7FC000FFC000FF80
7FC001FFE000FF80
3FC001FFE000FF00
3FE001FFE001FF00
3FE001FFF001FF00
3FE003FFF001FF00
1FE003FFF001FE00
1FF003FFF003FE00
1FF007FFF803FE00
1FF007F7F803FE00
0FF007F3F803FC00
0FF807F3F807FC00
0FF80FF3FC07FC00
0FF80FF3FC07FC00
07F80FE3FC07F800
07F80FE1FC07F800
07FC1FE1FE0FF800
07FC1FE1FE0FF800
03FC1FE1FE0FF000
03FC1FC0FE0FF000
03FE3FC0FF1FF000
03FE3FC0FF1FF000
01FE3F807F1FE000
01FE3F807F1FE000
01FE7F807F1FE000
01FF7F807FBFE000
00FF7F003FBFC000
00FF7F003FBFC000
00FF7F003FBFC000
007F7F003FBFC000
007FFE001FBF8000
007FFE001FFF8000
007FFE001FFF8000
003FFE001FFF8000
003FFC000FFF0000
003FFC000FFF0000
003FFC000FFF0000
001FFC000FFF0000
001FF80007FE0000
ENDCHAR
STARTCHAR wcircumflex
ENCODING 373
SWIDTH 855 0
DWIDTH 51 0
BBX 49 46 1 0
BITMAP
00001FFC000000
00003FFE000000
00003FFE000000
00007FFF000000
0000FFFF800000
0001FF7FC00000
0003FC3FE00000
0007F80FE00000
0007F007F00000
000FC003F80000
00000000000000
00000000000000
00000000000000
FF800FFC007F80
FF801FFC00FF80
FF801FFC00FF80
7F801FFC00FF00
7FC01FFE00FF00
7FC03FFE01FF00
7FC03FFE01FF00
3FC03F7E01FE00
3FE03F7F03FE00
3FE07F7F03FE00
1FE07F7F03FC00
1FE07E3F03FC00
1FF0FE3F07FC00
1FF0FE3F87FC00
0FF0FE3F87F800
0FF0FC1F87F800
0FF8FC1F8FF800
0FF9FC1FCFF000
07F9FC1FCFF000
07F9F81FCFF000
07F9F80FCFF000
03F9F80FDFE000
03FFF80FDFE000
03FFF80FFFE000
03FFF007FFC000
01FFF007FFC000
01FFF007FFC000
01FFF007FFC000
00FFE007FF8000
00FFE003FF8000
00FFE003FF8000
00FFE003FF0000
007FE003FF0000
ENDCHAR
STARTCHAR Ycircumflex
ENCODING 374
SWIDTH 624 0
DWIDTH 37 0
BBX 37 56 0 0
BITMAP
0007FF0000
000FFF8000
000FFF8000
001FFFC000
003FFFE000
007FDFF000
00FF8FF800
00FE03FC00
01FC01FE00
03F800FE00
0000000000
0000000000
0000000000
FFC0001FF8
7FC0001FF0
7FE0003FF0
3FE0003FE0
3FF0007FE0
1FF0007FC0
1FF800FFC0
0FF800FF80
0FFC01FF80
07FC01FF00
03FE03FE00
03FE03FE00
01FF07FC00
01FF07FC00
00FF8FF800
00FF8FF800
007FDFF000
007FDFF000
003FFFE000
003FFFE000
001FFFC000
001FFFC000
000FFF8000
000FFF8000
0007FF0000
0007FE0000
0003FE0000
0003FE0000
0003FE0000
0003FE0000
0003FE0000
0003FE0000
0003FE0000
0003FE0000
0003FE0000
0003FE0000
0003FE0000
0003FE0000
0003FE0000
0003FE0000
0003FE0000
0003FE0000
0003FE0000
ENDCHAR
STARTCHAR ycircumflex
ENCODING 375
SWIDTH 568 0
DWIDTH 34 0
BBX 34 60 0 -14
BITMAP
001FFC0000
001FFE0000
003FFF0000
007FFF8000
00FFFF8000
00FF3FC000
01FE1FE000
03FC0FF000
07F007F800
0FE001FC00
0000000000
0000000000
0000000000
FFC000FFC0
7FC000FF80
7FE000FF80
7FE001FF80
3FE001FF00
3FF001FF00
1FF003FF00
1FF003FE00
1FF803FE00
0FF807FC00
0FF807FC00
07FC07FC00
07FC0FF800
07FC0FF800
03FE0FF800
03FE1FF000
01FE1FF000
01FF1FE000
01FF3FE000
00FF3FE000
00FF3FC000
007FBFC000
007FFFC000
007FFF8000
003FFF8000
003FFF0000
001FFF0000
001FFF0000
001FFE0000
000FFE0000
000FFE0000
0007FC0000
0007FC0000
0007F80000
000FF80000
000FF80000
001FF00000
001FF00000
007FE00000
21FFE00000
3FFFC00000
3FFFC00000
3FFF800000
3FFF000000
3FFE000000
3FF8000000
3FC0000000
ENDCHAR
STARTCHAR Ydieresis
ENCODING 376
SWIDTH 624 0
DWIDTH 37 0
BBX 37 55 0 0
BITMAP
001E01C000
007F07F000
007F87F000
007F8FF800
007F8FF800
007F8FF000
007F07F000
003E03E000
0000000000
0000000000
0000000000
0000000000
FFC0001FF8
7FC0001FF0
7FE0003FF0
3FE0003FE0
3FF0007FE0
1FF0007FC0
1FF800FFC0
0FF800FF80
0FFC01FF80
07FC01FF00
03FE03FE00
03FE03FE00
01FF07FC00
01FF07FC00
00FF8FF800
00FF8FF800
007FDFF000
007FDFF000
003FFFE000
003FFFE000
001FFFC000
001FFFC000
000FFF8000
000FFF8000
0007FF0000
0007FE0000
0003FE0000
0003FE0000
0003FE0000
0003FE0000
0003FE0000
0003FE0000
0003FE0000
0003FE0000
0003FE0000
0003FE0000
0003FE0000
0003FE0000
0003FE0000
0003FE0000
0003FE0000
0003FE0000
0003FE0000
ENDCHAR
STARTCHAR Zacute
ENCODING 377
SWIDTH 579 0
DWIDTH 35 0
BBX 33 56 1 0
BITMAP
00003FF800
00003FF000
00007FE000
0000FFC000
0000FF0000
0001FE0000
0003FC0000
0007F80000
000FF00000
000FC00000
0000000000
0000000000
0000000000
7FFFFFFF00
7FFFFFFF00
7FFFFFFF00
7FFFFFFF00
7FFFFFFF00
7FFFFFFF00
7FFFFFFF00
7FFFFFFE00
00000FFC00
00000FF800
00001FF800
00003FF000
00003FE000
00007FE000
0000FFC000
0000FF8000
0001FF8000
0003FF0000
0007FE0000
0007FC0000
000FFC0000
001FF80000
001FF00000
003FF00000
007FE00000
007FC00000
00FFC00000
01FF800000
03FF000000
03FF000000
07FE000000
0FFC000000
0FF8000000
1FF8000000
3FF0000000
3FFFFFFF80
7FFFFFFF80
FFFFFFFF80
FFFFFFFF80
FFFFFFFF80
FFFFFFFF80
FFFFFFFF80
FFFFFFFF80
ENDCHAR
STARTCHAR zacute
ENCODING 378
SWIDTH 487 0
DWIDTH 29 0
BBX 25 46 2 0
BITMAP
0001FF80
0003FF00
0007FE00
0007FC00
000FF800
001FF000
003FC000
003F8000
007F0000
00FE0000
00000000
00000000
00000000
FFFFFF80
FFFFFF80
FFFFFF80
FFFFFF80
FFFFFF80
FFFFFF80
FFFFFF00
0003FF00
0007FE00
0007FC00
000FF800
001FF800
001FF000
003FE000
007FC000
00FFC000
00FF8000
01FF0000
03FF0000
07FE0000
07FC0000
0FF80000
1FF80000
1FF00000
3FE00000
7FE00000
FFFFFF80
FFFFFF80
FFFFFF80
FFFFFF80
FFFFFF80
FFFFFF80
FFFFFF80
ENDCHAR
STARTCHAR Zdotaccent
ENCODING 379
SWIDTH 579 0
DWIDTH 35 0
BBX 33 56 1 0
BITMAP
0003C00000
000FF00000
000FF80000
001FF80000
001FF80000
001FF80000
000FF80000
000FF00000
0003E00000
0000000000
0000000000
0000000000
0000000000
7FFFFFFF00
7FFFFFFF00
7FFFFFFF00
7FFFFFFF00
7FFFFFFF00
7FFFFFFF00
7FFFFFFF00
7FFFFFFE00
00000FFC00
00000FF800
00001FF800
00003FF000
00003FE000
00007FE000
0000FFC000
0000FF8000
0001FF8000
0003FF0000
0007FE0000
0007FC0000
000FFC0000
001FF80000
001FF00000
003FF00000
007FE00000
007FC00000
00FFC00000
01FF800000
03FF000000
03FF000000
07FE000000
0FFC000000
0FF8000000
1FF8000000
3FF0000000
3FFFFFFF80
7FFFFFFF80
FFFFFFFF80
FFFFFFFF80
FFFFFFFF80
FFFFFFFF80
FFFFFFFF80
FFFFFFFF80
ENDCHAR
STARTCHAR zdotaccent
ENCODING 380
SWIDTH 487 0
DWIDTH 29 0
BBX 25 46 2 0
BITMAP
003E0000
007F0000
00FF8000
00FF8000
00FF8000
00FF8000
00FF8000
00FF0000
003E0000
00000000
00000000
00000000
00000000
FFFFFF80
FFFFFF80
FFFFFF80
FFFFFF80
FFFFFF80
FFFFFF80
FFFFFF00
0003FF00
0007FE00
0007FC00
000FF800
001FF800
001FF000
003FE000
007FC000
00FFC000
00FF8000
01FF0000
03FF0000
07FE0000
07FC0000
0FF80000
1FF80000
1FF00000
3FE00000
7FE00000
FFFFFF80
FFFFFF80
FFFFFF80
FFFFFF80
FFFFFF80
FFFFFF80
FFFFFF80
ENDCHAR
STARTCHAR Zcaron
ENCODING 381
SWIDTH 579 0
DWIDTH 35 0
BBX 33 56 1 0
BITMAP
07F001FC00
03F803FC00
03FC07F800
01FF1FF000
00FFBFE000
007FFFC000
003FFF8000
001FFF0000
001FFF0000
000FFE0000
0000000000
0000000000
0000000000
7FFFFFFF00
7FFFFFFF00
7FFFFFFF00
7FFFFFFF00
7FFFFFFF00
7FFFFFFF00
7FFFFFFF00
7FFFFFFE00
00000FFC00
00000FF800
00001FF800
00003FF000
00003FE000
00007FE000
0000FFC000
0000FF8000
0001FF8000
0003FF0000
0007FE0000
0007FC0000
000FFC0000
001FF80000
001FF00000
003FF00000
007FE00000
007FC00000
00FFC00000
01FF800000
03FF000000
03FF000000
07FE000000
0FFC000000
0FF8000000
1FF8000000
3FF0000000
3FFFFFFF80
7FFFFFFF80
FFFFFFFF80
FFFFFFFF80
FFFFFFFF80
FFFFFFFF80
FFFFFFFF80
FFFFFFFF80
ENDCHAR
STARTCHAR zcaron
ENCODING 382
SWIDTH 487 0
DWIDTH 29 0
BBX 26 46 2 0
BITMAP
FE001FC0
7F007F80
3FC0FF00
1FE1FE00
0FF3FC00
07FFF800
07FFF800
03FFF000
01FFE000
01FFC000
00000000
00000000
00000000
FFFFFF80
FFFFFF80
FFFFFF80
FFFFFF80
FFFFFF80
FFFFFF80
FFFFFF00
0003FF00
0007FE00
0007FC00
000FF800
001FF800
001FF000
003FE000
007FC000
00FFC000
00FF8000
01FF0000
03FF0000
07FE0000
07FC0000
0FF80000
1FF80000
1FF00000
3FE00000
7FE00000
FFFFFF80
FFFFFF80
FFFFFF80
FFFFFF80
FFFFFF80
FFFFFF80
FFFFFF80
ENDCHAR
STARTCHAR longs
ENCODING 383
SWIDTH 382 0
DWIDTH 23 0
BBX 19 46 5 0
BITMAP
01FF00
0FFFE0
1FFFE0
3FFFE0
7FFFC0
7FFFC0
FFFFC0
FFC080
FF8000
FF8000
FF8000
FF8000
FF8000
FF8000
FF8000
FF8000
FF8000
FF8000
FF8000
FF8000
FF8000
FF8000
FF8000
FF8000
FF8000
FF8000
FF8000
FF8000
FF8000
FF8000
FF8000
FF8000
FF8000
FF8000
FF8000
FF8000
FF8000
FF8000
FF8000
FF8000
FF8000
FF8000
FF8000
FF8000
FF8000
FF8000
ENDCHAR
STARTCHAR uni0180
ENCODING 384
SWIDTH 632 0
DWIDTH 38 0
BBX 35 47 0 -1
BITMAP
07FC000000
07FC000000
07FC000000
07FC000000
07FC000000
FFFFFE0000
FFFFFE0000
FFFFFE0000
FFFFFE0000
FFFFFE0000
FFFFFE0000
07FC000000
07FC000000
07FC1FE000
07FC7FF800
07F8FFFE00
07F9FFFF00
07FBFFFF00
07FFFFFF80
07FFFFFF80
07FFC3FFC0
07FF00FFC0
07FE007FE0
07FE007FE0
07FC003FE0
07FC003FE0
07FC003FE0
07FC003FE0
07FC003FE0
07FC003FE0
07FC003FE0
07FC003FE0
07FC003FE0
07FC003FE0
07FC003FE0
07FC007FE0
07FE007FE0
07FE00FFC0
07FF01FFC0
07FFC3FFC0
07FFFFFF80
07FFFFFF80
07FFFFFF00
07FBFFFE00
07F1FFFC00
07F07FF800
00001FC000
ENDCHAR
STARTCHAR uni0181
ENCODING 385
SWIDTH 793 0
DWIDTH 48 0
BBX 45 43 0 0
BITMAP
01FFFFFF8000
07FFFFFFF800
1FFFFFFFFE00
3FFFFFFFFF80
3FFFFFFFFFC0
7FFFFFFFFFC0
7FFFFFFFFFE0
7FE7FC1FFFE0
FF07FC00FFE0
FF07FC003FF0
FF07FC003FF0
FF07FC003FF0
7F07FC003FF0
7F07FC003FE0
0007FC003FE0
0007FC007FE0
0007FC01FFC0
0007FFFFFFC0
0007FFFFFF80
0007FFFFFE00
0007FFFFF800
0007FFFFFF00
0007FFFFFFC0
0007FFFFFFE0
0007FC01FFE0
0007FC007FF0
0007FC003FF0
0007FC001FF0
0007FC001FF8
0007FC001FF8
0007FC001FF8
0007FC001FF8
0007FC001FF8
0007FC003FF0
0007FC007FF0
0007FFFFFFF0
0007FFFFFFE0
0007FFFFFFE0
0007FFFFFFC0
0007FFFFFF80
0007FFFFFE00
0007FFFFF800
0007FFFFC000
ENDCHAR
STARTCHAR uni0182
ENCODING 386
SWIDTH 638 0
DWIDTH 38 0
BBX 30 43 5 0
BITMAP
FFFFFFE0
FFFFFFE0
FFFFFFE0
FFFFFFE0
FFFFFFE0
FFFFFFE0
FFFFFFE0
FFFFFFE0
FF800000
FF800000
FF800000
FF800000
FF800000
FF800000
FF800000
FF800000
FFFFE000
FFFFFC00
FFFFFF00
FFFFFFC0
FFFFFFE0
FFFFFFF0
FFFFFFF8
FF87FFF8
FF803FFC
FF800FFC
FF8007FC
FF8007FC
FF8007FC
FF8007FC
FF8007FC
FF8007FC
FF800FFC
FF800FFC
FF803FFC
FF87FFF8
FFFFFFF8
FFFFFFF0
FFFFFFE0
FFFFFFC0
FFFFFF80
FFFFFC00
FFFFE000
ENDCHAR
STARTCHAR uni0183
ENCODING 387
SWIDTH 632 0
DWIDTH 38 0
BBX 30 47 5 -1
BITMAP
FFFFFFE0
FFFFFFE0
FFFFFFE0
FFFFFFE0
FFFFFFE0
FFFFFFE0
FFFFFFE0
FF800000
FF800000
FF800000
FF800000
FF800000
FF800000
FF83FC00
FF8FFF00
FF1FFFC0
FF3FFFE0
FF7FFFE0
FFFFFFF0
FFFFFFF0
FFF87FF8
FFE01FF8
FFC00FFC
FFC00FFC
FF8007FC
FF8007FC
FF8007FC
FF8007FC
FF8007FC
FF8007FC
FF8007FC
FF8007FC
FF8007FC
FF8007FC
FF8007FC
FF800FFC
FFC00FFC
FFC01FF8
FFE03FF8
FFF87FF8
FFFFFFF0
FFFFFFF0
FFFFFFE0
FF7FFFC0
FE3FFF80
FE0FFF00
0003F800
ENDCHAR
STARTCHAR uni0184
ENCODING 388
SWIDTH 661 0
DWIDTH 40 0
BBX 32 44 5 -1
BITMAP
FF800000
FF800000
FF800000
FF800000
FF800000
FF800000
FF800000
FF800000
FF800000
FF800000
FF800000
FF800000
FF800000
FF800000
FF800000
FF800000
FFFFF000
FFFFFF00
FFFFFFC0
FFFFFFE0
FFFFFFF8
FFFFFFFC
FFFFFFFC
FF83FFFE
FF800FFE
FF8007FF
FF8003FF
FF8001FF
FF8001FF
FF8001FF
FF8001FF
FF8001FF
FFC001FF
FFC003FF
7FE003FF
7FF00FFE
7FFE7FFE
3FFFFFFC
3FFFFFFC
1FFFFFF8
0FFFFFF0
07FFFFE0
01FFFF00
003FF800
ENDCHAR
STARTCHAR uni0185
ENCODING 389
SWIDTH 633 0
DWIDTH 38 0
BBX 30 47 5 -1
BITMAP
FF000000
FF000000
FF000000
FF000000
FF000000
FF000000
FF000000
FF000000
FF000000
FF000000
FF000000
FF000000
FF03F800
FF0FFF00
FF1FFF80
FF3FFFC0
FF7FFFE0
FFFFFFF0
FFFFFFF0
FFF87FF8
FFE01FF8
FFC01FF8
FF800FFC
FF800FFC
FF8007FC
FF8007FC
FF8007FC
FF0007FC
FF0007FC
FF0007FC
FF0007FC
FF0007FC
FF8007FC
FF8007FC
FF8007FC
FF800FFC
FFC00FF8
7FC00FF8
7FE01FF8
7FF87FF0
3FFFFFF0
1FFFFFE0
1FFFFFC0
0FFFFF80
03FFFF00
01FFFC00
003FF000
ENDCHAR
STARTCHAR uni0186
ENCODING 390
SWIDTH 637 0
DWIDTH 38 0
BBX 33 45 2 -1
BITMAP
00FFC00000
0FFFF80000
7FFFFE0000
FFFFFF8000
7FFFFFC000
7FFFFFE000
7FFFFFF000
3FFFFFF800
3E007FF800
18003FFC00
00001FFC00
00000FFE00
000007FE00
000003FE00
000003FF00
000003FF00
000001FF00
000001FF00
000001FF00
000001FF00
000001FF80
000001FF80
000001FF80
000001FF80
000001FF80
000001FF00
000001FF00
000001FF00
000001FF00
000003FF00
000003FF00
000007FE00
000007FE00
00000FFE00
00001FFC00
40003FFC00
7C007FF800
7FFFFFF800
7FFFFFF000
7FFFFFE000
7FFFFFC000
7FFFFF8000
7FFFFE0000
1FFFF80000
01FFC00000
ENDCHAR
STARTCHAR uni0187
ENCODING 391
SWIDTH 637 0
DWIDTH 38 0
BBX 39 54 3 -1
BITMAP
00000001FC
00000007FE
0000000FFE
0000001FFE
0000001FFE
0000003FFE
0000003FFE
0000003FC2
0000003F80
0000FFBF80
000FFFFF80
003FFFFF80
007FFFFF80
01FFFFFF80
03FFFFFF00
07FFFFFF00
07FFFFFE00
0FFF007E00
1FFC000C00
1FF8000000
3FF8000000
3FF0000000
3FF0000000
7FE0000000
7FE0000000
7FC0000000
7FC0000000
7FC0000000
7FC0000000
7FC0000000
FFC0000000
FFC0000000
FFC0000000
FFC0000000
7FC0000000
7FC0000000
7FC0000000
7FC0000000
7FE0000000
7FE0000000
7FE0000000
3FF0000000
3FF0000000
1FF8000000
1FFC000200
1FFF001E00
0FFFFFFE00
07FFFFFE00
03FFFFFE00
01FFFFFE00
00FFFFFE00
007FFFFE00
001FFFFC00
0001FFC000
ENDCHAR
STARTCHAR uni0188
ENCODING 392
SWIDTH 514 0
DWIDTH 31 0
BBX 32 47 3 -1
BITMAP
0000007E
000003FF
000007FF
00000FFF
00000FFF
00001FFF
00001FFF
00001FE1
00001FC0
00001FC0
00001FC0
00001FC0
001FFFC0
00FFFFC0
03FFFFC0
07FFFFC0
0FFFFF80
1FFFFF80
3FFFFF80
3FFC3F00
7FF00300
7FE00000
7FC00000
FFC00000
FF800000
FF800000
FF800000
FF800000
FF800000
FF800000
FF800000
FF800000
FF800000
FF800000
FF800000
FFC00000
FFC00000
7FE00080
7FF00380
7FFC1F80
3FFFFF80
1FFFFF80
1FFFFF80
0FFFFF80
03FFFF80
01FFFE00
003FF800
ENDCHAR
STARTCHAR uni0189
ENCODING 393
SWIDTH 740 0
DWIDTH 44 0
BBX 40 43 1 0
BITMAP
0FFFFE0000
0FFFFFE000
0FFFFFFC00
0FFFFFFE00
0FFFFFFF80
0FFFFFFFC0
0FFFFFFFE0
0FF81FFFF0
0FF800FFF0
0FF8003FF8
0FF8001FF8
0FF8000FFC
0FF8000FFC
0FF80007FE
0FF80007FE
0FF80007FE
0FF80003FE
0FF80003FE
FFFFF003FF
FFFFF003FF
FFFFF003FF
FFFFF003FF
FFFFF003FF
FFFFF003FF
FFFFF003FE
0FF80003FE
0FF80003FE
0FF80007FE
0FF80007FE
0FF80007FC
0FF8000FFC
0FF8001FFC
0FF8003FF8
0FF8007FF8
0FF801FFF0
0FFFFFFFE0
0FFFFFFFE0
0FFFFFFFC0
0FFFFFFF00
0FFFFFFE00
0FFFFFF800
0FFFFFE000
0FFFFC0000
ENDCHAR
STARTCHAR uni018A
ENCODING 394
SWIDTH 861 0
DWIDTH 52 0
BBX 48 43 0 0
BITMAP
01FFFFFF0000
07FFFFFFF000
1FFFFFFFFC00
3FFFFFFFFF00
3FFFFFFFFF80
7FFFFFFFFFE0
7FFFFFFFFFF0
7FE7FC0FFFF0
FF07FC007FF8
FF07FC003FFC
FF07FC000FFC
FF07FC000FFE
7F07FC0007FE
7F07FC0003FE
0007FC0003FF
0007FC0003FF
0007FC0001FF
0007FC0001FF
0007FC0001FF
0007FC0001FF
0007FC0001FF
0007FC0001FF
0007FC0001FF
0007FC0001FF
0007FC0001FF
0007FC0001FF
0007FC0003FF
0007FC0003FF
0007FC0003FF
0007FC0007FE
0007FC0007FE
0007FC000FFE
0007FC001FFC
0007FC003FFC
0007FC00FFF8
0007FFFFFFF0
0007FFFFFFE0
0007FFFFFFC0
0007FFFFFF80
0007FFFFFF00
0007FFFFFC00
0007FFFFE000
0007FFFE0000
ENDCHAR
STARTCHAR uni018B
ENCODING 395
SWIDTH 638 0
DWIDTH 38 0
BBX 30 43 3 0
BITMAP
1FFFFFFC
1FFFFFFC
1FFFFFFC
1FFFFFFC
1FFFFFFC
1FFFFFFC
1FFFFFFC
1FFFFFFC
000007FC
000007FC
000007FC
000007FC
000007FC
000007FC
000007FC
000007FC
000FFFFC
00FFFFFC
03FFFFFC
0FFFFFFC
1FFFFFFC
3FFFFFFC
3FFFFFFC
7FFFC7FC
7FF007FC
FFC007FC
FF8007FC
FF8007FC
FF8007FC
FF8007FC
FF8007FC
FF8007FC
FFC007FC
FFC007FC
FFF007FC
7FFF87FC
7FFFFFFC
3FFFFFFC
1FFFFFFC
0FFFFFFC
07FFFFFC
01FFFFFC
001FFFFC
ENDCHAR
STARTCHAR uni018C
ENCODING 396
SWIDTH 632 0
DWIDTH 38 0
BBX 30 47 3 -1
BITMAP
1FFFFFFC
1FFFFFFC
1FFFFFFC
1FFFFFFC
1FFFFFFC
1FFFFFFC
1FFFFFFC
000007FC
000007FC
000007FC
000007FC
000007FC
000007FC
007F07FC
03FFC3FC
07FFF3FC
0FFFFBFC
1FFFFBFC
3FFFFFFC
3FFFFFFC
7FF87FFC
7FE01FFC
7FE00FFC
FFC007FC
FFC007FC
FF8003FC
FF8003FC
FF8003FC
FF8003FC
FF8003FC
FF8003FC
FF8003FC
FF8003FC
FF8003FC
FF8003FC
FF8007FC
FFC007FC
7FE00FFC
7FE00FFC
7FF83FFC
3FFFFFFC
3FFFFFFC
1FFFFBFC
0FFFF3FC
07FFE1FC
03FFC1FC
007F0000
ENDCHAR
STARTCHAR uni018D
ENCODING 397
SWIDTH 619 0
DWIDTH 37 0
BBX 31 47 3 -1
BITMAP
001FF800
00FFFF00
03FFFFC0
0FFFFFE0
1FFFFFF0
1FFFFFF8
3FFFFFFC
7FF87FFC
7FE00FFC
FFC007FE
FFC007FE
FF8003FE
FF8003FE
FF8003FE
FF8003FE
FF8003FE
FF8003FE
FF8003FE
FF8007FE
FFC007FC
FFE00FFC
7FE01FF8
7FF83FF0
3FFCFFE0
1FFFFFC0
1FFFFF80
0FFFFE00
03FFF000
01FFF800
007FFC00
003FFE00
000FFF00
0003FF80
0001FFC0
00007FC0
00007FE0
00003FE0
00003FE0
1C003FE0
3F807FE0
3FFFFFC0
7FFFFFC0
7FFFFF80
FFFFFF80
3FFFFE00
0FFFFC00
00FFC000
ENDCHAR
STARTCHAR uni018E
ENCODING 398
SWIDTH 560 0
DWIDTH 34 0
BBX 24 43 4 0
BITMAP
FFFFFF
FFFFFF
FFFFFF
FFFFFF
FFFFFF
FFFFFF
FFFFFF
0001FF
0001FF
0001FF
0001FF
0001FF
0001FF
0001FF
0001FF
0001FF
0001FF
7FFFFF
7FFFFF
7FFFFF
7FFFFF
7FFFFF
7FFFFF
7FFFFF
0001FF
0001FF
0001FF
0001FF
0001FF
0001FF
0001FF
0001FF
0001FF
0001FF
0001FF
FFFFFF
FFFFFF
FFFFFF
FFFFFF
FFFFFF
FFFFFF
FFFFFF
FFFFFF
ENDCHAR
STARTCHAR uni018F
ENCODING 399
SWIDTH 816 0
DWIDTH 49 0
BBX 41 45 5 -1
BITMAP
0007FF000000
00FFFFF00000
03FFFFFC0000
0FFFFFFF0000
3FFFFFFF8000
3FFFFFFFC000
3FFFFFFFE000
3FFFFFFFF000
3FE000FFF800
3F00003FF800
3800000FFC00
2000000FFC00
00000007FE00
00000003FE00
00000003FE00
00000003FF00
00000001FF00
00000001FF00
00000001FF00
FFFFFFFFFF00
FFFFFFFFFF00
FFFFFFFFFF00
FFFFFFFFFF80
FFFFFFFFFF80
FFFFFFFFFF00
FFFFFFFFFF00
FFFFFFFFFF00
FF800001FF00
FF800001FF00
7F800003FF00
7FC00003FF00
7FC00003FE00
7FC00007FE00
3FE00007FE00
3FF0000FFC00
1FF8001FFC00
1FFC007FF800
0FFFFFFFF000
0FFFFFFFF000
07FFFFFFE000
03FFFFFFC000
00FFFFFF0000
007FFFFE0000
001FFFF80000
0001FFC00000
ENDCHAR
STARTCHAR uni0190
ENCODING 400
SWIDTH 647 0
DWIDTH 39 0
BBX 33 45 3 -1
BITMAP
000FFE0000
00FFFFE000
03FFFFF800
07FFFFFE00
0FFFFFFF80
1FFFFFFF80
3FFFFFFF00
3FFE07FE00
7FF0007E00
7FE0001C00
7FC0000000
7FC0000000
7FC0000000
7FC0000000
7FC0000000
3FE0000000
3FF8000000
1FFF000000
0FFFFFC000
03FFFFC000
00FFFFC000
001FFFC000
01FFFFC000
0FFFFFC000
1FFFFFC000
3FFF000000
7FF0000000
7FC0000000
FF80000000
FF80000000
FF80000000
FF80000000
FF80000000
FF80000000
FF80000000
FFC0000080
FFF0000780
7FFE00FF80
7FFFFFFF80
3FFFFFFF80
1FFFFFFF80
0FFFFFFF80
03FFFFFF80
00FFFFFE00
001FFF8000
ENDCHAR
STARTCHAR uni0191
ENCODING 401
SWIDTH 548 0
DWIDTH 33 0
BBX 31 57 -1 -14
BITMAP
03FFFFFE
03FFFFFE
03FFFFFE
03FFFFFE
03FFFFFE
03FFFFFE
03FFFFFE
03FE0000
03FE0000
03FE0000
03FE0000
03FE0000
03FE0000
03FE0000
03FE0000
03FE0000
03FE0000
03FE0000
03FE0000
03FFFFFC
03FFFFFC
03FFFFFC
03FFFFFC
03FFFFFC
03FFFFFC
03FFFFFC
03FE0000
03FE0000
03FE0000
03FE0000
03FE0000
03FE0000
03FE0000
03FE0000
03FE0000
03FE0000
03FE0000
03FE0000
03FE0000
03FE0000
03FE0000
03FE0000
03FE0000
03FE0000
03FE0000
03FE0000
03FE0000
03FE0000
03FE0000
87FE0000
FFFE0000
FFFE0000
FFFC0000
FFF80000
FFF80000
FFE00000
7F800000
ENDCHAR
STARTCHAR florin
ENCODING 402
SWIDTH 571 0
DWIDTH 34 0
BBX 25 58 6 -14
BITMAP
0007FC00
001FFF80
007FFF80
007FFF00
00FFFF00
00FFFF00
01FFFE00
01FF8200
01FF0000
01FF0000
01FF0000
01FF0000
01FF0000
03FFFC00
0FFFFC00
3FFFFC00
3FFFFC00
3FFFFC00
3FFFFC00
3FFFFC00
01FF0000
01FF0000
01FF0000
01FF0000
01FF0000
01FF0000
01FF0000
01FF0000
01FF0000
01FF0000
01FF0000
01FF0000
01FF0000
01FF0000
01FF0000
01FF0000
01FF0000
01FF0000
01FF0000
01FF0000
01FF0000
01FF0000
01FF0000
01FF0000
01FF0000
01FF0000
01FF0000
01FF0000
03FF0000
03FF0000
87FE0000
FFFE0000
FFFE0000
FFFC0000
FFFC0000
FFF80000
FFE00000
FF800000
ENDCHAR
STARTCHAR uni0193
ENCODING 403
SWIDTH 724 0
DWIDTH 43 0
BBX 41 54 3 -1
BITMAP
000000003F00
00000000FF80
00000003FF80
00000003FF80
00000007FF80
00000007FF80
0000000FFF80
0000000FF880
0000000FF000
00007FFFE000
0007FFFFE000
001FFFFFE000
007FFFFFE000
00FFFFFFE000
01FFFFFFC000
03FFFFFFC000
07FFFFFF8000
0FFFC0078000
0FFF00010000
1FFC00000000
3FF800000000
3FF800000000
3FF000000000
7FE000000000
7FE000000000
7FE000000000
7FC000000000
7FC000000000
7FC000000000
FFC03FFFE000
FFC03FFFE000
FFC03FFFE000
FFC03FFFE000
FFC03FFFE000
7FC03FFFE000
7FC03FFFE000
7FC03FFFE000
7FC0003FE000
7FE0003FE000
7FE0003FE000
3FE0003FE000
3FF0003FE000
3FF8003FE000
1FF8003FE000
1FFC003FE000
0FFF003FE000
0FFFFFFFE000
07FFFFFFE000
03FFFFFFE000
01FFFFFFE000
00FFFFFFE000
003FFFFFE000
000FFFFF0000
0001FFE00000
ENDCHAR
STARTCHAR uni0194
ENCODING 404
SWIDTH 649 0
DWIDTH 39 0
BBX 39 57 0 -14
BITMAP
FFC00007FE
7FC00007FC
7FC00007FC
7FE0000FF8
3FE0000FF8
3FF0001FF8
1FF0001FF0
1FF0001FF0
0FF8003FE0
0FF8003FE0
0FF8007FC0
07FC007FC0
07FC00FFC0
03FE00FF80
03FE00FF80
03FE01FF00
01FF01FF00
01FF03FE00
00FF83FE00
00FF83FC00
007F87FC00
007FC7FC00
007FCFF800
003FCFF800
003FEFF000
001FFFF000
001FFFE000
001FFFE000
000FFFE000
000FFFC000
0007FFC000
0007FF8000
0003FF8000
0003FF0000
0003FF0000
0003FF0000
0003FF0000
0003FF8000
0007FF8000
0007FFC000
000FFFC000
000FFFC000
000FEFE000
001FCFE000
001FC7E000
001FC7E000
001F87F000
001F87F000
001F87F000
001F87F000
001FC7F000
001FEFE000
001FFFE000
000FFFC000
0007FFC000
0003FF0000
0000FC0000
ENDCHAR
STARTCHAR uni0195
ENCODING 405
SWIDTH 986 0
DWIDTH 59 0
BBX 50 47 5 -1
BITMAP
FF800000000000
FF800000000000
FF800000000000
FF800000000000
FF800000000000
FF800000000000
FF800000000000
FF800000000000
FF800000000000
FF800000000000
FF800000000000
FF800000000000
FF03FC00000000
FF0FFF00007FC0
FF1FFF80007FC0
FF3FFFC0007FC0
FF7FFFE0007FC0
FFFFFFF0007FC0
FFFFFFF0007FC0
FFF87FF8007FC0
FFE01FF8007FC0
FFC01FF8007FC0
FFC00FF8007FC0
FF800FF8007FC0
FF800FF8007FC0
FF800FF8007FC0
FF800FF8007FC0
FF800FF8007FC0
FF800FF8007FC0
FF800FF8007FC0
FF800FF8007FC0
FF800FF8007FC0
FF800FF8007FC0
FF800FF800FFC0
FF800FF800FF80
FF800FFC00FF80
FF8007FC00FF80
FF8007FC01FF80
FF8007FE01FF80
FF8007FF87FF00
FF8003FFFFFF00
FF8003FFFFFE00
FF8001FFFFFC00
FF8000FFFFFC00
FF80007FFFF000
FF80003FFFE000
00000007FF0000
ENDCHAR
STARTCHAR uni0196
ENCODING 406
SWIDTH 402 0
DWIDTH 24 0
BBX 19 44 5 -1
BITMAP
FFC000
FFC000
FFC000
FFC000
FFC000
FFC000
FFC000
FFC000
FFC000
FFC000
FFC000
FFC000
FFC000
FFC000
FFC000
FFC000
FFC000
FFC000
FFC000
FFC000
FFC000
FFC000
FFC000
FFC000
FFC000
FFC000
FFC000
FFC000
FFC000
FFC000
FFC000
FFC000
FFC000
FFC000
FFC000
FFE020
FFFFE0
7FFFE0
7FFFE0
3FFFE0
3FFFE0
1FFFE0
0FFFE0
01FF00
ENDCHAR
STARTCHAR uni0197
ENCODING 407
SWIDTH 389 0
DWIDTH 23 0
BBX 21 43 1 0
BITMAP
7FFFF0
7FFFF0
7FFFF0
7FFFF0
7FFFF0
3FFFF0
0FFF80
03FE00
03FE00
03FE00
03FE00
03FE00
03FE00
03FE00
03FE00
03FE00
03FE00
03FE00
FFFFF8
FFFFF8
FFFFF8
FFFFF8
FFFFF8
FFFFF8
FFFFF8
03FE00
03FE00
03FE00
03FE00
03FE00
03FE00
03FE00
03FE00
03FE00
03FE00
03FE00
0FFF80
3FFFF0
7FFFF0
7FFFF0
7FFFF0
7FFFF0
7FFFF0
ENDCHAR
STARTCHAR uni0198
ENCODING 408
SWIDTH 664 0
DWIDTH 40 0
BBX 35 44 5 0
BITMAP
0000001F80
FF80007FC0
FF8000FFC0
FF8003FFC0
FF8003FFC0
FF8007FFC0
FF800FFFC0
FF801FFFC0
FF803FF800
FF803FF000
FF807FE000
FF80FFC000
FF81FF8000
FF81FF8000
FF83FF0000
FF87FE0000
FF8FFC0000
FF8FFC0000
FF9FF80000
FFBFF00000
FFBFF00000
FFFFF80000
FFFFF80000
FFFFFC0000
FFFFFE0000
FFFFFE0000
FFFBFF0000
FFE3FF8000
FFC1FF8000
FF80FFC000
FF80FFC000
FF807FE000
FF807FF000
FF803FF000
FF801FF800
FF801FFC00
FF800FFC00
FF8007FE00
FF8007FF00
FF8003FF00
FF8003FF80
FF8001FF80
FF8000FFC0
FF8000FFE0
ENDCHAR
STARTCHAR uni0199
ENCODING 409
SWIDTH 620 0
DWIDTH 37 0
BBX 32 46 5 0
BITMAP
03FC0000
0FFE0000
3FFE0000
3FFE0000
7FFE0000
FFFE0000
FFFE0000
FFC20000
FF800000
FF800000
FF800000
FF800000
FF800000
FF8007FE
FF800FFC
FF801FF8
FF803FF0
FF807FE0
FF80FFC0
FF81FF80
FF83FF00
FF83FF00
FF07FE00
FF0FFC00
FF1FF800
FF3FF000
FF7FE000
FF7FC000
FFFFE000
FFFFF000
FFFFF800
FFFFF800
FFFFFC00
FFE7FE00
FFC3FF00
FF83FF00
FF81FF80
FF80FFC0
FF80FFC0
FF807FE0
FF803FF0
FF801FF8
FF801FF8
FF800FFC
FF8007FE
FF8007FF
ENDCHAR
STARTCHAR uni019A
ENCODING 410
SWIDTH 330 0
DWIDTH 20 0
BBX 18 46 1 0
BITMAP
0FF800
0FF800
0FF800
0FF800
0FF800
0FF800
0FF800
0FF800
0FF800
0FF800
0FF800
0FF800
0FF800
0FF800
0FF800
0FF800
0FF800
0FF800
0FF800
0FF800
0FF800
FFFFC0
FFFFC0
FFFFC0
FFFFC0
FFFFC0
FFFFC0
FFFFC0
0FF800
0FF800
0FF800
0FF800
0FF800
0FF800
0FF800
0FF800
0FF800
0FF800
0FF800
0FF800
0FF800
0FF800
0FF800
0FF800
0FF800
0FF800
ENDCHAR
STARTCHAR uni019B
ENCODING 411
SWIDTH 615 0
DWIDTH 37 0
BBX 37 47 0 -1
BITMAP
0FF8000000
0FFE000000
0FFF800000
0FFFC00000
0FFFE08000
0FFFEFC000
0FFFFFC000
0FFFFFC000
001FFFC000
00FFFF8000
03FFFC0000
03FFFC0000
01FFFC0000
01F3FE0000
0183FE0000
0003FE0000
0007FF0000
0007FF0000
0007FF0000
000FFF8000
000FFF8000
001FFF8000
001FFFC000
003FFFC000
003FFFE000
007FFFE000
007FBFE000
007F9FF000
00FF9FF000
00FF1FF000
01FF0FF800
01FF0FF800
03FE0FF800
03FE07FC00
07FC07FC00
07FC07FE00
0FFC03FE00
0FF803FF00
0FF803FF00
1FF001FFF8
1FF001FFF8
3FE001FFF8
3FE000FFF8
7FE000FFF8
7FC0007FF8
FFC0003FF8
0000000FE0
ENDCHAR
STARTCHAR uni019C
ENCODING 412
SWIDTH 1035 0
DWIDTH 62 0
BBX 52 44 5 -1
BITMAP
FF8007FC003FF0
FF8007FC003FF0
FF8007FC003FF0
FF8007FC003FF0
FF8007FC003FF0
FF8007FC003FF0
FF8007FC003FF0
FF8007FC003FF0
FF8007FC003FF0
FF8007FC003FF0
FF8007FC003FF0
FF8007FC003FF0
FF8007FC003FF0
FF8007FC003FF0
FF8007FC003FF0
FF8007FC003FF0
FF8007FC003FF0
FF8007FC003FF0
FF8007FC003FF0
FF8007FC003FF0
FF8007FC003FF0
FF8007FC003FF0
FF8007FC003FF0
FF8007FC003FF0
FF8007FC003FF0
FF8007FC003FF0
FF8007FC003FF0
FF8007FC003FF0
FF8007FC003FF0
FF8007FC003FF0
FF8007FC003FF0
FF8007FE003FF0
FFC00FFE007FF0
FFC00FFE007FF0
FFC01FFF00FFF0
FFE03FFF81FFF0
7FFFFFFFFFFFF0
7FFFFFFFFFFFF0
7FFFFDFFFFEFF0
3FFFFCFFFFCFF0
1FFFF8FFFFCFF0
0FFFF07FFF0FF0
07FFC01FFE07F0
00FF0007F80000
ENDCHAR
STARTCHAR uni019D
ENCODING 413
SWIDTH 812 0
DWIDTH 49 0
BBX 45 57 -1 -14
BITMAP
03FFC0000FF8
03FFE0000FF8
03FFE0000FF8
03FFF0000FF8
03FFF8000FF8
03FFF8000FF8
03FFFC000FF8
03FFFC000FF8
03FFFE000FF8
03FFFE000FF8
03FFFF000FF8
03FDFF800FF8
03FDFF800FF8
03FCFFC00FF8
03FC7FC00FF8
03FC7FE00FF8
03FC3FF00FF8
03FC3FF00FF8
03FC1FF80FF8
03FC1FF80FF8
03FC0FFC0FF8
03FE07FC0FF8
03FE07FE0FF8
03FE03FF0FF8
03FE03FF0FF8
03FE01FF8FF8
03FE01FF87F8
03FE00FFC7F8
03FE007FC7F8
03FE007FE7F8
03FE003FF7F8
03FE003FF7F8
03FE001FFFF8
03FE001FFFF8
03FE000FFFF8
03FE0007FFF8
03FE0007FFF8
03FE0003FFF8
03FE0003FFF8
03FE0001FFF8
03FE0000FFF8
03FE0000FFF8
03FE00007FF8
03FE00000000
03FE00000000
03FE00000000
03FE00000000
03FE00000000
03FC00000000
87FC00000000
FFFC00000000
FFFC00000000
FFF800000000
FFF800000000
FFF000000000
FFC000000000
7F0000000000
ENDCHAR
STARTCHAR uni019E
ENCODING 414
SWIDTH 657 0
DWIDTH 39 0
BBX 30 48 5 -14
BITMAP
0003FC00
FE0FFF80
FE3FFFC0
FE7FFFE0
FFFFFFF0
FFFFFFF0
FFFFFFF8
FFF87FF8
FFE01FF8
FFC00FF8
FFC00FFC
FF800FFC
FF8007FC
FF8007FC
FF8007FC
FF8007FC
FF8007FC
FF0007FC
FF0007FC
FF0007FC
FF0007FC
FF0007FC
FF0007FC
FF0007FC
FF0007FC
FF0007FC
FF0007FC
FF0007FC
FF0007FC
FF0007FC
FF0007FC
FF0007FC
FF0007FC
FF0007FC
000007FC
000007FC
000007FC
000007FC
000007FC
000007FC
000007FC
000007FC
000007FC
000007FC
000007FC
000007FC
000007FC
000007FC
ENDCHAR
STARTCHAR uni019F
ENCODING 415
SWIDTH 795 0
DWIDTH 48 0
BBX 41 45 3 -1
BITMAP
0000FFC00000
000FFFFC0000
003FFFFF0000
00FFFFFFC000
01FFFFFFE000
03FFFFFFF000
07FFFFFFF800
0FFFFFFFFC00
0FFF003FFC00
1FFC001FFE00
1FF80007FE00
3FF80007FF00
3FF00003FF00
3FE00001FF00
7FE00001FF80
7FE00001FF80
7FC00001FF80
7FC00000FF80
7FFFFFFFFF80
7FFFFFFFFF80
7FFFFFFFFF80
FFFFFFFFFF80
FFFFFFFFFF80
7FFFFFFFFF80
7FFFFFFFFF80
7FFFFFFFFF80
7FC00000FF80
7FC00000FF80
7FC00001FF80
7FE00001FF80
7FE00001FF80
3FE00003FF00
3FF00003FF00
3FF80007FF00
1FF8000FFE00
1FFE001FFE00
0FFF003FFC00
0FFFFFFFF800
07FFFFFFF800
03FFFFFFF000
01FFFFFFE000
00FFFFFF8000
003FFFFF0000
000FFFFC0000
0000FFE00000
ENDCHAR
STARTCHAR Ohorn
ENCODING 416
SWIDTH 825 0
DWIDTH 50 0
BBX 48 47 4 -1
BITMAP
0000000003FF
0000000003FF
0001FFC003FE
001FFFF803FE
007FFFFE03FE
01FFFFFF83FC
03FFFFFFC7FC
07FFFFFFEFF8
0FFFFFFFFFF8
1FFFFFFFFFF0
1FFE007FFFE0
3FFC001FFFC0
3FF8000FFF00
7FF0000FFE00
7FE00007FE00
7FE00003FF00
FFC00003FF00
FFC00003FF00
FFC00001FF00
FF800001FF00
FF800001FF00
FF800001FF00
FF800001FF80
FF800001FF80
FF800001FF80
FF800001FF80
FF800001FF80
FF800001FF00
FF800001FF00
FF800001FF00
FFC00003FF00
FFC00003FF00
FFC00003FF00
7FE00003FE00
7FE00007FE00
7FF0000FFE00
3FF8000FFC00
3FFC003FFC00
1FFE007FF800
1FFFFFFFF800
0FFFFFFFF000
07FFFFFFE000
03FFFFFFC000
01FFFFFF8000
007FFFFE0000
001FFFF80000
0003FF800000
ENDCHAR
STARTCHAR ohorn
ENCODING 417
SWIDTH 679 0
DWIDTH 41 0
BBX 41 39 3 -1
BITMAP
00000001FF80
00000001FF80
00000001FF00
00000001FF00
001FF001FF00
00FFFE03FE00
03FFFF83FE00
07FFFFC7FC00
0FFFFFFFF800
1FFFFFFFF800
3FFFFFFFE000
3FFC3FFFC000
7FF00FFE0000
7FE007FC0000
7FC007FE0000
FFC003FE0000
FF8003FE0000
FF8003FE0000
FF8003FE0000
FF8003FF0000
FF8003FF0000
FF8003FF0000
FF8003FF0000
FF8003FF0000
FF8003FE0000
FF8003FE0000
FF8003FE0000
FFC003FE0000
7FC007FE0000
7FE007FC0000
3FF00FFC0000
3FFC3FF80000
1FFFFFF80000
1FFFFFF00000
0FFFFFE00000
07FFFFC00000
01FFFF800000
00FFFE000000
001FF0000000
ENDCHAR
STARTCHAR uni01A2
ENCODING 418
SWIDTH 1130 0
DWIDTH 68 0
BBX 60 45 3 -1
BITMAP
0001FFC0001FE000
000FFFF800FFFC00
003FFFFE03FFFE00
00FFFFFF87FFFF00
01FFFFFFCFFFFF80
03FFFFFFFFFFFFC0
07FFFFFFFFFFFFC0
0FFFFFFFFFFFFFE0
0FFF007FFF00FFE0
1FFC003FFE007FE0
1FF8001FFC003FF0
3FF8000FFC003FF0
3FF00007FE001FF0
3FE00007FE001FF0
7FE00003FE001FF0
7FE00003FF001FF0
7FE00003FF001FF0
7FC00003FF001FF0
7FC00003FF001FF0
7FC00003FF001FF0
7FC00001FF001FF0
FFC00001FF001FF0
FFC00001FF001FF0
7FC00001FF001FF0
7FC00001FF001FF0
7FC00003FF001FF0
7FC00003FF001FF0
7FC00003FF001FF0
7FE00003FF001FF0
7FE00003FE001FF0
7FE00003FE001FF0
3FE00007FE001FF0
3FF00007FE001FF0
3FF8000FFC001FF0
1FF8001FFC001FF0
1FFC003FF8001FF0
0FFF007FF8001FF0
0FFFFFFFF0001FF0
07FFFFFFF0001FF0
03FFFFFFE0001FF0
01FFFFFFC0001FF0
00FFFFFF00001FF0
003FFFFE00001FF0
000FFFF800001FF0
0001FF8000000000
ENDCHAR
STARTCHAR uni01A3
ENCODING 419
SWIDTH 929 0
DWIDTH 56 0
BBX 48 48 3 -14
BITMAP
001FE0007F80
00FFFC03FFE0
03FFFF07FFF8
07FFFF9FFFFC
0FFFFFDFFFFE
1FFFFFFFFFFE
3FFFFFFFFFFF
3FF87FFF0FFF
7FE01FFC03FF
7FC00FF801FF
7FC00FF801FF
FFC00FFC01FF
FF8007FC01FF
FF8007FC01FF
FF8007FC01FF
FF8007FC01FF
FF8007FC01FF
FF8007FC01FF
FF8007FC01FF
FF8007FC01FF
FF8007FC01FF
FF8007FC01FF
FF8007FC01FF
FFC00FFC01FF
7FC00FF801FF
7FC00FF801FF
7FE01FF801FF
3FF87FF001FF
3FFFFFF001FF
1FFFFFE001FF
0FFFFFC001FF
07FFFF8001FF
03FFFF0001FF
00FFFC0001FF
001FE00001FF
0000000001FF
0000000001FF
0000000001FF
0000000001FF
0000000001FF
0000000001FF
0000000001FF
0000000001FF
0000000001FF
0000000001FF
0000000001FF
0000000001FF
0000000001FF
ENDCHAR
STARTCHAR uni01A4
ENCODING 420
SWIDTH 750 0
DWIDTH 45 0
BBX 42 43 0 0
BITMAP
01FFFFFF0000
07FFFFFFE000
1FFFFFFFF800
3FFFFFFFFC00
3FFFFFFFFE00
7FFFFFFFFF00
7FFFFFFFFF80
7FE7FC3FFF80
FF07FC01FFC0
FF07FC00FFC0
FF07FC00FFC0
FF07FC007FC0
7F07FC007FC0
7F07FC007FC0
0007FC007FC0
0007FC007FC0
0007FC007FC0
0007FC00FFC0
0007FC01FFC0
0007FC03FF80
0007FC7FFF80
0007FFFFFF00
0007FFFFFF00
0007FFFFFE00
0007FFFFFC00
0007FFFFF000
0007FFFFC000
0007FFFE0000
0007FC000000
0007FC000000
0007FC000000
0007FC000000
0007FC000000
0007FC000000
0007FC000000
0007FC000000
0007FC000000
0007FC000000
0007FC000000
0007FC000000
0007FC000000
0007FC000000
0007FC000000
ENDCHAR
STARTCHAR uni01A5
ENCODING 421
SWIDTH 632 0
DWIDTH 38 0
BBX 30 60 5 -14
BITMAP
03FC0000
0FFE0000
3FFE0000
3FFE0000
7FFE0000
FFFE0000
FFFE0000
FFC20000
FF800000
FF800000
FF800000
FF800000
FF83F800
FF8FFF00
FF1FFF80
FF3FFFC0
FF7FFFE0
FFFFFFF0
FFFFFFF0
FFF87FF8
FFE01FF8
FFC00FF8
FFC00FFC
FF800FFC
FF8007FC
FF8007FC
FF8007FC
FF8007FC
FF8007FC
FF8007FC
FF8007FC
FF8007FC
FF8007FC
FF8007FC
FF8007FC
FF800FFC
FFC00FFC
FFC01FF8
FFE01FF8
FFF87FF8
FFFFFFF0
FFFFFFF0
FFFFFFE0
FF7FFFC0
FF3FFF80
FF0FFF00
FF83F800
FF800000
FF800000
FF800000
FF800000
FF800000
FF800000
FF800000
FF800000
FF800000
FF800000
FF800000
FF800000
FF800000
ENDCHAR
STARTCHAR uni01A6
ENCODING 422
SWIDTH 660 0
DWIDTH 40 0
BBX 35 49 5 -6
BITMAP
FFC0000000
FFC0000000
FFC0000000
FFC0000000
FFC0000000
FFC0000000
FFFFE00000
FFFFFE0000
FFFFFF8000
FFFFFFC000
FFFFFFE000
FFFFFFF000
FFFFFFF800
FFC7FFF800
FFC03FFC00
FFC00FFC00
FFC00FFC00
FFC007FC00
FFC007FC00
FFC007FC00
FFC007FC00
FFC007FC00
FFC00FFC00
FFC00FF800
FFC03FF800
FFC3FFF800
FFFFFFF000
FFFFFFE000
FFFFFFC000
FFFFFF8000
FFFFFE0000
FFFFFE0000
FFFFFE0000
FFC1FF0000
FFC1FF8000
FFC0FFC000
FFC07FC000
FFC07FE000
FFC03FF000
FFC01FF000
FFC01FF800
FFC00FFC00
FFC007FC00
000007FE00
000003FF00
000001FF80
000001FF80
000000FFC0
000000FFE0
ENDCHAR
STARTCHAR uni01A7
ENCODING 423
SWIDTH 550 0
DWIDTH 33 0
BBX 27 45 3 -1
BITMAP
00FFC000
0FFFF800
7FFFFE00
FFFFFF00
7FFFFF80
7FFFFFC0
3FFFFFC0
3FFFFFE0
3E007FE0
10003FE0
00003FE0
00001FE0
00001FE0
00003FE0
00003FE0
00007FE0
0000FFE0
0003FFC0
000FFFC0
007FFF80
01FFFF00
03FFFE00
0FFFFC00
1FFFF800
3FFFE000
7FFF0000
7FFC0000
FFF00000
FFE00000
FFC00000
FF800000
FF800000
FF000000
FF000000
FF800000
FF800060
FFC003E0
FFFFFFE0
7FFFFFE0
7FFFFFE0
3FFFFFE0
1FFFFFE0
0FFFFFE0
03FFFF00
007FF000
ENDCHAR
STARTCHAR uni01A8
ENCODING 424
SWIDTH 497 0
DWIDTH 30 0
BBX 26 35 2 -1
BITMAP
00FFC000
0FFFF800
7FFFFC00
7FFFFE00
3FFFFF00
3FFFFF80
3FFFFF80
1E00FF80
1800FF80
00007FC0
0000FF80
0001FF80
0007FF80
001FFF80
00FFFF00
03FFFF00
07FFFC00
1FFFF800
3FFFF000
3FFF8000
7FFE0000
7FF80000
7FE00000
FFC00000
FF800000
FF800000
FF800080
7FC00780
7FFFFF80
7FFFFF80
3FFFFF80
1FFFFF80
0FFFFF80
07FFFE00
007FE000
ENDCHAR
STARTCHAR uni01A9
ENCODING 425
SWIDTH 592 0
DWIDTH 36 0
BBX 32 43 2 0
BITMAP
7FFFFFFC
7FFFFFFC
7FFFFFFC
7FFFFFFC
7FFFFFFC
7FFFFFFC
7FFFFFFC
7FE00000
3FF00000
1FF80000
0FFC0000
07FE0000
03FF0000
01FF8000
00FFC000
007FE000
003FF000
001FF800
000FFC00
0007FE00
0003FF00
0007FE00
000FFC00
000FF800
001FF000
003FE000
007FC000
00FF8000
01FF0000
03FE0000
07FE0000
0FFC0000
1FF80000
3FF00000
3FE00000
7FC03FFF
FFFFFFFF
FFFFFFFF
FFFFFFFF
FFFFFFFF
FFFFFFFF
FFFFFFFF
FFFFFFFF
ENDCHAR
STARTCHAR uni01AA
ENCODING 426
SWIDTH 367 0
DWIDTH 22 0
BBX 29 60 -4 -14
BITMAP
03F80000
1FFF0000
3FFF8000
7FFFC000
7FFFC000
7C3FE000
FC3FE000
FC1FE000
7E1FE000
7FFFE000
7FFFF000
3FFFF000
1FFFF000
07FFF000
001FF000
001FF000
001FF000
001FF000
001FF000
001FF000
001FF000
001FF000
001FF000
001FF000
001FF000
001FF000
001FF000
001FF000
001FF000
001FF000
001FF000
001FF000
001FF000
001FF000
001FF000
001FF000
001FF000
001FF000
001FF000
001FF000
001FF000
001FF000
001FF000
001FF000
001FF000
001FF000
001FF000
001FF000
001FF000
001FF000
001FF000
001FF000
001FFC38
001FFFF8
001FFFF8
000FFFF8
000FFFF8
0007FFF8
0001FFF8
00007FC0
ENDCHAR
STARTCHAR uni01AB
ENCODING 427
SWIDTH 434 0
DWIDTH 26 0
BBX 23 54 1 -14
BITMAP
00FC00
01FC00
01FC00
01FC00
03FC00
03FC00
07FC00
0FFFFE
1FFFFE
7FFFFE
FFFFFE
FFFFFE
FFFFFE
FFFFFE
07FC00
07FC00
07FC00
07FC00
07FC00
07FC00
07FC00
07FC00
07FC00
07FC00
07FC00
07FC00
07FC00
07FC00
07FC00
07FC00
07FC00
07FC00
07FC00
07FF06
07FFFE
07FFFE
03FFFE
01FFFE
01FFFE
007FFE
001FFE
0000FE
0000FE
0000FE
0000FE
0000FE
0001FE
003FFE
003FFE
003FFC
003FFC
003FF8
003FF0
001FC0
ENDCHAR
STARTCHAR uni01AC
ENCODING 428
SWIDTH 618 0
DWIDTH 37 0
BBX 36 43 0 0
BITMAP
01FFFFFFF0
07FFFFFFF0
1FFFFFFFF0
3FFFFFFFF0
3FFFFFFFF0
7FFFFFFFF0
7FFFFFFFF0
7FFFFFFFF0
FF01FF0000
FF01FF0000
FF01FF0000
FF01FF0000
7F01FF0000
7F01FF0000
0001FF0000
0001FF0000
0001FF0000
0001FF0000
0001FF0000
0001FF0000
0001FF0000
0001FF0000
0001FF0000
0001FF0000
0001FF0000
0001FF0000
0001FF0000
0001FF0000
0001FF0000
0001FF0000
0001FF0000
0001FF0000
0001FF0000
0001FF0000
0001FF0000
0001FF0000
0001FF0000
0001FF0000
0001FF0000
0001FF0000
0001FF0000
0001FF0000
0001FF0000
ENDCHAR
STARTCHAR uni01AD
ENCODING 429
SWIDTH 434 0
DWIDTH 26 0
BBX 23 47 1 -1
BITMAP
000FF0
007FF8
00FFF8
01FFF8
03FFF8
07FFF8
07FFF8
07FE08
07FC00
07FC00
07FC00
07FC00
07FC00
0FFFFE
1FFFFE
7FFFFE
FFFFFE
FFFFFE
FFFFFE
FFFFFE
07FC00
07FC00
07FC00
07FC00
07FC00
07FC00
07FC00
07FC00
07FC00
07FC00
07FC00
07FC00
07FC00
07FC00
07FC00
07FC00
07FC00
07FC00
07FC00
07FF06
07FFFE
07FFFE
03FFFE
01FFFE
01FFFE
007FFE
001FF0
ENDCHAR
STARTCHAR uni01AE
ENCODING 430
SWIDTH 579 0
DWIDTH 35 0
BBX 33 57 1 -14
BITMAP
FFFFFFFF80
FFFFFFFF80
FFFFFFFF80
FFFFFFFF80
FFFFFFFF80
FFFFFFFF80
FFFFFFFF80
FFFFFFFF80
000FF80000
000FF80000
000FF80000
000FF80000
000FF80000
000FF80000
000FF80000
000FF80000
000FF80000
000FF80000
000FF80000
000FF80000
000FF80000
000FF80000
000FF80000
000FF80000
000FF80000
000FF80000
000FF80000
000FF80000
000FF80000
000FF80000
000FF80000
000FF80000
000FF80000
000FF80000
000FF80000
000FF80000
000FF80000
000FF80000
000FF80000
000FF80000
000FF80000
000FF80000
000FF80000
000FF80000
000FF80000
000FF80000
000FF80000
000FF80000
000FFC0000
000FFE0000
000FFFE000
0007FFE000
0007FFE000
0003FFE000
0001FFE000
0000FFE000
00003FC000
ENDCHAR
STARTCHAR Uhorn
ENCODING 431
SWIDTH 884 0
DWIDTH 53 0
BBX 49 47 5 -1
BITMAP
0000000001FF80
0000000001FF00
0000000001FF00
FF80003FE1FF00
FF80003FE1FF00
FF80003FE3FE00
FF80003FE3FE00
FF80003FE7FC00
FF80003FEFFC00
FF80003FFFF800
FF80003FFFF000
FF80003FFFE000
FF80003FFF8000
FF80003FFE0000
FF80003FE00000
FF80003FE00000
FF80003FE00000
FF80003FE00000
FF80003FE00000
FF80003FE00000
FF80003FE00000
FF80003FE00000
FF80003FE00000
FF80003FE00000
FF80003FE00000
FF80003FE00000
FF80003FE00000
FF80003FE00000
FF80003FE00000
FF80003FE00000
FF80003FE00000
FF80003FE00000
FF80003FE00000
FF80003FE00000
FFC0003FE00000
7FC0007FE00000
7FE0007FC00000
7FF000FFC00000
3FF803FFC00000
3FFFFFFF800000
1FFFFFFF800000
1FFFFFFF000000
0FFFFFFE000000
03FFFFFC000000
01FFFFF0000000
007FFFC0000000
000FFE00000000
ENDCHAR
STARTCHAR uhorn
ENCODING 432
SWIDTH 759 0
DWIDTH 46 0
BBX 44 39 5 -1
BITMAP
000000003FF0
000000003FF0
000000003FE0
000000003FE0
000000003FE0
FF0007FC7FC0
FF0007FCFFC0
FF0007FDFF80
FF0007FFFF00
FF0007FFFE00
FF0007FFFC00
FF0007FFF800
FF0007FFC000
FF0007FC0000
FF0007FC0000
FF0007FC0000
FF0007FC0000
FF0007FC0000
FF0007FC0000
FF0007FC0000
FF0007FC0000
FF0007FC0000
FF0007FC0000
FF0007FC0000
FF0007FC0000
FF8007FC0000
FF800FFC0000
FF800FFC0000
FF800FFC0000
FF801FFC0000
FFC03FFC0000
FFF0FFFC0000
FFFFFFFC0000
7FFFFFFC0000
7FFFFBFC0000
3FFFF3FC0000
1FFFE1FC0000
07FFC1FC0000
01FE00000000
ENDCHAR
STARTCHAR uni01B1
ENCODING 433
SWIDTH 786 0
DWIDTH 47 0
BBX 43 44 2 -1
BITMAP
FFFFC07FFFE0
FFFFC07FFFE0
FFFFC07FFFE0
FFFFC07FFFE0
FFFFC07FFFE0
FFFFC07FFFE0
FFFFC07FFFE0
FFFFC07FFFE0
007FC07FC000
00FF001FE000
01FE000FF000
03FC0007F800
07FC0003FC00
07F80003FC00
0FF00001FE00
1FF00001FF00
1FF00001FF00
1FE00000FF00
3FE00000FF80
3FE00000FF80
3FE00000FF80
3FE00000FF80
7FE00000FFC0
7FE00000FFC0
7FE00000FFC0
7FE00000FFC0
7FE00000FFC0
7FE00000FFC0
7FE00000FFC0
7FE00000FFC0
3FF00001FF80
3FF00001FF80
3FF80003FF80
1FFC0007FF00
1FFE000FFF00
0FFF803FFE00
0FFFFFFFFE00
07FFFFFFFC00
03FFFFFFF800
01FFFFFFF000
00FFFFFFE000
003FFFFF8000
000FFFFE0000
0000FFE00000
ENDCHAR
STARTCHAR uni01B2
ENCODING 434
SWIDTH 649 0
DWIDTH 39 0
BBX 37 44 0 0
BITMAP
0000007F00
FF8001FFC0
7FC001FFE0
7FC001FFF0
7FC001FFF0
3FE001FFF8
3FE001FFF8
3FE001FFF8
1FF0000FF8
1FF00007F8
1FF00007F8
0FF80007F8
0FF8000FF8
0FF8000FF8
07FC000FF0
07FC001FF0
03FC001FF0
03FE003FE0
03FE003FE0
01FE003FE0
01FF007FC0
01FF007FC0
00FF00FF80
00FF80FF80
00FF80FF80
007F81FF00
007FC1FF00
007FC3FE00
003FC3FE00
003FE3FE00
001FE7FC00
001FE7FC00
001FE7F800
000FF7F800
000FFFF000
000FFFF000
0007FFF000
0007FFE000
0007FFE000
0003FFC000
0003FFC000
0003FFC000
0001FF8000
0001FF8000
ENDCHAR
STARTCHAR uni01B3
ENCODING 435
SWIDTH 624 0
DWIDTH 37 0
BBX 37 44 0 0
BITMAP
7F00000000
FF80001FF8
FFE0001FF0
FFE0003FF0
FFF0003FE0
FFF8007FE0
FFF8007FC0
FFFC00FFC0
07FC00FF80
07FE01FF80
03FE01FF00
01FE03FE00
01FF03FE00
00FF07FC00
00FF87FC00
00FF8FF800
007FCFF800
007FDFF000
003FFFF000
003FFFE000
001FFFE000
001FFFC000
000FFFC000
000FFF8000
0007FF8000
0007FF0000
0003FE0000
0003FE0000
0003FE0000
0003FE0000
0003FE0000
0003FE0000
0003FE0000
0003FE0000
0003FE0000
0003FE0000
0003FE0000
0003FE0000
0003FE0000
0003FE0000
0003FE0000
0003FE0000
0003FE0000
0003FE0000
ENDCHAR
STARTCHAR uni01B4
ENCODING 436
SWIDTH 615 0
DWIDTH 37 0
BBX 36 48 1 -14
BITMAP
0000000FC0
FFC0003FF0
FFC0007FF0
7FC000FFF0
7FE001FFF0
7FE001FFF0
3FE003FFF0
3FF003FFF0
1FF003FE00
1FF007FE00
1FF807FC00
0FF80FFC00
0FF80FF800
07FC0FF800
07FC1FF000
07FC1FF000
03FE1FF000
03FE3FE000
01FE3FE000
01FF3FE000
01FF7FC000
00FF7FC000
00FF7F8000
007F7F8000
007FFF8000
007FFF0000
003FFF0000
003FFF0000
001FFE0000
001FFE0000
001FFE0000
000FFC0000
000FFC0000
0007F80000
000FF80000
000FF80000
001FF00000
001FF00000
003FF00000
007FE00000
01FFE00000
3FFFC00000
3FFF800000
3FFF800000
3FFF000000
3FFC000000
3FF8000000
3FC0000000
ENDCHAR
ENDFONT
